{"glyphs":{"0":{"ha":707,"x_min":0,"x_max":0,"o":"m 0 219 b 132 696 1 389 44 549 b 213 801 154 733 181 769 b 350 885 251 840 294 872 b 361 890 354 886 358 886 b 417 914 376 904 396 911 b 535 901 457 918 496 917 b 635 818 578 885 611 857 b 685 674 663 774 676 725 b 692 556 690 635 693 594 b 672 378 692 496 685 436 b 574 86 653 276 621 178 b 474 -58 546 33 514 -15 b 254 -154 414 -121 342 -157 b 53 -33 164 -153 96 -114 b 10 101 31 10 17 54 b 0 219 3 140 0 179 z m 199 181 b 219 22 199 131 204 75 b 260 -53 228 -6 240 -31 b 282 -56 268 -62 271 -62 b 321 -25 296 -47 308 -37 b 421 110 361 14 393 60 b 532 535 492 242 526 385 b 517 693 533 588 529 642 b 476 794 508 729 497 764 b 450 824 469 806 460 815 b 426 822 440 831 433 829 b 318 674 383 778 347 728 b 243 478 285 611 261 546 b 199 181 217 383 199 286 z "},"1":{"ha":479,"x_min":0,"x_max":0,"o":"m 64 -129 b 22 -121 50 -129 36 -128 b 3 -83 4 -112 0 -104 b 67 206 15 15 39 111 b 160 511 97 308 126 411 b 275 836 196 621 231 731 b 297 883 281 853 289 868 b 335 914 306 899 318 908 b 429 913 365 924 397 924 b 440 907 432 911 436 910 b 460 863 460 896 465 883 b 422 739 447 822 436 781 b 275 301 375 593 322 449 b 190 50 247 218 222 132 b 143 -74 175 8 160 -32 b 138 -87 142 -78 139 -82 b 72 -129 125 -117 101 -128 b 64 -129 69 -129 67 -129 z "},"2":{"ha":751,"x_min":0,"x_max":0,"o":"m 353 392 b 260 415 319 394 289 401 b 142 581 192 449 150 503 b 181 736 135 638 151 689 b 444 925 244 833 331 900 b 628 911 507 939 568 935 b 697 863 654 900 679 885 b 732 778 718 838 729 810 b 718 649 738 733 731 692 b 628 454 699 579 667 515 b 436 201 569 365 506 282 b 283 32 386 144 338 86 b 271 18 279 28 275 24 b 274 10 267 14 267 11 b 286 10 278 10 282 10 b 506 -29 360 6 433 -7 b 575 -64 529 -37 554 -49 b 601 -90 586 -71 594 -79 b 594 -133 610 -106 608 -121 b 557 -151 585 -143 571 -149 b 479 -137 529 -156 503 -154 b 392 -106 453 -119 422 -111 b 265 -93 350 -99 307 -96 b 156 -100 228 -90 192 -96 b 65 -101 125 -104 94 -108 b 21 -83 49 -99 35 -93 b 15 -33 3 -69 0 -51 b 175 161 69 29 121 97 b 346 379 235 232 290 306 b 353 392 349 383 351 386 z m 331 610 b 333 578 329 600 332 589 b 388 467 339 535 357 499 b 394 461 389 465 392 463 b 401 461 396 458 399 458 b 406 469 403 464 404 467 b 489 621 436 518 464 569 b 526 749 507 661 521 703 b 514 819 528 774 525 797 b 494 828 508 831 506 832 b 482 822 490 826 486 824 b 343 671 418 788 372 738 b 331 610 335 651 331 632 z "},"3":{"ha":746,"x_min":0,"x_max":0,"o":"m 268 403 b 214 425 247 408 229 415 b 133 560 163 456 136 501 b 190 747 129 629 149 692 b 446 907 254 835 340 888 b 610 894 501 918 556 914 b 724 707 703 863 732 776 b 669 569 717 657 697 613 b 567 449 642 524 607 485 b 485 379 540 424 513 400 b 476 371 482 376 478 375 b 489 364 479 365 485 365 b 585 311 524 353 556 335 b 646 217 615 286 635 254 b 592 -8 668 132 647 57 b 361 -125 532 -79 453 -114 b 197 -114 306 -132 251 -129 b 125 -83 172 -107 147 -97 b 78 -43 107 -74 90 -60 b 17 61 53 -11 31 22 b 3 114 10 78 6 96 b 44 199 0 150 13 179 b 164 217 82 222 121 226 b 190 204 174 214 182 211 b 194 169 203 194 204 182 b 190 164 193 167 192 165 b 183 139 181 157 181 149 b 206 82 188 118 196 100 b 242 31 217 64 229 47 b 288 -1 254 15 271 6 b 343 3 307 -10 326 -3 b 394 39 364 11 381 22 b 450 186 433 81 454 128 b 413 264 447 217 435 242 b 364 283 399 276 383 283 b 322 282 350 283 336 283 b 244 289 296 278 269 281 b 214 307 233 293 222 299 b 213 353 200 321 200 338 b 239 378 219 363 229 369 b 268 403 247 386 257 393 z m 521 744 b 506 804 522 765 518 786 b 486 811 500 814 497 814 b 458 799 476 808 467 804 b 332 661 401 767 360 719 b 321 472 301 600 297 538 b 325 463 322 469 324 465 b 335 460 326 457 331 456 b 343 465 338 461 340 464 b 407 521 365 483 386 503 b 492 636 442 554 471 592 b 521 744 508 669 521 706 z "},"4":{"ha":886,"x_min":0,"x_max":0,"o":"m 267 324 b 306 329 279 325 293 326 b 453 349 354 335 404 342 b 474 365 464 350 469 354 b 578 626 506 453 539 542 b 642 765 599 674 621 719 b 686 863 657 799 671 831 b 701 892 690 872 696 882 b 738 921 710 906 722 915 b 835 919 771 932 803 931 b 844 915 839 919 842 917 b 864 867 867 904 872 890 b 815 729 850 821 833 775 b 694 426 775 628 735 528 b 569 117 653 324 614 219 b 499 -42 546 64 522 11 b 478 -78 492 -54 485 -65 b 453 -101 472 -89 464 -97 b 350 -101 418 -118 385 -118 b 332 -54 328 -92 324 -76 b 371 63 349 -17 358 24 b 429 246 389 124 407 185 b 417 261 436 263 435 264 b 274 233 368 251 321 246 b 203 213 250 226 226 219 b 131 199 179 206 156 200 b 57 206 106 196 81 199 b 29 219 47 208 38 214 b 13 279 6 235 0 253 b 63 358 26 307 44 333 b 242 621 126 443 185 531 b 360 783 276 676 317 731 b 500 813 392 824 454 836 b 528 760 522 801 531 785 b 519 725 526 747 524 736 b 451 594 501 679 476 636 b 274 338 397 504 338 419 b 267 324 271 333 267 331 z "},"5":{"ha":771,"x_min":0,"x_max":0,"o":"m 379 457 b 425 463 396 458 410 461 b 593 453 482 469 538 468 b 646 433 611 449 629 442 b 740 317 694 408 726 369 b 725 140 757 256 750 197 b 449 -96 669 18 576 -60 b 301 -125 400 -110 351 -119 b 107 -114 236 -131 171 -129 b 43 -87 85 -108 63 -100 b 24 -71 36 -82 29 -76 b 24 8 0 -50 1 -12 b 128 42 53 36 88 49 b 174 -3 153 38 168 22 b 196 -21 178 -21 178 -21 b 276 -17 224 -22 250 -21 b 386 35 318 -11 354 7 b 508 217 443 85 486 144 b 514 304 518 246 519 275 b 499 344 511 319 506 332 b 472 357 492 354 483 358 b 408 342 450 356 429 350 b 289 265 364 324 325 297 b 114 235 236 219 178 215 b 82 254 101 239 92 246 b 69 297 71 267 65 281 b 86 351 74 315 79 333 b 167 539 111 415 135 478 b 276 729 201 603 238 668 b 342 815 296 760 317 789 b 447 882 369 847 406 869 b 547 900 479 892 514 896 b 646 903 581 904 613 904 b 706 894 667 903 686 900 b 736 879 717 892 728 886 b 736 838 751 867 751 850 b 697 819 725 828 711 822 b 626 807 674 813 650 811 b 581 799 611 804 596 801 b 543 772 564 796 553 786 b 493 686 525 744 508 715 b 385 475 456 617 419 546 b 379 457 382 469 378 465 z "},"6":{"ha":754,"x_min":0,"x_max":0,"o":"m 233 276 b 246 283 239 276 242 281 b 318 332 268 301 292 319 b 575 367 400 371 485 383 b 678 321 613 360 647 346 b 732 222 708 294 726 261 b 699 83 740 171 725 125 b 382 -122 624 -33 518 -101 b 160 -87 306 -133 231 -124 b 29 64 97 -54 54 -3 b 4 268 6 129 0 197 b 110 564 13 376 53 474 b 253 744 151 629 197 690 b 426 871 304 794 361 839 b 607 919 483 900 543 918 b 703 901 640 921 674 917 b 728 882 713 896 721 890 b 726 842 738 868 738 854 b 686 822 715 829 701 824 b 644 825 672 821 658 821 b 619 822 636 828 628 826 b 517 757 581 807 547 783 b 269 407 407 660 324 543 b 233 289 254 368 242 329 b 232 279 233 286 232 282 b 233 276 232 278 233 278 z m 560 182 b 532 256 561 210 553 235 b 490 267 519 268 507 274 b 393 219 456 253 422 240 b 267 115 347 190 306 154 b 239 82 257 106 247 94 b 236 58 235 75 233 67 b 268 1 244 38 253 18 b 379 -32 304 -40 335 -46 b 383 -31 381 -32 382 -32 b 531 86 446 -10 496 29 b 560 182 549 115 561 146 z "},"7":{"ha":742,"x_min":0,"x_max":0,"o":"m 153 365 b 117 353 140 363 128 357 b 54 346 96 344 76 340 b 14 367 39 350 25 354 b 13 410 0 379 0 394 b 53 438 22 422 38 432 b 139 461 81 450 110 456 b 213 474 163 467 188 471 b 233 486 222 475 228 479 b 383 672 278 553 329 613 b 524 815 428 721 475 769 b 514 819 521 821 517 819 b 283 818 438 819 360 821 b 115 819 228 817 172 819 b 49 828 93 821 71 822 b 26 835 40 829 33 832 b 0 860 14 839 1 844 b 25 886 0 876 14 881 b 67 894 39 892 53 893 b 151 897 94 896 124 897 b 346 901 217 899 281 899 b 586 903 426 904 507 901 b 657 894 611 903 633 900 b 699 875 672 890 686 885 b 714 807 722 857 728 833 b 693 776 708 797 701 786 b 631 703 674 750 653 726 b 465 494 571 638 518 567 b 454 479 461 490 458 485 b 457 468 450 474 450 471 b 483 460 467 465 475 463 b 515 444 496 456 506 451 b 536 424 524 439 531 432 b 526 393 543 411 540 399 b 493 388 515 388 504 386 b 451 397 479 390 465 393 b 415 403 439 400 426 401 b 397 394 407 404 401 401 b 339 290 376 360 358 325 b 233 78 301 221 268 149 b 179 -64 211 32 192 -14 b 169 -94 176 -75 172 -85 b 150 -117 165 -104 158 -111 b 68 -114 122 -128 94 -128 b 44 -72 51 -106 46 -90 b 49 6 43 -46 44 -19 b 50 38 50 17 51 26 b 71 168 50 82 58 125 b 150 354 90 233 117 296 b 153 365 151 357 154 360 z "},"8":{"ha":783,"x_min":0,"x_max":0,"o":"m 311 -143 b 163 -117 260 -144 210 -136 b 35 -14 110 -94 65 -62 b 21 132 6 32 0 81 b 150 356 53 213 93 289 b 263 463 183 396 219 432 b 267 464 264 463 265 464 b 271 481 275 471 275 471 b 240 551 258 504 249 528 b 281 788 210 638 226 717 b 528 910 343 869 426 906 b 647 888 569 910 610 904 b 746 681 733 851 769 767 b 672 549 731 631 706 588 b 558 446 639 508 601 474 b 554 429 549 439 547 439 b 601 347 571 401 588 375 b 654 190 628 297 649 246 b 511 -94 667 68 613 -37 b 332 -143 456 -126 396 -142 b 311 -143 325 -144 318 -143 z m 196 90 b 222 3 194 57 203 28 b 271 -35 236 -14 251 -26 b 328 -37 290 -43 308 -44 b 428 81 381 -15 418 21 b 428 161 433 108 432 135 b 382 292 421 208 401 250 b 350 353 372 313 361 333 b 336 354 344 360 343 360 b 332 349 335 351 333 350 b 225 190 290 300 256 247 b 196 90 208 158 193 126 z m 586 715 b 557 799 585 744 579 774 b 532 801 547 808 543 810 b 497 767 518 793 506 781 b 457 636 469 728 453 685 b 488 538 460 601 472 569 b 503 536 493 528 494 528 b 571 643 532 568 556 603 b 586 715 581 665 585 689 z "},"9":{"ha":757,"x_min":0,"x_max":0,"o":"m 556 818 b 565 838 561 824 563 831 b 628 890 574 871 597 885 b 708 882 656 894 682 893 b 739 828 732 871 743 854 b 711 711 733 788 722 750 b 651 513 693 644 672 579 b 596 332 632 453 615 392 b 467 78 568 240 528 153 b 379 -10 440 44 413 15 b 224 -117 329 -47 279 -86 b 110 -160 189 -136 151 -154 b 39 -156 86 -162 63 -164 b 17 -143 31 -153 24 -149 b 17 -101 0 -131 0 -114 b 63 -90 29 -92 46 -87 b 93 -83 74 -92 83 -89 b 232 14 143 -54 189 -24 b 324 144 272 50 301 96 b 429 400 361 228 396 314 b 438 425 433 408 435 417 b 419 410 429 422 424 415 b 344 340 397 383 372 361 b 201 303 303 307 256 294 b 97 407 140 314 108 357 b 100 551 88 456 90 503 b 169 718 113 611 133 668 b 407 857 226 801 306 849 b 501 847 439 858 471 856 b 549 821 518 842 535 833 b 556 818 550 819 551 817 z m 265 410 b 268 400 265 408 264 403 b 279 406 272 399 276 403 b 347 468 303 425 326 446 b 458 619 392 514 429 564 b 504 706 474 649 489 678 b 501 722 508 713 510 718 b 486 740 494 726 490 733 b 463 764 479 749 472 757 b 436 765 454 772 446 772 b 389 725 418 754 403 742 b 306 583 353 683 326 635 b 265 410 282 529 268 472 z "}," ":{"ha":382,"x_min":0,"x_max":0,"o":""},"!":{"ha":668,"x_min":0,"x_max":0,"o":"m 101 6 b 114 78 103 31 108 54 b 172 300 131 153 151 226 b 314 753 218 453 265 603 b 422 1089 351 865 386 978 b 449 1163 431 1114 440 1138 b 493 1204 457 1185 472 1197 b 606 1206 531 1217 568 1218 b 642 1183 619 1201 632 1194 b 653 1150 651 1174 654 1163 b 639 1099 650 1132 644 1115 b 558 874 613 1024 586 949 b 486 658 532 803 510 729 b 283 51 418 456 350 254 b 269 13 278 39 275 25 b 235 -47 263 -10 251 -31 b 175 -75 218 -62 197 -72 b 107 -31 146 -78 115 -56 b 101 6 104 -19 101 -7 z m 125 -143 b 214 -174 157 -143 186 -154 b 256 -240 238 -189 250 -212 b 251 -268 258 -250 256 -260 b 214 -324 243 -289 231 -308 b 131 -356 192 -347 163 -356 b 63 -340 107 -356 85 -350 b 1 -268 31 -326 8 -304 b 6 -228 0 -254 1 -240 b 125 -143 25 -178 61 -143 z "},"\"":{"ha":514,"x_min":0,"x_max":0,"o":"m 186 1243 b 243 1232 208 1243 226 1240 b 264 1182 265 1221 272 1204 b 219 1101 253 1153 238 1126 b 146 950 189 1054 164 1004 b 136 911 142 938 139 925 b 140 897 135 906 136 903 b 135 869 149 886 147 878 b 92 856 122 860 107 857 b 46 863 75 854 60 857 b 0 926 15 874 0 893 b 11 996 0 950 4 972 b 51 1121 24 1038 38 1079 b 108 1213 63 1156 83 1186 b 186 1243 131 1235 158 1243 z m 414 1243 b 472 1232 438 1243 456 1240 b 492 1182 493 1221 500 1204 b 449 1101 482 1153 465 1126 b 375 950 417 1054 393 1004 b 365 911 371 938 367 925 b 368 897 364 906 365 903 b 364 869 378 886 376 878 b 319 856 350 860 335 857 b 274 863 304 854 289 857 b 228 926 243 874 229 893 b 239 996 228 950 233 972 b 279 1121 251 1038 265 1079 b 336 1213 292 1156 311 1186 b 414 1243 358 1235 388 1243 z "},"#":{"ha":865,"x_min":0,"x_max":0,"o":"m 125 53 b 125 79 125 61 125 69 b 111 96 125 92 125 93 b 57 114 92 99 74 106 b 24 140 44 121 33 131 b 36 208 0 167 6 193 b 106 225 58 219 82 224 b 143 228 118 226 131 228 b 154 239 150 229 153 232 b 190 350 165 276 178 314 b 183 358 193 358 192 360 b 97 369 153 354 125 358 b 53 400 81 376 64 386 b 63 461 32 424 35 446 b 135 483 85 474 110 479 b 232 496 168 488 200 492 b 254 513 243 497 250 501 b 281 575 261 533 271 554 b 369 626 297 613 324 626 b 417 615 386 626 401 624 b 446 569 436 606 446 590 b 440 522 446 553 443 538 b 449 511 438 511 438 511 b 501 513 465 511 483 513 b 521 525 511 511 517 515 b 572 625 536 558 553 592 b 593 657 578 636 585 646 b 699 683 621 697 668 697 b 724 640 717 676 725 661 b 717 596 722 625 719 610 b 694 511 710 568 701 539 b 704 497 692 500 692 499 b 778 476 729 492 754 486 b 825 449 794 469 811 461 b 843 429 832 443 838 438 b 828 393 851 413 846 400 b 785 389 814 389 800 388 b 674 396 747 392 711 394 b 653 381 658 396 658 396 b 596 238 633 333 611 288 b 608 217 590 221 589 219 b 719 189 646 211 683 204 b 767 164 736 182 751 174 b 788 142 775 157 782 151 b 775 106 797 126 793 113 b 717 101 756 100 736 99 b 578 113 669 107 624 111 b 569 113 575 113 572 113 b 547 97 554 113 553 113 b 479 -96 525 33 503 -32 b 450 -162 471 -118 461 -140 b 417 -192 443 -176 432 -186 b 338 -192 390 -203 364 -203 b 314 -153 319 -185 313 -172 b 321 -115 315 -140 318 -128 b 379 93 338 -44 358 24 b 365 113 385 113 386 113 b 318 111 349 113 333 111 b 289 93 304 111 294 106 b 244 7 274 65 261 35 b 233 -10 240 1 238 -4 b 153 -31 215 -36 182 -44 b 128 1 140 -24 132 -14 b 125 53 124 18 124 35 z m 454 390 b 454 389 454 389 454 389 b 415 388 442 389 428 388 b 394 372 400 386 400 386 b 353 251 381 332 367 292 b 351 238 351 247 346 240 b 365 246 358 232 361 242 b 464 381 399 290 428 339 b 460 390 468 386 467 389 b 454 390 458 390 456 390 z m 390 238 b 410 235 399 233 404 235 b 428 247 422 235 424 235 b 446 304 433 267 440 285 b 444 314 446 307 449 310 b 390 238 426 289 408 264 z "},"$":{"ha":683,"x_min":0,"x_max":0,"o":"m 165 278 b 232 268 188 276 210 274 b 247 275 243 265 244 265 b 278 376 257 310 268 343 b 272 399 282 385 279 392 b 192 501 242 431 214 464 b 160 582 178 528 165 554 b 188 731 151 635 160 685 b 311 849 217 782 260 819 b 442 897 353 872 396 888 b 460 914 453 900 457 906 b 499 1033 472 954 485 993 b 535 1135 510 1068 522 1101 b 538 1140 536 1136 536 1139 b 607 1178 549 1172 569 1182 b 614 1176 610 1178 613 1176 b 639 1136 638 1169 644 1158 b 626 1094 635 1122 631 1108 b 574 922 608 1038 592 979 b 574 919 574 921 574 919 b 582 906 571 908 571 908 b 633 889 599 903 617 899 b 653 875 640 886 647 881 b 667 849 661 868 665 860 b 668 838 667 844 667 842 b 660 817 669 828 668 822 b 597 818 644 807 614 807 b 589 829 593 821 590 825 b 572 839 586 838 581 840 b 558 836 568 839 563 838 b 544 825 551 835 547 831 b 533 786 542 811 538 799 b 435 464 501 679 468 572 b 442 435 432 453 433 444 b 528 331 471 400 499 365 b 581 235 550 301 569 271 b 567 104 594 190 592 146 b 501 43 550 79 528 60 b 353 -11 456 15 406 -3 b 299 -17 335 -14 317 -17 b 281 -31 285 -18 285 -18 b 232 -167 264 -76 249 -122 b 188 -294 217 -210 203 -251 b 181 -312 185 -300 182 -306 b 147 -333 174 -326 163 -332 b 119 -332 139 -335 129 -335 b 104 -304 106 -326 101 -319 b 121 -226 110 -279 115 -253 b 164 -19 133 -157 147 -87 b 153 -3 167 -8 167 -7 b 53 46 117 7 82 22 b 25 72 42 54 33 63 b 7 165 1 100 0 132 b 107 269 17 221 54 253 b 165 278 125 276 146 276 z m 315 69 b 322 68 318 68 319 68 b 392 96 347 74 371 82 b 425 167 415 114 428 136 b 419 197 425 176 424 188 b 388 265 413 221 401 244 b 385 271 386 267 386 269 b 378 269 382 274 379 274 b 375 264 376 268 376 265 b 318 83 357 204 338 143 b 315 69 317 79 314 75 z m 124 163 b 135 122 124 149 125 133 b 181 83 147 106 163 93 b 193 89 189 79 190 81 b 226 207 204 128 215 168 b 219 218 228 214 226 217 b 182 226 207 221 194 225 b 138 208 164 229 149 224 b 124 163 128 196 124 179 z m 350 599 b 401 749 365 633 400 736 b 350 599 361 718 338 649 z "},"%":{"ha":1328,"x_min":0,"x_max":0,"o":"m 1140 1138 b 1093 1133 1124 1138 1108 1135 b 1014 1126 1067 1132 1040 1129 b 865 1117 964 1124 914 1119 b 753 1111 828 1114 790 1113 b 660 1106 722 1108 692 1107 b 654 1104 658 1104 656 1104 b 651 1096 649 1103 647 1100 b 658 1088 653 1093 656 1090 b 676 1067 664 1081 671 1074 b 692 922 710 1021 714 974 b 603 826 672 881 642 850 b 411 794 544 789 479 778 b 301 915 350 811 311 851 b 322 1029 294 956 304 993 b 446 1158 353 1083 393 1126 b 547 1185 476 1176 510 1185 b 674 1189 589 1185 631 1188 b 779 1196 708 1190 744 1193 b 896 1203 818 1197 857 1200 b 1000 1210 931 1206 965 1207 b 1108 1217 1036 1211 1072 1214 b 1196 1222 1138 1218 1167 1221 b 1263 1217 1218 1222 1240 1221 b 1276 1214 1267 1217 1271 1214 b 1304 1157 1300 1208 1314 1176 b 1267 1085 1293 1132 1281 1108 b 1103 863 1218 1007 1161 933 b 867 582 1026 767 947 675 b 642 315 792 494 715 406 b 361 -31 547 200 454 85 b 153 -287 292 -117 224 -203 b 126 -318 144 -297 135 -307 b 83 -342 115 -332 101 -339 b 32 -339 67 -344 49 -343 b 14 -329 25 -336 19 -333 b 8 -297 1 -321 0 -310 b 88 -178 35 -257 61 -217 b 272 75 147 -92 208 -7 b 601 497 381 217 489 358 b 829 769 675 589 751 679 b 976 943 879 828 928 886 b 1100 1086 1018 992 1060 1039 b 1136 1128 1113 1100 1124 1114 b 1140 1138 1138 1129 1140 1132 z m 465 929 b 474 879 465 906 468 890 b 492 872 479 869 482 868 b 558 954 525 890 549 917 b 561 983 561 963 561 972 b 524 1050 557 1011 543 1032 b 510 1047 517 1057 515 1057 b 475 976 496 1025 483 1001 b 465 929 469 958 465 940 z m 783 -354 b 694 -337 753 -354 722 -350 b 603 -206 636 -312 606 -268 b 622 -125 603 -178 610 -150 b 763 28 653 -60 701 -10 b 853 50 790 44 821 53 b 889 40 865 50 878 47 b 906 22 897 36 904 31 b 913 11 907 17 910 14 b 1013 -122 951 -29 983 -75 b 1018 -211 1031 -151 1031 -181 b 957 -292 1006 -243 983 -269 b 783 -354 910 -331 847 -354 z m 882 -176 b 881 -139 881 -165 881 -151 b 878 -117 881 -131 879 -124 b 853 -60 872 -97 863 -78 b 842 -57 849 -51 846 -51 b 775 -181 813 -94 788 -135 b 771 -242 769 -200 767 -221 b 786 -274 774 -254 778 -264 b 804 -278 792 -279 797 -281 b 826 -267 813 -275 819 -272 b 882 -176 860 -247 881 -219 z "},"&":{"ha":1210,"x_min":0,"x_max":0,"o":"m 949 414 b 961 404 951 408 957 407 b 1014 274 1004 371 1024 328 b 976 179 1008 239 994 208 b 849 40 943 125 899 79 b 479 -118 739 -44 615 -96 b 450 -143 456 -121 458 -115 b 394 -297 435 -196 415 -247 b 343 -332 383 -324 372 -332 b 314 -329 333 -333 324 -332 b 288 -293 294 -324 286 -312 b 306 -192 292 -258 296 -225 b 321 -140 311 -174 315 -157 b 311 -125 325 -126 325 -126 b 172 -93 264 -119 217 -111 b 67 -26 133 -78 97 -57 b 6 103 31 8 10 53 b 63 310 0 178 22 246 b 197 458 99 368 144 415 b 403 576 260 508 328 549 b 411 583 406 578 410 578 b 397 590 407 588 401 589 b 311 649 367 606 336 624 b 279 840 261 701 249 774 b 392 960 303 893 343 931 b 563 1021 444 992 501 1011 b 576 1035 575 1024 575 1024 b 590 1099 579 1057 583 1078 b 611 1161 597 1119 604 1140 b 635 1188 615 1174 622 1183 b 711 1186 660 1197 686 1197 b 729 1149 728 1178 733 1168 b 696 1047 721 1114 708 1081 b 710 1024 688 1026 688 1028 b 833 983 753 1018 794 1006 b 914 883 872 960 901 928 b 900 772 924 844 919 807 b 843 706 886 746 865 725 b 742 640 814 679 779 657 b 722 635 736 639 729 636 b 707 635 717 633 711 633 b 694 663 690 639 685 649 b 739 743 713 688 726 715 b 756 790 746 758 753 774 b 732 886 764 826 753 857 b 636 924 708 918 675 931 b 510 854 586 914 543 892 b 474 746 482 824 469 786 b 517 676 478 715 492 692 b 611 629 546 657 578 642 b 656 613 625 624 640 618 b 686 597 667 608 676 604 b 685 544 704 582 704 560 b 660 531 678 539 669 535 b 615 522 646 526 631 522 b 582 517 603 522 593 519 b 372 406 503 496 435 457 b 242 244 318 361 274 308 b 213 111 222 203 210 158 b 272 0 215 65 233 28 b 343 -25 293 -15 317 -22 b 493 -10 394 -33 444 -24 b 740 119 585 14 668 57 b 825 226 775 149 806 183 b 835 311 838 253 842 282 b 822 339 833 321 828 331 b 804 346 818 346 813 349 b 736 321 781 342 757 336 b 624 229 699 292 660 261 b 571 176 606 213 589 194 b 464 154 540 144 504 142 b 426 208 440 163 426 183 b 454 290 426 239 438 265 b 558 381 482 328 518 357 b 854 510 653 433 750 479 b 1063 544 922 531 992 546 b 1151 528 1093 543 1122 539 b 1179 510 1161 524 1171 518 b 1175 458 1196 493 1194 472 b 1132 446 1163 450 1147 446 b 1085 447 1117 444 1101 444 b 1044 444 1071 450 1058 447 b 956 419 1014 438 985 429 b 949 414 953 418 950 418 z "},"'":{"ha":286,"x_min":0,"x_max":0,"o":"m 186 1243 b 243 1232 208 1243 226 1240 b 264 1182 265 1221 272 1204 b 219 1101 253 1153 238 1126 b 146 950 189 1054 164 1004 b 136 911 142 938 139 925 b 140 897 135 906 136 903 b 135 869 149 886 147 878 b 92 856 122 860 107 857 b 46 863 75 854 60 857 b 0 926 15 874 0 893 b 11 996 0 950 4 972 b 51 1121 24 1038 38 1079 b 108 1213 63 1156 83 1186 b 186 1243 131 1235 158 1243 z "},"(":{"ha":835,"x_min":0,"x_max":0,"o":"m 0 164 b 83 581 1 322 31 454 b 247 854 124 679 179 771 b 538 1082 328 951 422 1029 b 710 1128 593 1107 650 1124 b 781 1126 733 1131 757 1131 b 808 1117 790 1125 800 1124 b 808 1090 821 1110 821 1099 b 783 1081 801 1085 792 1082 b 692 1056 753 1074 722 1067 b 515 956 626 1033 568 999 b 304 701 428 885 360 799 b 186 399 249 607 211 506 b 163 210 174 336 165 274 b 207 -81 160 110 174 14 b 292 -231 225 -136 253 -186 b 335 -271 304 -246 319 -258 b 360 -292 343 -278 351 -285 b 360 -328 374 -303 374 -317 b 324 -339 349 -335 336 -337 b 239 -315 292 -343 264 -332 b 83 -153 174 -274 124 -219 b 15 26 51 -97 28 -37 b 0 164 6 79 0 132 z "},")":{"ha":835,"x_min":0,"x_max":0,"o":"m 821 626 b 738 210 819 467 790 336 b 574 -64 696 110 642 18 b 283 -292 493 -161 399 -240 b 111 -339 228 -317 171 -335 b 40 -337 88 -340 64 -342 b 13 -328 31 -335 21 -333 b 13 -300 0 -319 0 -308 b 38 -290 19 -296 29 -293 b 128 -267 68 -283 99 -276 b 306 -165 194 -244 253 -210 b 517 89 393 -94 461 -8 b 633 390 571 183 610 285 b 657 579 647 453 656 515 b 614 871 660 679 647 776 b 529 1021 594 925 568 976 b 486 1061 517 1035 501 1049 b 461 1081 478 1068 469 1074 b 461 1117 447 1093 447 1106 b 497 1129 472 1125 485 1128 b 582 1106 529 1133 557 1122 b 736 943 647 1064 697 1008 b 806 763 769 888 793 826 b 821 626 815 711 821 658 z "},"*":{"ha":661,"x_min":0,"x_max":0,"o":"m 208 694 b 192 688 201 694 197 690 b 108 642 164 672 136 657 b 32 635 83 629 58 628 b 13 644 25 638 18 640 b 8 678 1 654 0 665 b 36 706 17 689 26 697 b 129 769 67 728 99 749 b 150 782 136 774 143 778 b 135 785 144 785 140 783 b 63 800 110 786 86 790 b 35 819 53 804 43 811 b 43 863 21 836 24 853 b 100 872 61 872 81 874 b 172 865 124 869 147 867 b 158 882 168 874 163 878 b 111 940 139 899 124 918 b 101 963 107 947 104 956 b 118 1011 96 983 101 999 b 167 1029 133 1021 150 1026 b 240 1024 192 1032 217 1031 b 282 996 257 1018 271 1008 b 290 988 285 993 286 989 b 296 997 294 990 294 994 b 304 1015 299 1003 301 1008 b 364 1061 315 1042 336 1056 b 429 1058 386 1065 407 1064 b 446 1051 435 1057 440 1054 b 471 1010 464 1043 472 1029 b 468 989 471 1003 469 996 b 481 992 474 986 476 990 b 525 1010 494 999 508 1006 b 601 1011 550 1017 576 1018 b 633 996 614 1008 625 1004 b 639 958 644 985 647 972 b 613 931 632 947 624 938 b 532 879 588 910 560 894 b 492 858 518 872 506 865 b 483 853 489 857 485 857 b 538 844 501 850 519 849 b 578 829 551 840 565 838 b 592 810 585 824 592 819 b 574 792 590 799 582 794 b 521 782 557 785 539 782 b 433 781 492 781 463 782 b 421 779 429 781 425 782 b 425 769 419 775 424 772 b 510 669 454 736 482 703 b 528 644 517 663 522 653 b 511 597 542 624 533 606 b 451 599 490 590 471 592 b 415 619 438 604 426 610 b 375 654 401 631 389 643 b 360 668 371 658 365 664 b 349 665 354 672 351 672 b 328 611 342 647 335 629 b 315 586 324 603 319 594 b 269 551 307 567 290 556 b 215 556 251 549 233 549 b 190 593 196 563 189 572 b 206 676 190 622 199 649 b 208 694 206 682 208 688 z "},"+":{"ha":567,"x_min":0,"x_max":0,"o":"m 99 390 b 189 388 132 392 160 386 b 200 388 193 388 197 388 b 215 399 208 386 214 390 b 231 446 221 414 225 431 b 251 500 236 465 242 483 b 289 531 260 515 272 525 b 357 529 313 538 335 536 b 386 481 378 522 392 507 b 374 443 383 468 378 456 b 358 397 368 428 363 413 b 367 385 356 388 356 386 b 413 385 382 385 397 386 b 493 376 439 383 467 383 b 532 361 507 372 519 368 b 551 333 542 354 553 347 b 528 313 550 321 538 317 b 481 304 513 307 497 306 b 342 297 435 301 389 300 b 324 282 328 297 328 297 b 274 113 307 226 290 169 b 194 61 260 67 229 58 b 147 113 164 64 146 83 b 164 213 149 147 156 179 b 179 275 168 233 175 254 b 172 283 182 283 181 285 b 75 292 140 282 107 282 b 19 324 54 299 35 307 b 29 381 0 344 4 367 b 76 390 44 388 60 389 b 99 390 85 392 94 390 z "},",":{"ha":269,"x_min":0,"x_max":0,"o":"m 90 -214 b 42 -229 75 -222 60 -226 b 14 -225 32 -231 24 -229 b 4 -200 3 -219 0 -211 b 22 -178 7 -190 14 -183 b 43 -168 29 -174 36 -169 b 65 -154 53 -165 58 -160 b 103 -86 83 -135 97 -112 b 113 -24 106 -65 110 -44 b 111 4 114 -15 113 -6 b 125 43 108 19 114 32 b 194 71 144 63 168 72 b 251 25 222 71 243 51 b 250 -35 256 4 256 -15 b 224 -89 244 -54 236 -74 b 131 -187 196 -125 167 -158 b 90 -214 118 -197 106 -207 z "},"-":{"ha":551,"x_min":0,"x_max":0,"o":"m 160 283 b 99 283 143 285 121 279 b 33 304 76 286 53 292 b 11 325 25 310 18 317 b 21 368 0 340 4 358 b 74 382 38 378 56 381 b 168 383 106 385 136 385 b 318 383 218 381 268 383 b 467 374 367 383 417 385 b 508 357 481 369 496 365 b 528 339 517 353 524 347 b 521 306 538 326 535 314 b 485 294 510 299 497 296 b 351 289 440 292 396 290 b 201 283 301 288 251 286 b 160 283 189 282 178 283 z "},".":{"ha":175,"x_min":0,"x_max":0,"o":"m 21 3 b 53 47 28 19 39 35 b 79 64 60 54 69 60 b 156 24 114 76 147 60 b 157 -31 161 6 161 -12 b 104 -112 149 -64 132 -92 b 75 -124 96 -118 85 -122 b 51 -126 67 -125 58 -126 b 17 -111 36 -128 25 -122 b 7 -86 13 -103 8 -94 b 21 3 0 -56 4 -25 z "},"/":{"ha":1261,"x_min":0,"x_max":0,"o":"m 65 -306 b 24 -297 51 -306 38 -303 b 10 -256 4 -287 0 -274 b 63 -171 25 -225 43 -197 b 360 228 160 -36 261 96 b 572 513 431 324 501 418 b 847 881 664 636 756 758 b 1049 1136 914 967 981 1051 b 1106 1199 1067 1157 1085 1178 b 1213 1224 1136 1229 1172 1235 b 1231 1214 1219 1221 1225 1218 b 1242 1181 1243 1206 1247 1196 b 1225 1149 1238 1169 1231 1158 b 1144 1033 1200 1108 1172 1071 b 933 749 1076 938 1006 842 b 565 269 810 589 688 429 b 325 -42 485 167 404 63 b 186 -218 279 -101 232 -160 b 125 -283 167 -242 147 -262 b 65 -306 108 -299 88 -306 z "},":":{"ha":354,"x_min":0,"x_max":0,"o":"m 21 3 b 53 47 28 19 39 35 b 79 64 60 54 69 60 b 156 24 114 76 147 60 b 157 -31 161 6 161 -12 b 104 -112 149 -64 132 -92 b 75 -124 96 -118 85 -122 b 51 -126 67 -125 58 -126 b 17 -111 36 -128 25 -122 b 7 -86 13 -103 8 -94 b 21 3 0 -56 4 -25 z m 200 668 b 232 713 207 685 218 700 b 258 729 239 719 249 725 b 335 689 293 742 326 725 b 336 635 340 671 340 653 b 283 553 328 601 311 574 b 254 542 275 547 264 543 b 231 539 246 540 238 539 b 196 554 215 538 204 543 b 186 579 192 563 188 571 b 200 668 179 610 183 640 z "},";":{"ha":450,"x_min":0,"x_max":0,"o":"m 90 -214 b 42 -229 75 -222 60 -226 b 14 -225 32 -231 24 -229 b 4 -200 3 -219 0 -211 b 22 -178 7 -190 14 -183 b 43 -168 29 -174 36 -169 b 65 -154 53 -165 58 -160 b 103 -86 83 -135 97 -112 b 113 -24 106 -65 110 -44 b 111 4 114 -15 113 -6 b 125 43 108 19 114 32 b 194 71 144 63 168 72 b 251 25 222 71 243 51 b 250 -35 256 4 256 -15 b 224 -89 244 -54 236 -74 b 131 -187 196 -125 167 -158 b 90 -214 118 -197 106 -207 z m 296 668 b 328 713 303 685 314 700 b 354 729 335 719 344 725 b 431 689 389 742 422 725 b 432 635 436 671 436 653 b 379 553 424 601 407 574 b 350 542 371 547 360 543 b 326 539 342 540 333 539 b 292 554 311 538 300 543 b 282 579 288 563 283 571 b 296 668 275 610 279 640 z "},"<":{"ha":575,"x_min":0,"x_max":0,"o":"m 3 301 b 32 392 0 338 13 367 b 72 432 43 407 57 419 b 169 499 103 456 136 478 b 344 604 228 535 286 569 b 411 640 365 618 389 631 b 515 654 444 657 479 663 b 546 640 526 651 538 649 b 550 601 560 629 561 615 b 531 583 544 594 538 589 b 375 472 481 543 428 508 b 260 393 336 446 297 419 b 236 375 251 388 243 381 b 214 308 215 357 208 335 b 289 160 226 251 253 203 b 432 10 333 107 381 57 b 479 -26 447 -3 463 -15 b 500 -46 486 -32 494 -39 b 496 -81 510 -58 508 -71 b 451 -97 483 -92 467 -96 b 372 -87 424 -100 399 -97 b 279 -32 339 -74 308 -54 b 136 104 226 8 179 54 b 46 207 107 139 76 174 b 3 301 21 235 6 267 z "},"=":{"ha":592,"x_min":0,"x_max":0,"o":"m 161 289 b 454 292 260 293 357 293 b 528 282 479 292 504 289 b 564 263 540 278 553 272 b 560 225 578 249 576 235 b 507 211 543 217 525 213 b 313 201 442 207 376 204 b 199 196 274 201 236 199 b 124 190 174 194 149 189 b 38 213 93 193 64 197 b 11 235 28 218 18 225 b 19 275 0 250 3 267 b 46 283 28 281 36 282 b 113 289 68 288 90 290 b 161 289 129 289 146 289 z m 215 464 b 306 467 240 464 274 465 b 471 464 361 468 417 469 b 536 446 494 463 517 457 b 561 425 546 440 554 433 b 556 393 568 413 567 401 b 529 383 549 388 539 385 b 454 375 506 378 481 376 b 299 368 403 372 350 369 b 181 361 258 367 219 363 b 63 392 138 360 97 367 b 47 408 57 397 51 401 b 61 453 36 426 42 444 b 101 461 75 458 89 460 b 215 464 138 465 172 465 z "},">":{"ha":575,"x_min":0,"x_max":0,"o":"m 558 258 b 529 168 561 222 549 193 b 489 128 518 153 504 140 b 392 61 458 104 426 82 b 218 -44 335 25 276 -10 b 150 -81 196 -58 174 -71 b 46 -94 117 -97 82 -103 b 15 -81 35 -92 25 -89 b 11 -42 1 -69 0 -56 b 31 -24 17 -35 24 -29 b 186 88 81 17 133 51 b 301 167 225 114 264 140 b 325 185 310 172 318 179 b 347 251 346 203 353 225 b 272 400 335 308 308 357 b 129 550 228 454 181 504 b 83 586 114 563 99 575 b 61 606 75 592 67 599 b 65 640 51 619 53 631 b 110 657 78 651 94 656 b 189 647 138 660 164 657 b 283 592 222 633 253 614 b 425 456 335 551 382 506 b 515 353 456 421 485 386 b 558 258 540 325 556 293 z "},"?":{"ha":774,"x_min":0,"x_max":0,"o":"m 135 968 b 201 1122 136 1021 157 1076 b 417 1229 260 1185 332 1219 b 563 1218 465 1233 514 1231 b 733 1065 644 1196 700 1143 b 757 918 753 1018 760 969 b 694 693 753 839 729 764 b 550 469 656 613 604 540 b 361 233 489 389 422 314 b 300 157 340 208 321 182 b 274 111 288 144 281 128 b 253 40 264 89 257 65 b 261 19 250 32 251 24 b 265 -25 281 10 281 -11 b 213 -44 250 -37 232 -43 b 153 -43 193 -47 174 -47 b 74 65 93 -29 69 11 b 83 124 74 85 78 104 b 103 194 90 147 96 171 b 140 272 110 224 125 249 b 219 375 164 308 192 342 b 399 597 282 447 343 519 b 518 835 450 671 492 749 b 538 974 532 881 540 926 b 510 1081 536 1011 529 1047 b 468 1126 500 1100 488 1117 b 440 1131 460 1132 451 1133 b 372 1092 414 1124 392 1110 b 324 957 335 1056 318 1010 b 358 861 326 922 339 890 b 435 767 381 826 404 793 b 439 761 436 765 438 764 b 433 728 450 749 449 736 b 382 714 418 718 400 715 b 288 735 349 714 317 719 b 185 815 249 756 214 782 b 135 968 150 857 135 904 z m 128 -342 b 44 -319 99 -342 69 -336 b 18 -296 33 -314 25 -306 b 6 -225 0 -275 0 -250 b 54 -162 13 -197 29 -176 b 181 -149 94 -140 136 -136 b 200 -154 188 -150 194 -153 b 246 -192 221 -161 235 -174 b 263 -217 251 -200 257 -208 b 265 -249 268 -226 269 -237 b 251 -279 263 -260 258 -269 b 128 -342 219 -319 181 -343 z "},"@":{"ha":1149,"x_min":0,"x_max":0,"o":"m 589 379 b 568 350 582 368 575 360 b 511 275 550 324 532 299 b 476 243 501 263 490 251 b 385 233 447 226 417 224 b 342 278 363 240 349 257 b 332 325 336 293 332 310 b 411 590 324 424 351 513 b 533 658 442 631 485 651 b 611 660 560 663 586 664 b 664 642 631 656 647 651 b 685 642 672 636 678 638 b 760 649 708 656 733 657 b 763 647 761 647 763 647 b 779 613 778 639 783 629 b 760 546 775 590 767 568 b 731 421 749 504 738 463 b 732 313 725 385 725 349 b 750 269 735 297 742 283 b 771 249 756 261 763 254 b 797 244 779 244 788 243 b 878 288 828 253 854 268 b 957 375 910 311 935 342 b 1028 526 989 421 1013 472 b 1035 717 1046 589 1046 653 b 1003 819 1029 753 1019 788 b 926 911 985 856 958 886 b 799 983 889 943 847 968 b 624 981 740 1001 682 999 b 457 883 561 960 507 926 b 293 674 389 825 336 753 b 176 369 239 578 201 475 b 150 188 161 310 153 250 b 174 -25 147 115 153 44 b 263 -172 192 -82 219 -132 b 435 -243 311 -218 368 -242 b 619 -182 503 -244 564 -221 b 713 -99 654 -158 685 -129 b 839 49 757 -51 799 -3 b 892 125 857 74 875 99 b 914 168 900 139 908 153 b 922 183 917 174 919 179 b 951 194 929 194 939 199 b 969 168 964 190 969 182 b 964 146 968 161 967 153 b 929 83 956 124 943 103 b 828 -47 900 38 864 -6 b 717 -165 793 -87 756 -128 b 558 -264 671 -208 618 -242 b 456 -286 525 -276 492 -283 b 243 -242 381 -292 310 -276 b 99 -112 183 -211 136 -167 b 8 119 49 -43 19 35 b 6 276 0 172 1 225 b 50 486 10 349 26 418 b 190 754 83 582 131 671 b 289 871 219 796 253 835 b 532 1025 360 939 439 992 b 747 1054 601 1049 674 1060 b 954 990 821 1047 890 1028 b 1099 824 1021 950 1068 894 b 1132 694 1117 783 1129 740 b 1128 603 1135 664 1132 633 b 1088 454 1119 553 1107 501 b 994 304 1064 399 1033 350 b 900 224 967 272 936 244 b 749 193 853 196 803 185 b 607 310 678 204 633 246 b 592 372 599 331 594 350 b 589 379 592 374 593 376 z m 469 357 b 476 364 474 357 475 361 b 525 424 492 383 508 403 b 606 526 553 457 579 492 b 610 539 608 529 611 533 b 589 583 604 554 600 569 b 578 585 586 588 583 588 b 557 567 569 581 564 574 b 518 501 540 547 528 525 b 472 369 500 458 486 414 b 469 357 471 367 469 363 z "},"A":{"ha":1210,"x_min":0,"x_max":0,"o":"m 367 283 b 328 276 353 283 340 279 b 167 224 272 263 218 247 b 124 197 151 217 136 210 b 106 189 118 193 113 189 b 21 217 74 186 44 193 b 14 278 3 235 0 257 b 36 301 21 288 28 294 b 146 353 68 326 107 342 b 272 374 188 364 229 369 b 433 385 325 378 379 381 b 456 397 444 385 450 390 b 579 567 496 454 538 511 b 772 829 644 654 708 742 b 992 1136 847 931 924 1031 b 1108 1190 1019 1179 1060 1194 b 1121 1189 1113 1190 1117 1189 b 1157 1136 1149 1181 1158 1165 b 1133 1007 1153 1092 1143 1050 b 1071 707 1111 907 1089 807 b 1036 464 1058 626 1044 544 b 1025 314 1032 414 1028 364 b 1021 211 1022 279 1021 246 b 1057 -71 1018 115 1028 21 b 1132 -217 1074 -124 1096 -174 b 1186 -267 1147 -236 1165 -254 b 1257 -283 1208 -281 1232 -286 b 1335 -272 1283 -279 1310 -276 b 1376 -262 1349 -269 1363 -264 b 1410 -265 1388 -261 1400 -262 b 1418 -306 1431 -274 1433 -292 b 1389 -324 1410 -314 1400 -319 b 1267 -357 1350 -340 1308 -350 b 1174 -365 1236 -361 1206 -367 b 989 -292 1103 -364 1042 -339 b 876 -126 938 -246 903 -189 b 828 61 851 -67 838 -3 b 821 251 819 125 819 188 b 822 275 821 260 822 267 b 811 290 822 286 822 288 b 768 294 797 292 782 293 b 644 299 726 299 686 299 b 497 296 596 299 546 299 b 475 282 486 294 481 290 b 232 -47 396 171 314 63 b 136 -174 200 -89 168 -132 b 74 -206 119 -194 99 -206 b 50 -200 65 -206 57 -204 b 39 -174 38 -194 35 -186 b 47 -158 42 -168 44 -164 b 146 -15 78 -110 113 -62 b 358 267 215 79 288 172 b 367 283 361 271 365 275 z m 933 907 b 919 889 928 900 924 894 b 671 549 835 776 753 663 b 563 400 635 499 599 450 b 558 390 560 397 556 394 b 568 388 560 386 564 388 b 624 385 586 386 606 386 b 814 364 688 383 751 378 b 831 374 826 361 828 361 b 832 382 831 376 831 379 b 842 463 835 410 839 436 b 882 683 853 538 868 610 b 932 892 896 753 911 822 b 933 907 933 896 936 900 z "},"B":{"ha":1317,"x_min":0,"x_max":0,"o":"m 394 744 b 485 844 426 778 456 811 b 572 933 514 875 543 904 b 728 1063 621 979 674 1022 b 882 1151 775 1097 825 1129 b 997 1172 918 1167 957 1175 b 1061 1157 1019 1171 1040 1167 b 1126 1056 1106 1138 1125 1101 b 1100 919 1129 1008 1117 963 b 981 719 1074 846 1032 781 b 865 610 946 679 908 643 b 858 600 863 607 860 606 b 874 599 863 597 868 599 b 1021 569 924 594 974 589 b 1104 525 1050 558 1078 544 b 1183 385 1150 489 1175 442 b 1176 251 1189 339 1183 294 b 1010 -89 1156 121 1096 10 b 799 -251 951 -157 879 -211 b 510 -336 708 -297 611 -325 b 201 -303 404 -347 301 -336 b 88 -244 161 -289 122 -271 b 38 -190 68 -229 51 -211 b 51 -42 4 -137 8 -86 b 167 39 83 -6 122 21 b 364 92 231 65 296 81 b 525 104 417 101 471 106 b 653 81 569 101 613 96 b 724 32 681 69 706 56 b 732 -19 736 15 740 -1 b 686 -51 722 -39 707 -49 b 632 -37 667 -53 649 -47 b 601 -15 621 -31 610 -24 b 524 14 579 7 553 13 b 413 4 486 15 450 10 b 326 -17 383 -1 354 -8 b 235 -64 293 -26 263 -42 b 210 -89 225 -71 217 -79 b 211 -156 196 -111 196 -135 b 263 -196 224 -174 243 -186 b 379 -225 300 -212 339 -219 b 525 -208 429 -232 478 -224 b 653 -156 569 -193 613 -178 b 788 -46 704 -126 749 -89 b 900 121 835 4 872 58 b 954 297 926 178 942 236 b 964 357 957 317 961 336 b 944 460 969 393 961 426 b 882 503 932 483 911 499 b 767 501 843 508 804 506 b 657 482 729 497 693 490 b 603 467 639 478 621 474 b 532 447 579 457 556 450 b 467 454 510 444 489 447 b 440 469 457 457 449 463 b 439 513 426 481 426 499 b 464 528 446 519 456 522 b 678 656 539 564 613 603 b 801 790 726 694 765 740 b 904 993 846 853 881 919 b 917 1043 910 1008 914 1025 b 918 1057 918 1047 918 1053 b 908 1064 918 1065 917 1067 b 896 1057 904 1063 900 1060 b 735 950 838 1028 785 992 b 596 819 686 910 640 865 b 388 565 521 740 451 654 b 176 242 313 460 243 353 b 163 222 172 235 167 229 b 104 183 150 199 131 188 b 40 188 83 181 61 181 b 1 244 11 197 0 214 b 4 274 1 254 3 264 b 72 547 21 367 42 457 b 140 717 90 606 115 661 b 256 951 176 796 215 874 b 357 1133 288 1013 321 1074 b 361 1142 358 1136 360 1139 b 428 1186 376 1168 399 1182 b 500 1178 453 1189 476 1188 b 539 1114 528 1167 542 1146 b 521 1042 536 1089 528 1065 b 450 863 501 981 476 921 b 397 751 432 825 414 789 b 394 744 396 750 394 747 z "},"C":{"ha":1319,"x_min":0,"x_max":0,"o":"m 253 110 b 282 -57 251 50 260 -4 b 478 -215 319 -143 385 -197 b 628 -206 528 -225 578 -219 b 883 -57 726 -179 811 -129 b 988 94 928 -14 961 39 b 1007 168 1000 118 1004 143 b 1000 190 1008 176 1006 183 b 1006 228 989 203 990 217 b 1050 244 1018 239 1033 243 b 1111 239 1071 247 1092 246 b 1158 183 1138 229 1153 210 b 1158 121 1164 163 1161 142 b 1149 71 1156 104 1153 88 b 1111 -11 1143 40 1129 14 b 982 -142 1075 -61 1031 -103 b 685 -293 893 -212 794 -264 b 481 -317 618 -311 550 -321 b 214 -240 385 -312 296 -290 b 29 -4 122 -185 61 -107 b 4 226 6 71 0 149 b 54 458 8 307 28 383 b 175 696 85 543 125 622 b 283 832 207 744 243 790 b 560 1053 365 919 456 993 b 804 1138 636 1096 718 1124 b 917 1146 842 1143 879 1147 b 1101 1099 982 1143 1044 1131 b 1199 981 1150 1072 1183 1035 b 1190 857 1210 939 1206 897 b 1090 713 1169 801 1135 753 b 996 647 1061 688 1031 665 b 892 626 963 631 928 624 b 861 635 881 628 871 629 b 843 656 851 639 843 644 b 863 675 843 667 853 672 b 924 710 885 683 906 696 b 1035 897 985 758 1025 818 b 1017 989 1040 929 1035 961 b 925 1042 996 1024 964 1039 b 839 1026 894 1043 867 1036 b 624 906 758 1001 688 960 b 411 636 536 829 468 738 b 321 438 375 572 346 506 b 260 210 294 363 274 288 b 253 110 254 176 251 142 z "},"D":{"ha":1319,"x_min":0,"x_max":0,"o":"m 396 669 b 415 703 403 681 410 692 b 561 926 460 781 508 856 b 765 1132 621 1004 685 1076 b 963 1199 825 1174 890 1199 b 1114 1150 1018 1199 1069 1185 b 1171 1079 1139 1131 1156 1106 b 1229 911 1199 1026 1217 969 b 1249 694 1246 840 1249 767 b 1206 403 1249 594 1232 497 b 1079 101 1176 297 1135 196 b 956 -62 1043 42 1003 -12 b 625 -276 863 -161 754 -235 b 468 -307 574 -292 522 -303 b 206 -283 379 -314 292 -307 b 101 -237 169 -274 135 -258 b 63 -204 88 -229 74 -217 b 51 -81 32 -168 28 -124 b 144 8 72 -40 106 -12 b 275 50 186 28 231 39 b 479 71 343 65 411 71 b 657 46 540 71 600 67 b 694 26 671 40 683 35 b 710 15 700 24 704 19 b 704 -37 724 -3 722 -24 b 653 -57 690 -50 672 -54 b 579 -50 628 -60 603 -57 b 417 -42 526 -35 471 -36 b 321 -56 385 -44 351 -49 b 244 -90 293 -62 267 -72 b 226 -114 236 -97 231 -104 b 240 -171 215 -136 219 -157 b 315 -203 263 -187 289 -197 b 543 -181 394 -221 469 -211 b 703 -71 603 -154 656 -115 b 869 150 771 -7 824 69 b 1018 600 947 290 994 442 b 1031 753 1025 651 1028 701 b 1028 840 1031 782 1031 811 b 976 1050 1021 913 1004 982 b 953 1089 971 1064 963 1076 b 929 1094 943 1100 942 1100 b 872 1060 908 1086 890 1074 b 710 904 810 1017 758 963 b 492 585 628 804 558 696 b 378 396 453 522 417 458 b 292 264 350 351 322 307 b 233 176 272 236 256 206 b 218 157 229 171 224 164 b 92 121 185 117 142 108 b 49 174 65 128 51 146 b 51 251 44 200 47 226 b 90 421 60 310 74 365 b 174 669 115 504 143 588 b 288 938 208 761 246 850 b 346 1068 307 981 326 1025 b 375 1119 354 1086 364 1103 b 479 1171 399 1160 435 1172 b 522 1161 493 1171 508 1168 b 547 1119 539 1153 549 1140 b 539 1078 546 1106 543 1092 b 494 943 528 1032 511 988 b 394 681 463 854 429 767 b 396 669 394 676 392 674 z "},"E":{"ha":1353,"x_min":0,"x_max":0,"o":"m 399 531 b 386 539 396 536 390 536 b 308 593 357 553 332 571 b 257 714 275 626 257 665 b 271 781 256 738 263 760 b 357 914 290 832 321 875 b 553 1053 413 974 479 1018 b 894 1133 661 1103 776 1128 b 1093 1110 963 1136 1028 1129 b 1215 1044 1138 1097 1181 1076 b 1269 903 1256 1006 1275 958 b 1240 819 1265 874 1256 846 b 1063 640 1197 743 1139 683 b 944 594 1025 619 986 601 b 868 596 918 589 893 588 b 840 608 858 599 849 601 b 839 650 824 621 824 638 b 851 658 843 654 847 656 b 981 749 896 686 942 714 b 1056 850 1011 778 1038 811 b 1072 911 1064 869 1071 890 b 1031 1014 1076 953 1067 989 b 963 1029 1010 1026 986 1029 b 614 890 829 1028 713 979 b 518 763 575 854 542 813 b 501 713 511 747 504 731 b 539 619 494 678 504 643 b 622 583 564 603 593 593 b 696 565 646 576 671 571 b 738 550 710 563 724 557 b 756 536 744 547 750 542 b 753 486 772 519 771 500 b 708 469 740 476 724 472 b 675 467 697 467 686 467 b 543 439 629 465 586 453 b 389 339 483 419 432 386 b 263 163 340 286 296 228 b 229 49 244 126 233 89 b 281 -87 226 -4 244 -50 b 443 -175 325 -133 381 -161 b 608 -179 497 -187 553 -186 b 835 -106 689 -168 765 -146 b 969 4 886 -76 933 -43 b 1006 58 983 21 996 39 b 1019 135 1018 82 1022 107 b 1011 150 1018 140 1015 146 b 1019 182 1003 163 1006 174 b 1040 190 1025 186 1033 189 b 1111 182 1065 194 1088 192 b 1158 133 1133 172 1149 156 b 1176 36 1172 103 1176 69 b 1161 -14 1176 18 1171 1 b 1110 -76 1147 -37 1129 -57 b 918 -208 1056 -133 989 -175 b 635 -290 828 -251 733 -281 b 426 -285 565 -297 496 -294 b 269 -249 374 -278 321 -267 b 72 -126 196 -221 129 -182 b -21 51 21 -78 -12 -19 b 1 201 -28 104 -17 153 b 110 363 26 263 65 315 b 268 475 156 410 210 446 b 388 524 307 493 347 510 b 399 531 392 525 397 525 z "},"F":{"ha":1375,"x_min":0,"x_max":0,"o":"m 890 351 b 915 354 899 351 907 353 b 1022 368 951 361 986 365 b 1104 365 1050 369 1076 368 b 1125 379 1121 363 1121 363 b 1158 451 1131 406 1143 429 b 1254 492 1181 488 1215 496 b 1286 483 1265 492 1276 489 b 1307 436 1308 474 1314 460 b 1278 369 1300 413 1290 390 b 1236 226 1254 325 1240 276 b 1235 203 1235 219 1235 211 b 1250 175 1235 192 1239 182 b 1251 146 1263 168 1263 156 b 1215 131 1242 136 1229 133 b 1144 143 1190 128 1167 132 b 1104 194 1124 154 1111 172 b 1101 263 1099 217 1100 240 b 1101 268 1101 264 1101 267 b 1090 279 1101 278 1100 281 b 1035 275 1072 279 1053 278 b 865 236 978 265 922 251 b 843 213 853 233 847 226 b 719 -100 808 106 767 1 b 604 -278 689 -165 651 -225 b 481 -382 568 -318 528 -356 b 229 -407 401 -428 317 -437 b 125 -326 186 -392 150 -365 b 97 -199 100 -286 93 -244 b 168 -24 104 -133 131 -76 b 374 163 224 53 293 113 b 578 258 438 201 507 232 b 613 271 589 263 601 268 b 631 290 622 274 628 281 b 660 400 640 326 650 364 b 786 775 696 528 735 653 b 918 997 821 854 865 928 b 974 1058 935 1019 954 1039 b 981 1069 975 1061 979 1064 b 944 1067 968 1068 956 1068 b 888 1061 926 1064 907 1063 b 536 997 768 1049 651 1031 b 331 917 465 976 396 951 b 197 811 279 890 233 857 b 149 703 172 779 154 744 b 183 576 142 656 153 613 b 313 479 219 535 261 500 b 336 468 321 476 329 472 b 351 457 342 465 347 463 b 347 428 360 446 358 435 b 314 418 336 421 326 418 b 222 429 283 414 253 419 b 78 504 169 444 121 468 b 0 601 46 531 18 564 b -12 733 -21 644 -22 688 b 57 867 0 783 24 828 b 169 965 89 906 128 938 b 368 1058 232 1006 299 1033 b 597 1121 443 1085 519 1106 b 721 1139 638 1128 679 1133 b 1167 1175 868 1158 1018 1165 b 1219 1183 1185 1176 1201 1182 b 1385 1192 1275 1190 1329 1197 b 1431 1182 1400 1190 1415 1188 b 1467 1157 1444 1176 1457 1168 b 1464 1117 1479 1143 1478 1129 b 1443 1106 1458 1111 1451 1108 b 1397 1096 1428 1101 1413 1099 b 1307 1093 1367 1093 1338 1093 b 1185 1040 1258 1092 1219 1071 b 1097 929 1149 1008 1122 969 b 1021 767 1065 878 1043 822 b 892 367 968 636 931 501 b 890 351 890 361 888 357 z m 581 136 b 568 132 576 138 572 135 b 533 114 557 126 544 119 b 313 -68 449 67 372 8 b 250 -224 276 -114 253 -165 b 272 -312 247 -256 253 -286 b 300 -319 281 -325 285 -326 b 314 -312 304 -318 310 -315 b 413 -226 351 -289 385 -261 b 488 -106 442 -189 465 -147 b 581 129 526 -31 553 50 b 581 136 582 132 583 133 z "},"G":{"ha":1243,"x_min":0,"x_max":0,"o":"m 813 54 b 767 14 796 40 781 26 b 542 -142 697 -46 625 -101 b 382 -193 492 -167 439 -186 b 175 -165 311 -201 242 -194 b 39 -33 114 -137 68 -93 b 3 118 15 14 6 65 b 51 382 0 210 18 297 b 296 799 111 533 192 672 b 551 1032 369 889 454 968 b 824 1142 635 1088 725 1125 b 1056 1126 901 1156 979 1151 b 1175 1044 1103 1110 1142 1082 b 1208 867 1221 992 1229 932 b 1157 772 1197 832 1178 801 b 1017 640 1119 718 1071 675 b 913 601 986 619 951 606 b 853 611 892 599 871 601 b 839 619 847 613 843 615 b 838 646 832 628 832 638 b 856 660 842 651 849 656 b 956 738 896 676 929 703 b 1028 851 985 772 1011 810 b 1010 1006 1050 907 1046 958 b 904 1051 983 1039 949 1056 b 831 1033 879 1049 854 1042 b 646 915 761 1006 700 965 b 415 631 556 831 478 736 b 292 368 367 547 326 458 b 240 181 269 307 250 244 b 233 67 235 143 231 104 b 282 -68 236 17 249 -29 b 297 -83 288 -74 292 -78 b 353 -96 314 -96 332 -101 b 454 -54 389 -87 422 -72 b 608 53 508 -24 560 13 b 772 200 664 100 719 147 b 861 300 804 232 832 267 b 874 314 865 304 869 310 b 1029 360 915 364 969 371 b 1075 338 1046 356 1063 349 b 1093 292 1089 325 1094 310 b 1071 172 1089 251 1082 211 b 933 -176 1039 51 993 -65 b 763 -411 886 -261 832 -342 b 493 -578 685 -486 596 -544 b 299 -604 429 -599 365 -608 b 149 -568 247 -601 196 -592 b 108 -539 133 -560 121 -550 b 99 -385 64 -497 57 -435 b 126 -358 107 -375 115 -365 b 371 -253 200 -307 281 -268 b 510 -258 417 -246 464 -244 b 549 -274 524 -261 538 -267 b 569 -294 558 -279 565 -286 b 564 -329 578 -308 575 -321 b 528 -342 553 -337 540 -340 b 475 -333 510 -343 492 -339 b 418 -333 456 -328 438 -329 b 283 -393 369 -346 325 -365 b 239 -440 265 -404 249 -419 b 263 -501 225 -468 233 -490 b 347 -506 290 -512 318 -514 b 531 -404 415 -486 478 -453 b 681 -221 589 -351 638 -287 b 810 40 733 -139 774 -50 b 813 54 811 43 814 47 z "},"H":{"ha":1361,"x_min":0,"x_max":0,"o":"m 311 324 b 244 310 288 319 265 315 b 192 293 226 304 208 299 b 161 272 179 288 168 283 b 133 261 154 264 143 261 b 19 306 89 258 50 272 b 15 381 -1 329 -1 354 b 68 422 29 400 47 411 b 218 465 115 446 165 460 b 358 481 265 471 311 478 b 378 496 368 482 374 486 b 526 840 426 611 479 725 b 593 1038 551 906 575 969 b 596 1072 596 1049 596 1060 b 581 1083 594 1083 592 1086 b 508 1060 556 1076 532 1069 b 349 976 451 1039 397 1011 b 279 915 324 958 300 938 b 243 857 265 897 253 878 b 233 797 233 839 232 818 b 257 757 235 781 244 768 b 279 742 264 751 271 747 b 292 732 283 739 288 735 b 288 690 310 717 308 700 b 229 681 269 681 249 679 b 124 721 190 685 156 699 b 81 829 88 749 75 785 b 124 919 86 864 104 892 b 251 1036 158 967 204 1003 b 528 1165 336 1096 429 1136 b 653 1176 569 1176 610 1182 b 740 1147 683 1174 714 1165 b 794 1043 778 1124 794 1088 b 774 910 794 997 785 954 b 713 738 757 851 733 794 b 622 518 685 664 654 590 b 636 496 614 497 614 496 b 833 490 701 499 768 494 b 981 465 883 488 933 479 b 1000 458 988 463 994 461 b 1015 467 1011 456 1011 456 b 1047 569 1025 501 1036 535 b 1168 874 1081 674 1122 775 b 1256 1054 1197 935 1226 994 b 1268 1074 1260 1061 1264 1067 b 1425 1110 1306 1136 1383 1132 b 1450 1064 1443 1100 1451 1085 b 1432 979 1449 1035 1440 1007 b 1340 726 1404 893 1372 810 b 1207 292 1286 585 1243 439 b 1161 53 1188 213 1174 133 b 1151 -99 1154 3 1151 -49 b 1182 -217 1153 -140 1163 -181 b 1206 -247 1188 -229 1196 -239 b 1310 -311 1236 -275 1271 -296 b 1357 -312 1325 -317 1340 -318 b 1418 -306 1376 -307 1397 -304 b 1449 -324 1431 -307 1443 -310 b 1436 -357 1454 -337 1446 -349 b 1390 -379 1424 -369 1407 -375 b 1268 -379 1350 -390 1308 -387 b 1083 -296 1200 -365 1140 -336 b 1036 -261 1068 -285 1051 -272 b 963 -154 1000 -233 978 -196 b 939 -35 947 -115 942 -76 b 943 111 936 14 939 63 b 964 244 947 156 956 200 b 983 340 969 276 976 308 b 969 358 986 354 985 357 b 871 365 936 363 904 367 b 782 365 840 365 811 367 b 617 357 726 364 671 361 b 569 354 600 357 585 356 b 549 340 560 354 553 350 b 435 69 511 250 471 161 b 363 -110 411 10 386 -49 b 324 -210 350 -143 339 -178 b 292 -276 314 -232 304 -256 b 229 -314 276 -299 256 -310 b 150 -304 201 -317 175 -315 b 119 -254 125 -293 118 -282 b 132 -190 119 -232 126 -211 b 174 -61 143 -146 160 -104 b 242 131 197 3 217 68 b 307 310 265 190 286 250 b 311 324 308 314 310 317 z "},"I":{"ha":1106,"x_min":0,"x_max":0,"o":"m 974 1022 b 949 1013 964 1021 957 1017 b 772 908 885 986 825 953 b 715 854 751 892 732 874 b 683 790 701 835 692 814 b 724 692 675 763 692 706 b 729 688 725 690 728 689 b 729 669 738 681 738 676 b 693 654 718 661 706 656 b 547 718 632 649 585 669 b 528 817 525 747 519 781 b 568 897 535 847 549 874 b 694 1006 604 940 647 975 b 936 1129 771 1056 853 1093 b 1008 1157 960 1139 983 1150 b 1119 1160 1046 1167 1082 1168 b 1157 1144 1132 1156 1144 1151 b 1196 1078 1182 1129 1196 1107 b 1186 988 1197 1047 1192 1018 b 1111 697 1165 890 1140 793 b 990 322 1071 572 1032 447 b 869 28 956 222 915 124 b 771 -150 840 -33 808 -93 b 664 -281 739 -197 706 -242 b 417 -418 593 -347 513 -399 b 156 -410 329 -437 242 -435 b 58 -361 121 -400 88 -385 b 4 -267 29 -336 8 -306 b 22 -192 0 -239 8 -214 b 83 -115 39 -164 60 -139 b 217 -31 122 -78 165 -49 b 403 -19 278 -8 340 -3 b 460 -44 424 -25 443 -32 b 479 -67 468 -51 475 -57 b 464 -122 493 -87 486 -110 b 414 -129 449 -131 431 -131 b 353 -111 393 -126 372 -119 b 329 -112 344 -108 336 -108 b 226 -218 283 -137 249 -172 b 218 -271 218 -235 215 -253 b 261 -315 224 -296 239 -310 b 329 -314 285 -321 307 -319 b 442 -251 371 -301 408 -279 b 569 -100 493 -208 533 -156 b 725 225 633 3 683 113 b 865 650 776 365 818 508 b 944 903 893 733 918 818 b 974 1013 956 939 967 975 b 974 1022 975 1015 976 1018 z "},"J":{"ha":1308,"x_min":0,"x_max":0,"o":"m 1158 1053 b 1147 1051 1154 1054 1151 1051 b 633 838 972 989 799 924 b 399 688 551 796 471 747 b 286 547 351 649 311 603 b 271 457 274 518 267 489 b 346 393 276 417 306 392 b 374 389 356 393 364 393 b 383 346 396 381 400 363 b 360 329 376 339 368 333 b 285 310 336 318 311 313 b 161 328 243 306 200 310 b 124 349 147 333 135 340 b 71 458 88 376 71 413 b 103 571 71 499 85 535 b 243 736 136 636 186 690 b 447 868 307 788 375 829 b 890 1068 589 946 739 1010 b 1108 1153 963 1096 1035 1125 b 1256 1193 1156 1171 1204 1189 b 1346 1179 1288 1194 1317 1193 b 1381 1122 1369 1167 1381 1149 b 1365 1014 1381 1085 1374 1049 b 1303 781 1347 935 1325 858 b 1247 589 1285 717 1267 653 b 1100 178 1206 449 1160 311 b 976 -60 1064 96 1024 17 b 972 -65 975 -61 974 -64 b 978 -75 969 -72 969 -75 b 1033 -79 996 -76 1015 -76 b 1260 -122 1111 -86 1186 -96 b 1361 -175 1296 -135 1332 -150 b 1392 -206 1372 -185 1383 -194 b 1388 -306 1417 -236 1415 -276 b 1321 -343 1369 -325 1347 -339 b 1260 -329 1299 -349 1278 -342 b 1213 -289 1242 -318 1226 -304 b 1124 -235 1188 -262 1157 -246 b 976 -208 1075 -219 1026 -212 b 889 -203 947 -206 918 -204 b 867 -214 879 -203 874 -206 b 672 -408 810 -286 744 -350 b 426 -546 597 -467 517 -515 b 189 -574 349 -571 269 -583 b 81 -543 151 -569 114 -561 b 38 -511 64 -535 50 -524 b 17 -361 -3 -469 -10 -414 b 100 -265 36 -322 67 -292 b 290 -161 157 -218 222 -186 b 475 -111 350 -139 413 -124 b 649 -85 532 -100 590 -93 b 715 -79 671 -82 693 -81 b 732 -69 724 -79 728 -76 b 814 76 763 -22 790 26 b 969 444 874 196 925 318 b 1110 886 1019 590 1065 738 b 1156 1038 1125 936 1140 988 b 1158 1053 1158 1042 1161 1047 z m 626 -212 b 618 -212 622 -212 621 -212 b 481 -231 572 -217 526 -221 b 329 -286 428 -242 376 -260 b 249 -346 299 -301 272 -321 b 217 -400 233 -361 221 -378 b 246 -453 213 -424 224 -443 b 288 -458 260 -458 274 -460 b 381 -424 321 -454 351 -440 b 607 -237 467 -376 542 -311 b 626 -212 614 -229 621 -224 z "},"K":{"ha":1260,"x_min":0,"x_max":0,"o":"m 454 315 b 465 308 456 310 461 310 b 660 192 538 282 601 240 b 824 21 719 140 772 81 b 944 -110 863 -24 904 -67 b 1078 -200 983 -150 1028 -178 b 1274 -265 1142 -228 1206 -251 b 1353 -265 1300 -271 1326 -271 b 1421 -265 1375 -261 1399 -260 b 1453 -281 1432 -268 1443 -272 b 1456 -318 1465 -292 1465 -306 b 1429 -339 1449 -328 1439 -335 b 1358 -356 1406 -349 1383 -353 b 1157 -331 1289 -360 1222 -349 b 888 -219 1063 -304 975 -264 b 638 -29 793 -171 711 -104 b 508 100 594 15 551 57 b 424 176 482 126 453 153 b 417 182 421 178 419 179 b 407 179 413 185 408 183 b 404 171 406 176 404 174 b 289 -140 368 65 331 -37 b 228 -275 271 -186 250 -231 b 213 -308 222 -286 218 -297 b 160 -358 203 -333 185 -350 b 63 -357 126 -367 94 -368 b 35 -342 53 -354 43 -349 b 26 -310 25 -332 22 -322 b 147 79 60 -178 100 -49 b 199 225 165 128 182 176 b 201 238 200 229 201 232 b 146 240 182 236 164 238 b 106 256 131 243 118 247 b 106 315 79 272 79 299 b 143 333 118 324 131 329 b 217 347 168 340 192 346 b 251 374 235 349 246 357 b 417 814 304 521 358 668 b 501 1031 444 886 475 957 b 535 1104 511 1056 521 1082 b 575 1136 544 1121 558 1131 b 657 1138 601 1146 629 1147 b 692 1089 683 1129 693 1115 b 679 1008 692 1061 686 1035 b 611 786 658 933 635 860 b 518 508 581 693 549 601 b 517 497 517 506 514 503 b 546 511 526 503 536 507 b 708 596 600 540 654 568 b 850 681 757 622 803 653 b 969 754 890 704 929 729 b 1119 878 1024 790 1074 832 b 1236 1019 1164 921 1203 967 b 1285 1122 1257 1051 1274 1085 b 1326 1163 1290 1144 1306 1157 b 1439 1147 1365 1172 1403 1168 b 1471 1071 1468 1131 1476 1103 b 1439 982 1467 1039 1454 1010 b 1361 875 1418 943 1390 908 b 1174 704 1306 810 1240 756 b 893 531 1086 636 993 578 b 692 429 826 497 758 463 b 467 324 617 392 542 357 b 454 315 461 321 456 321 z "},"L":{"ha":1179,"x_min":0,"x_max":0,"o":"m 863 400 b 913 415 881 401 897 408 b 957 436 928 421 943 429 b 1003 482 976 447 992 463 b 1008 499 1007 486 1010 492 b 1019 517 1007 508 1013 513 b 1083 504 1038 525 1071 518 b 1093 481 1090 499 1093 490 b 1085 449 1093 469 1089 460 b 1013 368 1071 414 1047 386 b 851 322 963 343 908 328 b 829 306 836 321 836 321 b 729 65 800 224 768 143 b 667 -46 710 28 688 -8 b 663 -53 665 -47 664 -50 b 665 -69 657 -60 660 -64 b 715 -108 682 -82 699 -96 b 864 -225 764 -149 813 -189 b 1024 -318 914 -261 967 -294 b 1115 -337 1053 -329 1083 -337 b 1200 -322 1144 -339 1172 -333 b 1293 -269 1233 -310 1264 -290 b 1310 -247 1300 -264 1307 -257 b 1325 -229 1311 -239 1318 -233 b 1447 -236 1358 -210 1417 -212 b 1463 -294 1467 -251 1472 -272 b 1426 -337 1454 -311 1442 -325 b 1340 -390 1400 -358 1371 -375 b 1192 -437 1293 -415 1244 -432 b 1022 -433 1135 -444 1078 -442 b 688 -307 901 -417 792 -371 b 564 -218 644 -279 603 -250 b 542 -221 551 -208 551 -210 b 399 -340 499 -265 453 -308 b 197 -390 336 -376 269 -396 b 72 -350 153 -387 110 -375 b 3 -242 32 -325 8 -289 b 13 -132 0 -204 1 -168 b 63 -47 24 -100 40 -72 b 286 67 124 18 197 56 b 472 49 350 75 413 68 b 475 47 474 47 475 47 b 494 54 489 43 489 43 b 518 103 503 71 511 86 b 614 329 551 178 585 253 b 600 356 622 350 622 350 b 503 411 563 365 531 386 b 392 614 443 467 404 535 b 447 846 378 699 396 776 b 576 976 483 896 528 938 b 747 1096 631 1021 689 1058 b 850 1158 782 1117 815 1138 b 931 1188 875 1174 901 1185 b 1003 1172 956 1188 981 1185 b 1029 1129 1019 1163 1028 1149 b 1018 1047 1029 1101 1024 1074 b 931 660 993 917 963 789 b 865 414 910 578 888 496 b 863 400 864 410 861 406 z m 822 1010 b 808 1003 815 1008 813 1006 b 692 911 768 974 728 944 b 599 792 653 876 619 839 b 581 647 578 744 569 697 b 631 519 590 603 608 560 b 657 482 639 507 647 494 b 665 475 658 479 660 474 b 671 485 669 475 669 481 b 683 521 675 496 679 508 b 749 743 707 594 728 668 b 813 975 768 821 788 899 b 822 1010 817 986 819 997 z m 172 -207 b 201 -281 172 -237 182 -261 b 222 -285 210 -289 211 -290 b 285 -243 246 -274 267 -260 b 350 -174 308 -221 329 -199 b 404 -101 369 -150 388 -126 b 404 -86 407 -97 411 -92 b 340 -44 383 -71 364 -56 b 292 -43 325 -36 308 -36 b 269 -56 285 -47 276 -51 b 179 -171 228 -85 197 -124 b 172 -207 174 -183 172 -196 z "},"M":{"ha":1692,"x_min":0,"x_max":0,"o":"m 1413 638 b 1404 629 1408 636 1407 632 b 1131 238 1313 499 1218 371 b 950 -60 1067 140 1008 40 b 871 -204 922 -107 897 -157 b 821 -242 860 -225 843 -236 b 733 -235 790 -249 763 -247 b 697 -194 717 -226 704 -212 b 683 -124 689 -172 686 -149 b 682 22 679 -75 679 -26 b 696 157 683 68 689 113 b 749 449 711 254 728 351 b 789 608 761 501 774 556 b 792 624 789 613 790 617 b 785 617 788 622 786 619 b 572 311 713 515 643 413 b 342 -7 496 204 422 96 b 161 -214 286 -79 228 -150 b 115 -249 147 -228 132 -239 b 33 -264 90 -264 63 -271 b 15 -257 26 -262 21 -261 b 8 -226 3 -249 0 -239 b 24 -210 14 -221 18 -215 b 260 81 110 -119 185 -19 b 388 257 303 139 346 197 b 521 453 432 322 476 388 b 774 822 606 576 689 699 b 907 1032 821 890 863 961 b 940 1086 918 1050 931 1067 b 1007 1131 956 1113 979 1125 b 1096 1122 1038 1136 1067 1133 b 1135 1063 1124 1110 1136 1093 b 1121 978 1133 1033 1126 1006 b 1069 761 1106 906 1086 833 b 994 436 1044 653 1021 544 b 915 86 967 319 940 203 b 915 78 915 83 913 82 b 926 92 919 83 922 88 b 1158 443 1003 210 1079 326 b 1389 779 1235 556 1313 667 b 1515 985 1435 846 1478 913 b 1592 1038 1532 1018 1557 1032 b 1657 1033 1614 1040 1636 1039 b 1683 1024 1667 1032 1675 1028 b 1717 963 1708 1010 1718 990 b 1699 854 1714 926 1706 890 b 1646 643 1685 783 1664 714 b 1560 322 1617 536 1586 431 b 1513 83 1542 243 1524 164 b 1506 -74 1504 31 1503 -21 b 1515 -142 1507 -97 1511 -119 b 1535 -185 1519 -158 1526 -172 b 1665 -317 1569 -237 1611 -283 b 1757 -335 1693 -335 1724 -342 b 1818 -331 1776 -332 1797 -331 b 1838 -335 1825 -332 1831 -332 b 1853 -369 1854 -339 1861 -353 b 1836 -387 1849 -376 1843 -382 b 1758 -415 1813 -403 1786 -411 b 1513 -358 1669 -428 1588 -406 b 1349 -194 1446 -317 1392 -261 b 1335 -175 1343 -189 1339 -182 b 1293 -65 1310 -143 1300 -106 b 1299 135 1283 1 1288 68 b 1389 542 1318 272 1350 407 b 1413 629 1397 571 1406 600 b 1413 638 1414 632 1415 635 z "},"N":{"ha":1393,"x_min":0,"x_max":0,"o":"m 626 439 b 636 451 629 443 633 447 b 850 718 703 543 776 632 b 1063 938 917 796 988 869 b 1236 1083 1119 989 1176 1038 b 1315 1133 1260 1103 1286 1121 b 1433 1142 1353 1150 1393 1153 b 1451 1136 1440 1140 1446 1139 b 1499 1063 1483 1122 1500 1099 b 1482 979 1497 1033 1492 1006 b 1397 742 1457 899 1428 821 b 1311 489 1365 658 1338 574 b 1219 172 1279 383 1247 278 b 1183 21 1206 122 1190 72 b 1178 -129 1175 -29 1171 -79 b 1193 -179 1181 -146 1186 -162 b 1228 -222 1201 -196 1213 -211 b 1360 -293 1267 -254 1311 -279 b 1436 -301 1385 -301 1410 -304 b 1513 -307 1461 -299 1488 -300 b 1532 -317 1519 -308 1526 -311 b 1536 -347 1542 -325 1544 -336 b 1517 -365 1532 -356 1525 -361 b 1438 -389 1493 -381 1465 -386 b 1189 -344 1350 -399 1268 -381 b 1035 -240 1132 -319 1081 -285 b 993 -181 1015 -224 1001 -204 b 971 -86 981 -150 974 -118 b 968 17 968 -51 965 -18 b 999 239 972 92 981 165 b 1044 394 1011 292 1026 343 b 1165 710 1081 501 1122 606 b 1267 946 1199 789 1232 868 b 1269 961 1268 951 1269 956 b 1238 933 1258 951 1247 943 b 1103 796 1190 890 1146 843 b 974 656 1060 750 1015 703 b 843 497 929 604 885 551 b 646 247 778 414 711 331 b 406 -112 558 133 478 14 b 354 -218 386 -146 367 -181 b 344 -239 351 -225 347 -232 b 303 -274 338 -258 324 -269 b 228 -267 278 -278 251 -278 b 204 -229 211 -258 204 -247 b 213 -164 204 -207 208 -186 b 269 83 229 -82 249 1 b 378 394 297 190 333 293 b 475 621 411 469 443 544 b 538 814 500 683 521 749 b 568 940 549 857 561 899 b 575 1047 575 976 581 1011 b 560 1094 574 1064 568 1079 b 528 1111 553 1106 543 1113 b 479 1103 511 1111 496 1108 b 268 988 400 1081 329 1043 b 178 863 229 953 197 911 b 181 738 161 821 158 779 b 214 697 189 721 201 708 b 231 682 219 692 225 688 b 228 654 239 672 238 663 b 196 642 218 646 208 643 b 68 672 149 633 106 643 b 15 815 22 708 6 757 b 90 976 25 876 53 929 b 435 1193 179 1089 296 1160 b 643 1190 504 1208 574 1210 b 774 1063 710 1172 754 1129 b 781 997 781 1042 782 1019 b 736 778 776 922 756 850 b 689 633 722 729 704 682 b 629 457 668 575 649 515 b 624 440 626 451 625 446 b 626 439 625 440 625 440 z "},"O":{"ha":1299,"x_min":0,"x_max":0,"o":"m 675 1051 b 690 1060 682 1053 686 1057 b 893 1146 751 1104 818 1133 b 1040 1142 942 1153 992 1153 b 1221 993 1125 1122 1183 1071 b 1261 853 1242 949 1253 901 b 1272 708 1269 804 1272 757 b 1232 461 1271 624 1257 542 b 1107 186 1203 364 1160 272 b 889 -86 1046 86 972 -4 b 685 -240 826 -146 760 -199 b 422 -308 603 -283 517 -310 b 147 -201 318 -308 225 -276 b 47 -25 97 -153 65 -93 b 26 124 35 24 28 74 b 78 460 25 238 40 350 b 146 638 99 519 119 579 b 317 919 190 739 246 835 b 483 1058 364 975 418 1024 b 590 1090 518 1076 553 1088 b 657 1081 614 1093 636 1090 b 675 1051 671 1074 675 1068 z m 663 1039 b 643 1032 653 1039 647 1035 b 600 997 626 1022 613 1010 b 500 865 560 957 529 913 b 336 482 424 746 375 617 b 281 174 307 381 289 278 b 296 -28 275 106 279 38 b 354 -153 307 -74 325 -117 b 465 -203 383 -187 417 -211 b 492 -196 474 -201 483 -199 b 663 -104 556 -176 611 -144 b 810 36 717 -62 765 -15 b 939 217 858 92 901 153 b 1058 476 988 300 1026 386 b 1103 775 1092 574 1110 672 b 1067 935 1100 831 1089 883 b 1003 1022 1051 968 1032 999 b 931 1025 969 1047 967 1047 b 824 921 889 997 853 963 b 717 685 772 850 739 771 b 706 557 707 643 700 600 b 714 506 708 540 711 522 b 747 394 722 468 732 431 b 767 382 751 385 757 381 b 789 383 774 383 782 383 b 824 374 801 383 813 379 b 839 318 846 361 853 340 b 799 283 829 301 815 290 b 685 263 763 265 724 260 b 521 363 611 265 557 299 b 468 525 492 413 476 467 b 461 592 465 547 464 569 b 472 746 454 643 458 694 b 617 996 500 842 549 925 b 663 1039 631 1011 644 1024 z "},"P":{"ha":1272,"x_min":0,"x_max":0,"o":"m 415 419 b 458 508 429 449 444 479 b 671 860 521 631 590 747 b 857 1068 725 935 786 1007 b 994 1154 899 1103 942 1136 b 1188 1160 1058 1178 1122 1183 b 1275 1074 1229 1144 1260 1117 b 1294 944 1292 1032 1296 989 b 1247 622 1292 835 1275 728 b 1168 411 1228 549 1204 478 b 1035 271 1135 353 1094 304 b 906 232 994 250 951 236 b 706 239 839 225 771 225 b 607 271 671 246 638 256 b 531 338 575 286 549 307 b 528 340 529 339 529 339 b 519 331 522 339 522 333 b 440 156 493 272 467 214 b 267 -267 392 49 344 -57 b 211 -365 250 -300 233 -335 b 138 -414 193 -392 168 -407 b 69 -411 115 -418 92 -418 b 17 -350 36 -403 19 -383 b 21 -258 13 -318 17 -289 b 90 63 29 -185 74 -8 b 214 507 126 213 167 361 b 275 678 233 565 254 621 b 351 890 301 749 326 819 b 414 1056 371 946 393 1000 b 426 1090 418 1067 422 1078 b 453 1121 431 1104 440 1114 b 564 1126 489 1138 526 1140 b 601 1075 589 1118 600 1100 b 594 997 603 1049 599 1022 b 524 749 576 913 551 831 b 417 435 489 644 450 540 b 415 419 415 429 414 425 z m 607 501 b 632 507 615 503 624 506 b 697 475 658 511 686 499 b 707 433 704 461 707 447 b 739 372 704 406 717 386 b 819 349 764 357 792 351 b 856 360 833 347 844 351 b 896 396 869 371 883 382 b 989 560 940 443 968 499 b 1065 978 1033 696 1057 836 b 1061 1049 1067 1001 1065 1025 b 1033 1061 1057 1072 1054 1072 b 897 946 981 1031 938 990 b 744 746 840 883 790 815 b 613 517 696 672 654 594 b 607 501 610 513 607 508 z "},"Q":{"ha":1367,"x_min":0,"x_max":0,"o":"m 717 -190 b 807 -212 747 -199 778 -204 b 967 -289 864 -229 919 -251 b 1011 -340 983 -304 999 -321 b 1025 -385 1019 -353 1025 -368 b 996 -429 1024 -404 1014 -419 b 933 -432 975 -439 954 -440 b 865 -383 907 -421 885 -403 b 838 -353 857 -372 847 -362 b 807 -336 829 -343 818 -339 b 733 -325 783 -331 758 -326 b 571 -326 679 -321 625 -322 b 386 -351 510 -331 447 -336 b 210 -418 325 -367 267 -390 b 174 -436 197 -424 186 -429 b 115 -444 156 -446 135 -447 b 56 -418 93 -440 74 -432 b 44 -315 19 -392 15 -350 b 90 -276 57 -300 72 -287 b 214 -222 128 -250 169 -233 b 353 -194 260 -211 307 -201 b 367 -192 358 -194 363 -193 b 358 -185 365 -187 361 -186 b 172 65 256 -131 196 -46 b 160 224 161 118 158 169 b 185 417 163 289 168 353 b 250 610 200 482 224 546 b 365 835 282 688 319 764 b 474 972 397 883 432 931 b 604 1069 513 1011 554 1044 b 706 1099 636 1086 669 1096 b 768 1089 726 1100 747 1097 b 785 1060 779 1083 788 1075 b 797 1067 790 1060 793 1064 b 990 1146 856 1108 919 1135 b 1133 1140 1038 1154 1086 1153 b 1301 999 1213 1121 1268 1072 b 1338 869 1319 957 1329 914 b 1346 725 1346 821 1347 774 b 1282 428 1343 622 1321 524 b 1119 143 1240 326 1188 231 b 874 -103 1049 51 968 -33 b 733 -183 829 -135 783 -162 b 717 -190 728 -186 722 -189 z m 690 -75 b 693 -78 692 -75 692 -76 b 758 -35 715 -64 738 -50 b 900 97 810 4 857 49 b 1024 267 947 150 988 207 b 1140 513 1071 344 1110 426 b 1188 793 1174 603 1192 696 b 1154 944 1185 846 1175 896 b 1094 1029 1140 976 1122 1007 b 1028 1032 1064 1053 1061 1053 b 925 936 986 1007 953 974 b 821 713 875 868 842 793 b 807 611 813 679 804 646 b 839 453 810 557 821 504 b 878 426 849 425 850 425 b 928 417 894 426 911 424 b 951 372 947 408 956 393 b 942 339 950 361 946 350 b 879 226 925 300 903 263 b 815 133 858 196 835 165 b 731 -7 786 86 758 39 b 690 -75 717 -29 704 -53 z m 769 1049 b 753 1042 763 1049 757 1044 b 679 974 724 1024 700 999 b 546 761 626 908 582 838 b 410 314 479 619 433 469 b 401 104 399 244 392 175 b 435 -24 407 60 415 17 b 488 -100 447 -53 464 -79 b 506 -96 497 -108 499 -107 b 511 -85 507 -93 510 -89 b 593 64 538 -35 565 15 b 678 218 622 115 651 167 b 732 308 694 250 711 281 b 726 324 739 319 739 319 b 628 411 682 340 651 371 b 582 565 601 460 589 511 b 576 628 579 586 579 607 b 588 768 571 676 574 722 b 763 1040 619 876 678 967 b 769 1049 765 1043 769 1044 z "},"R":{"ha":1239,"x_min":0,"x_max":0,"o":"m 379 424 b 432 529 397 458 414 493 b 633 854 492 642 558 751 b 832 1074 692 935 756 1010 b 924 1136 861 1097 890 1118 b 1124 1169 986 1169 1053 1182 b 1176 1151 1142 1165 1160 1160 b 1243 1082 1207 1136 1229 1114 b 1260 1018 1251 1061 1257 1040 b 1256 838 1269 957 1263 897 b 1193 550 1244 739 1224 643 b 1115 382 1174 492 1150 435 b 901 238 1064 304 993 256 b 750 231 851 229 801 228 b 735 232 744 232 739 232 b 731 225 731 231 729 228 b 735 221 732 224 733 222 b 847 25 783 161 817 93 b 938 -179 876 -44 904 -112 b 1014 -260 956 -214 979 -242 b 1186 -319 1068 -289 1124 -312 b 1285 -315 1219 -324 1251 -321 b 1358 -315 1308 -310 1333 -310 b 1381 -325 1365 -317 1374 -319 b 1385 -358 1392 -335 1393 -346 b 1353 -381 1376 -369 1365 -376 b 1293 -397 1333 -389 1313 -393 b 1088 -385 1224 -408 1154 -400 b 822 -257 990 -361 901 -317 b 711 -135 778 -224 743 -181 b 631 10 681 -89 656 -39 b 563 144 608 56 588 100 b 479 253 540 185 514 222 b 468 261 475 256 472 258 b 444 254 457 268 450 267 b 339 22 410 176 375 100 b 229 -207 303 -54 269 -132 b 204 -250 222 -222 214 -236 b 129 -301 186 -278 161 -296 b 43 -293 100 -307 71 -306 b 7 -249 24 -285 13 -269 b 8 -168 1 -221 4 -194 b 65 124 19 -69 40 26 b 186 535 101 261 140 399 b 254 713 207 594 232 653 b 332 929 281 785 306 857 b 385 1064 350 974 368 1018 b 397 1096 389 1074 393 1085 b 422 1125 401 1108 410 1119 b 542 1129 461 1144 501 1147 b 574 1076 564 1119 574 1100 b 558 971 572 1040 567 1006 b 465 679 535 871 500 775 b 381 438 438 599 407 518 b 376 424 379 433 378 428 b 379 424 378 424 378 424 z m 574 506 b 596 511 581 507 588 510 b 668 467 628 517 658 499 b 672 429 671 454 671 442 b 703 375 672 404 683 388 b 768 353 724 363 746 357 b 832 371 793 349 813 354 b 908 460 861 396 888 426 b 974 618 938 510 957 563 b 1031 910 1001 714 1018 811 b 1036 1010 1035 943 1036 976 b 1029 1061 1036 1028 1033 1044 b 1015 1067 1026 1069 1024 1071 b 1003 1060 1011 1065 1007 1063 b 939 1015 981 1047 958 1032 b 789 854 882 968 833 913 b 575 515 706 749 639 633 b 574 506 574 513 571 510 z "},"S":{"ha":1213,"x_min":0,"x_max":0,"o":"m 458 -181 b 721 -174 553 -186 638 -185 b 801 -153 749 -169 775 -164 b 839 -122 817 -146 829 -136 b 849 -58 851 -103 853 -81 b 815 26 844 -28 831 0 b 769 86 801 47 786 68 b 604 268 718 150 660 208 b 415 469 542 336 475 400 b 308 626 374 518 336 568 b 271 783 285 675 271 728 b 304 901 271 825 283 864 b 414 1021 331 951 369 989 b 636 1128 481 1071 557 1103 b 838 1169 701 1149 769 1164 b 1119 1138 935 1178 1028 1171 b 1217 1085 1154 1125 1188 1108 b 1268 1018 1239 1067 1257 1044 b 1258 900 1283 976 1278 938 b 1182 799 1238 863 1213 829 b 949 663 1117 733 1038 690 b 879 651 926 656 903 653 b 818 668 858 651 838 657 b 799 694 808 674 797 681 b 821 718 799 708 810 714 b 928 774 858 733 894 751 b 1033 861 965 800 1000 828 b 1086 979 1065 893 1082 935 b 1082 1025 1088 994 1086 1010 b 1057 1050 1078 1038 1071 1046 b 981 1053 1032 1056 1006 1054 b 675 943 869 1043 767 1006 b 608 886 650 926 628 907 b 563 693 558 831 543 767 b 628 567 575 647 599 606 b 771 400 671 507 721 454 b 810 360 785 386 797 374 b 919 238 847 318 885 279 b 1065 28 975 172 1025 104 b 1099 -61 1081 0 1092 -29 b 1028 -231 1113 -133 1088 -189 b 926 -275 997 -251 963 -265 b 753 -304 869 -293 811 -300 b 574 -306 693 -308 633 -308 b 410 -290 518 -303 464 -297 b 147 -222 319 -278 231 -258 b 28 -149 104 -203 63 -181 b -22 -85 7 -131 -11 -111 b -11 0 -35 -54 -31 -26 b 83 78 14 33 47 58 b 331 144 160 121 243 142 b 550 99 407 146 481 131 b 618 49 576 86 600 71 b 632 25 625 42 629 33 b 606 -10 638 6 626 -10 b 528 6 578 -10 553 -3 b 478 25 511 13 494 18 b 394 36 450 36 422 38 b 217 -31 329 31 269 8 b 190 -56 206 -37 197 -46 b 196 -111 175 -75 176 -96 b 264 -146 215 -129 239 -139 b 458 -181 331 -165 399 -178 z "},"T":{"ha":894,"x_min":0,"x_max":0,"o":"m 514 1150 b 701 1133 582 1149 642 1142 b 925 1100 776 1124 850 1110 b 1144 1083 997 1089 1071 1082 b 1379 1110 1224 1085 1303 1092 b 1531 1181 1435 1122 1485 1149 b 1543 1200 1538 1186 1543 1192 b 1564 1221 1544 1211 1554 1217 b 1611 1225 1579 1226 1596 1226 b 1679 1200 1636 1224 1660 1215 b 1693 1132 1704 1182 1708 1158 b 1650 1088 1682 1114 1667 1100 b 1460 989 1592 1044 1529 1010 b 1339 969 1421 978 1381 972 b 1100 965 1260 963 1179 961 b 957 976 1053 968 1004 971 b 939 965 944 979 943 978 b 914 888 931 940 922 914 b 868 751 900 842 885 796 b 757 414 825 640 790 528 b 625 18 717 281 674 149 b 519 -244 592 -71 558 -158 b 507 -272 515 -254 510 -262 b 446 -321 496 -300 475 -315 b 363 -317 418 -328 390 -326 b 333 -301 353 -314 342 -308 b 321 -264 322 -292 317 -279 b 331 -218 324 -249 326 -233 b 356 -128 340 -187 347 -158 b 399 21 367 -78 385 -29 b 464 244 421 96 443 169 b 558 542 493 344 526 443 b 626 750 581 611 603 681 b 719 992 654 832 685 913 b 710 1010 726 1008 726 1007 b 529 1024 650 1018 590 1025 b 275 976 442 1022 356 1011 b 150 894 228 957 186 929 b 138 871 143 888 138 882 b 121 858 138 861 128 860 b 40 882 90 856 64 861 b 17 946 22 899 14 921 b 36 999 19 965 25 982 b 114 1069 56 1028 83 1051 b 267 1128 161 1099 213 1117 b 444 1150 325 1142 385 1149 b 514 1150 471 1151 496 1150 z "},"U":{"ha":1422,"x_min":0,"x_max":0,"o":"m 1082 507 b 1032 435 1065 483 1049 458 b 883 232 983 365 932 299 b 692 -21 821 146 757 63 b 529 -201 642 -85 588 -146 b 456 -262 506 -224 482 -244 b 354 -306 425 -285 392 -301 b 240 -293 315 -311 276 -310 b 178 -207 201 -276 183 -247 b 183 -87 172 -167 176 -126 b 254 204 197 13 224 108 b 363 507 286 307 325 406 b 468 831 403 613 440 721 b 499 972 481 878 492 925 b 499 1094 506 1014 507 1054 b 488 1122 496 1104 493 1114 b 467 1131 482 1133 479 1135 b 397 1096 442 1122 419 1110 b 225 946 331 1057 274 1007 b 183 872 208 924 193 899 b 206 719 163 817 171 767 b 235 694 214 710 224 701 b 249 685 240 692 244 689 b 249 650 261 674 261 661 b 217 636 240 643 229 639 b 8 778 126 617 28 668 b 35 914 0 826 11 871 b 90 994 50 943 68 969 b 272 1153 143 1056 204 1108 b 385 1213 307 1176 344 1197 b 561 1226 442 1233 501 1239 b 679 1151 608 1215 650 1193 b 715 1056 700 1124 710 1090 b 713 910 724 1007 719 958 b 650 649 701 821 676 735 b 472 128 596 474 533 300 b 401 -87 447 57 421 -14 b 385 -157 394 -110 389 -132 b 406 -140 393 -151 400 -146 b 543 10 454 -93 500 -43 b 765 308 624 104 697 206 b 906 518 813 378 858 449 b 1156 885 988 640 1074 761 b 1249 1031 1188 933 1217 983 b 1282 1081 1260 1047 1271 1064 b 1329 1115 1294 1099 1310 1108 b 1451 1113 1371 1128 1411 1126 b 1469 1103 1458 1110 1464 1106 b 1493 1049 1489 1089 1497 1072 b 1475 981 1488 1025 1482 1003 b 1376 696 1443 885 1410 790 b 1288 415 1343 604 1314 510 b 1239 196 1268 343 1250 271 b 1228 88 1233 160 1229 124 b 1251 -35 1226 44 1235 4 b 1363 -197 1279 -96 1315 -151 b 1414 -237 1378 -212 1396 -226 b 1479 -249 1435 -249 1456 -253 b 1561 -244 1506 -244 1533 -243 b 1588 -249 1569 -244 1579 -246 b 1601 -285 1604 -254 1610 -268 b 1581 -307 1597 -293 1590 -301 b 1497 -339 1556 -324 1528 -333 b 1254 -293 1411 -351 1329 -337 b 1119 -167 1200 -261 1157 -217 b 1024 25 1076 -108 1044 -44 b 1011 111 1015 54 1011 82 b 1036 325 1010 183 1019 256 b 1081 488 1049 381 1064 435 b 1086 506 1082 494 1083 500 b 1082 507 1085 507 1083 507 z "},"V":{"ha":1100,"x_min":0,"x_max":0,"o":"m 686 217 b 692 236 688 222 690 229 b 786 494 717 324 749 410 b 832 586 800 525 817 556 b 925 765 863 646 893 706 b 1163 1142 999 894 1076 1021 b 1276 1294 1199 1194 1236 1246 b 1383 1401 1310 1333 1343 1371 b 1479 1456 1413 1425 1444 1443 b 1565 1465 1507 1465 1536 1468 b 1597 1454 1576 1464 1588 1460 b 1607 1401 1618 1442 1622 1421 b 1568 1374 1597 1389 1585 1376 b 1525 1343 1550 1368 1538 1357 b 1400 1179 1479 1292 1439 1236 b 1253 956 1349 1106 1300 1031 b 1071 642 1189 853 1128 749 b 1000 497 1044 594 1022 546 b 886 229 960 408 922 319 b 807 -17 854 149 829 67 b 751 -206 789 -79 772 -143 b 736 -249 747 -219 742 -235 b 686 -308 726 -274 710 -293 b 582 -336 654 -328 619 -337 b 503 -267 535 -333 514 -314 b 476 -74 489 -203 483 -137 b 451 206 465 19 457 113 b 442 404 447 271 444 338 b 424 807 436 539 431 672 b 406 961 422 858 415 910 b 379 1044 400 990 393 1018 b 367 1065 376 1051 371 1058 b 338 1069 357 1078 351 1078 b 306 1043 326 1061 315 1053 b 183 858 251 992 208 931 b 161 724 168 815 158 771 b 178 660 163 701 167 681 b 222 617 188 640 201 625 b 236 611 226 615 232 614 b 240 572 253 600 254 586 b 228 563 238 568 233 565 b 76 561 178 539 126 532 b 10 665 38 583 18 621 b 36 860 -1 732 11 797 b 165 1057 64 936 111 999 b 281 1150 200 1093 236 1126 b 454 1188 335 1179 392 1196 b 603 1076 525 1179 575 1142 b 639 946 621 1035 632 990 b 678 468 665 788 672 628 b 683 235 681 390 682 313 b 683 217 683 228 683 222 b 686 217 685 217 685 217 z "},"W":{"ha":1533,"x_min":0,"x_max":0,"o":"m 929 494 b 921 481 924 489 922 485 b 781 190 874 383 826 288 b 685 -31 747 118 717 43 b 588 -236 656 -100 625 -169 b 567 -269 582 -249 575 -260 b 467 -311 539 -300 504 -310 b 432 -307 454 -311 443 -310 b 379 -254 403 -301 385 -283 b 369 -154 374 -221 371 -187 b 393 90 369 -71 382 10 b 428 347 404 176 415 263 b 481 679 444 458 463 568 b 508 931 493 763 504 846 b 499 1058 510 974 507 1017 b 479 1108 496 1076 489 1093 b 433 1125 465 1129 457 1132 b 353 1089 406 1117 379 1104 b 200 953 293 1053 242 1008 b 146 847 176 921 157 885 b 189 679 125 782 144 728 b 217 661 196 671 207 667 b 264 643 232 654 247 649 b 285 633 271 640 279 638 b 289 599 299 624 300 610 b 250 576 279 586 265 581 b 54 600 182 560 115 565 b -21 750 -1 633 -29 683 b 51 942 -12 819 13 883 b 165 1078 83 992 121 1038 b 367 1200 225 1132 290 1175 b 539 1222 422 1219 479 1229 b 600 1207 560 1219 581 1215 b 696 1108 646 1188 676 1153 b 721 979 714 1068 719 1024 b 699 651 725 869 713 760 b 635 246 681 515 656 382 b 626 200 632 231 629 215 b 628 189 626 197 624 193 b 636 207 631 196 633 201 b 763 460 676 292 719 376 b 914 746 813 556 864 650 b 976 876 936 789 956 833 b 985 894 979 883 982 889 b 1079 965 1000 938 1036 957 b 1143 965 1100 969 1122 969 b 1203 894 1183 957 1201 935 b 1197 776 1203 854 1200 815 b 1172 431 1190 661 1178 546 b 1163 110 1167 324 1163 217 b 1164 92 1163 104 1164 99 b 1171 103 1169 94 1169 99 b 1321 601 1226 267 1274 435 b 1364 746 1333 650 1349 699 b 1436 964 1388 818 1410 892 b 1467 1044 1446 990 1456 1017 b 1554 1179 1486 1096 1515 1140 b 1824 1375 1635 1258 1722 1326 b 1914 1406 1853 1389 1883 1400 b 1993 1403 1940 1411 1967 1411 b 2014 1393 2001 1400 2008 1397 b 2018 1356 2028 1382 2029 1368 b 1983 1331 2010 1344 1997 1336 b 1910 1292 1957 1321 1933 1307 b 1704 1128 1836 1243 1765 1190 b 1614 996 1667 1089 1638 1044 b 1540 826 1585 942 1561 885 b 1449 553 1508 736 1478 644 b 1390 368 1429 492 1408 431 b 1308 90 1364 275 1335 183 b 1240 -106 1289 24 1267 -42 b 1224 -140 1235 -117 1229 -129 b 1140 -199 1206 -174 1176 -192 b 1076 -201 1119 -201 1099 -204 b 1001 -151 1044 -196 1019 -179 b 958 -53 983 -121 968 -87 b 926 157 940 15 933 86 b 921 249 924 188 922 218 b 925 435 918 311 919 374 b 929 494 926 454 928 474 z "},"X":{"ha":1328,"x_min":0,"x_max":0,"o":"m 825 226 b 799 194 814 215 807 204 b 693 44 763 144 728 94 b 467 -300 614 -68 536 -181 b 428 -381 453 -326 439 -353 b 424 -406 424 -389 421 -396 b 410 -436 426 -418 419 -428 b 357 -460 394 -450 376 -456 b 288 -457 333 -464 311 -462 b 244 -399 258 -447 246 -428 b 256 -343 244 -379 250 -361 b 296 -250 267 -311 281 -281 b 410 -49 331 -181 369 -114 b 632 290 481 67 556 179 b 751 467 672 349 713 408 b 757 501 758 478 760 488 b 667 783 732 597 704 692 b 579 961 642 844 617 906 b 508 1044 560 992 536 1021 b 496 1056 504 1049 500 1051 b 419 1068 472 1074 447 1075 b 242 939 344 1046 286 1001 b 183 761 204 886 185 826 b 221 626 182 714 192 668 b 274 588 235 608 250 592 b 283 585 278 588 281 586 b 289 547 303 576 304 561 b 263 533 282 540 272 536 b 200 526 242 526 221 524 b 117 553 169 528 142 536 b 58 629 88 572 69 597 b 49 822 38 693 33 757 b 317 1132 85 971 176 1072 b 465 1168 364 1151 414 1164 b 699 1101 551 1175 629 1154 b 832 950 754 1060 796 1007 b 938 725 876 879 911 804 b 956 722 943 710 944 710 b 1103 865 1003 772 1051 819 b 1297 1019 1164 921 1229 971 b 1457 1124 1349 1057 1401 1093 b 1554 1164 1488 1142 1519 1156 b 1615 1167 1574 1169 1594 1171 b 1642 1157 1625 1165 1633 1163 b 1647 1119 1658 1147 1660 1133 b 1632 1107 1643 1114 1638 1111 b 1417 936 1551 1061 1482 1001 b 1253 754 1358 879 1306 817 b 1124 599 1210 703 1167 650 b 1022 476 1090 558 1056 517 b 1015 451 1015 469 1013 461 b 1042 338 1025 414 1033 376 b 1071 213 1051 296 1061 254 b 1140 -4 1088 138 1108 65 b 1213 -99 1157 -40 1182 -72 b 1269 -135 1229 -114 1250 -125 b 1500 -218 1343 -172 1419 -201 b 1613 -222 1538 -225 1575 -229 b 1674 -215 1632 -219 1653 -218 b 1713 -218 1686 -214 1700 -214 b 1726 -257 1732 -224 1738 -239 b 1707 -275 1722 -265 1714 -271 b 1603 -314 1675 -297 1640 -307 b 1331 -297 1511 -331 1421 -321 b 1049 -181 1231 -271 1138 -231 b 918 -39 989 -147 949 -99 b 842 167 886 26 863 96 b 825 226 836 186 831 206 z "},"Y":{"ha":1735,"x_min":0,"x_max":0,"o":"m 1360 394 b 1326 349 1347 378 1336 363 b 1111 72 1258 253 1188 161 b 928 -110 1056 7 994 -54 b 796 -196 888 -144 846 -175 b 656 -222 751 -215 704 -224 b 563 -208 625 -222 593 -218 b 411 -56 488 -183 438 -131 b 396 50 400 -21 396 14 b 415 208 396 104 406 157 b 508 528 438 318 472 424 b 593 807 540 621 571 713 b 611 968 607 860 613 914 b 596 1058 610 999 606 1029 b 579 1093 592 1071 586 1082 b 488 1136 558 1129 528 1142 b 400 1107 457 1131 428 1121 b 279 1014 353 1085 311 1056 b 235 851 242 967 225 913 b 339 733 246 793 282 753 b 367 725 347 729 357 728 b 407 707 381 721 394 717 b 406 672 419 696 419 682 b 382 661 399 667 390 664 b 269 654 346 651 308 649 b 144 696 225 660 182 672 b 40 828 93 728 56 769 b 51 982 26 881 32 932 b 188 1143 78 1051 126 1103 b 343 1218 236 1175 288 1201 b 500 1242 394 1233 447 1242 b 636 1224 547 1240 592 1236 b 835 1004 746 1189 811 1117 b 839 853 844 954 844 904 b 764 536 828 744 796 639 b 671 238 733 436 699 338 b 629 53 653 176 638 115 b 632 -57 624 17 624 -21 b 650 -100 636 -72 642 -87 b 676 -108 660 -114 661 -114 b 771 -50 710 -94 740 -74 b 915 85 822 -10 869 38 b 1079 275 972 147 1028 208 b 1358 664 1176 401 1274 528 b 1388 714 1368 681 1378 697 b 1481 872 1417 767 1450 818 b 1603 936 1507 919 1550 938 b 1675 919 1628 936 1653 931 b 1717 856 1701 906 1714 885 b 1700 717 1719 808 1710 763 b 1524 163 1656 526 1594 343 b 1360 -193 1476 40 1425 -79 b 1196 -429 1313 -276 1260 -357 b 942 -617 1125 -510 1042 -574 b 717 -664 871 -647 794 -662 b 536 -637 654 -665 594 -657 b 432 -576 497 -624 463 -604 b 401 -536 419 -564 410 -551 b 406 -457 388 -510 389 -482 b 428 -429 413 -446 419 -437 b 678 -306 496 -358 581 -318 b 813 -308 722 -299 768 -300 b 872 -331 835 -312 854 -319 b 893 -347 881 -335 888 -339 b 885 -386 906 -362 903 -378 b 838 -396 869 -394 853 -396 b 789 -394 821 -396 806 -396 b 614 -467 719 -390 664 -419 b 599 -489 607 -472 603 -481 b 608 -535 589 -507 592 -522 b 654 -553 621 -544 636 -551 b 782 -533 699 -560 742 -550 b 889 -469 821 -517 856 -494 b 1086 -240 971 -407 1035 -328 b 1254 103 1151 -131 1207 -15 b 1332 301 1281 168 1308 235 b 1358 382 1340 328 1350 354 b 1360 394 1360 385 1361 388 z "},"Z":{"ha":1375,"x_min":0,"x_max":0,"o":"m 794 390 b 785 392 792 393 788 393 b 690 353 751 383 719 372 b 675 340 685 349 679 346 b 624 318 661 326 643 319 b 529 338 590 315 558 319 b 522 343 526 339 524 340 b 514 417 494 363 492 392 b 583 458 533 438 557 449 b 672 482 613 468 642 475 b 874 515 738 497 806 508 b 892 526 882 515 888 519 b 982 654 922 569 951 613 b 1176 915 1046 740 1108 829 b 1269 1028 1207 953 1238 990 b 1274 1032 1271 1029 1272 1031 b 1278 1039 1275 1033 1279 1036 b 1269 1043 1276 1043 1272 1042 b 1264 1042 1267 1043 1265 1042 b 1142 1038 1224 1040 1182 1039 b 908 1031 1064 1035 986 1033 b 679 994 831 1028 754 1019 b 550 921 632 978 588 956 b 490 775 508 882 488 835 b 521 690 493 744 503 715 b 558 642 532 674 543 656 b 553 618 569 631 567 622 b 490 614 532 611 511 611 b 351 689 435 622 388 647 b 321 876 304 744 296 808 b 415 1001 340 928 375 967 b 606 1100 471 1049 536 1079 b 799 1138 669 1119 733 1129 b 1010 1151 869 1144 939 1149 b 1222 1154 1081 1154 1151 1157 b 1282 1156 1243 1154 1263 1156 b 1382 1157 1315 1156 1349 1156 b 1465 1151 1410 1158 1438 1158 b 1504 1138 1479 1149 1492 1144 b 1519 1125 1510 1135 1515 1131 b 1526 1079 1533 1111 1535 1096 b 1507 1049 1522 1068 1515 1058 b 1272 725 1422 946 1344 838 b 1146 518 1228 657 1186 588 b 1151 500 1138 504 1138 504 b 1228 468 1179 492 1204 482 b 1258 438 1240 460 1251 450 b 1240 386 1272 417 1264 394 b 1215 383 1232 382 1225 382 b 1128 407 1185 385 1157 397 b 1101 417 1119 411 1110 414 b 1079 407 1086 419 1086 419 b 1033 331 1064 382 1049 356 b 914 143 996 267 957 203 b 817 19 883 100 851 58 b 733 -64 790 -10 763 -37 b 733 -87 721 -76 719 -76 b 938 -225 799 -137 864 -187 b 1139 -283 1000 -257 1067 -279 b 1192 -281 1157 -285 1175 -283 b 1335 -250 1240 -274 1289 -265 b 1356 -243 1342 -249 1349 -246 b 1368 -232 1361 -242 1365 -239 b 1393 -210 1372 -221 1382 -214 b 1478 -211 1422 -200 1450 -201 b 1486 -217 1481 -212 1483 -214 b 1497 -276 1511 -232 1515 -254 b 1472 -297 1490 -285 1482 -292 b 1354 -346 1436 -321 1396 -335 b 1192 -378 1300 -361 1246 -371 b 1142 -383 1175 -379 1158 -382 b 929 -365 1069 -390 999 -382 b 701 -278 849 -347 774 -318 b 592 -206 664 -256 628 -232 b 588 -201 590 -204 589 -203 b 553 -200 571 -189 571 -189 b 343 -275 488 -237 418 -264 b 151 -261 279 -285 214 -283 b 86 -224 128 -253 106 -240 b 50 -78 42 -185 29 -132 b 117 10 64 -42 86 -14 b 260 72 158 43 207 63 b 515 53 347 89 432 85 b 540 60 531 46 531 47 b 611 143 564 88 589 114 b 754 332 658 206 708 267 b 789 379 765 349 776 364 b 794 390 792 383 794 386 z m 258 -124 b 268 -147 258 -131 263 -139 b 283 -151 272 -153 276 -154 b 296 -147 288 -150 292 -149 b 403 -82 335 -131 369 -107 b 401 -69 410 -76 410 -74 b 338 -43 382 -57 361 -49 b 310 -43 329 -40 319 -39 b 258 -124 281 -53 256 -89 z "},"[":{"ha":886,"x_min":0,"x_max":0,"o":"m 692 1156 b 796 1147 728 1157 763 1156 b 840 1132 811 1144 826 1139 b 857 1119 846 1129 851 1125 b 850 1081 872 1104 869 1090 b 825 1074 842 1076 833 1075 b 794 1071 814 1072 804 1071 b 693 1061 760 1072 726 1067 b 624 1053 669 1058 646 1054 b 599 1035 611 1051 604 1046 b 563 935 586 1001 574 968 b 485 710 539 858 510 785 b 379 371 450 597 414 483 b 296 104 353 282 324 193 b 204 -194 265 6 233 -94 b 183 -261 197 -217 190 -239 b 181 -272 182 -265 181 -269 b 186 -281 179 -278 181 -281 b 199 -281 190 -281 194 -281 b 404 -264 268 -281 336 -274 b 464 -265 425 -261 444 -261 b 492 -276 475 -268 483 -271 b 494 -314 507 -287 508 -301 b 463 -332 486 -324 474 -328 b 371 -351 432 -342 401 -347 b 199 -368 314 -361 257 -367 b 136 -371 178 -369 157 -371 b 64 -357 111 -369 88 -365 b 24 -335 49 -353 35 -344 b 0 -285 8 -321 0 -304 b 15 -154 0 -240 6 -197 b 92 151 39 -53 64 50 b 140 324 107 208 125 265 b 222 606 167 418 193 513 b 289 797 242 671 265 733 b 356 971 311 856 331 914 b 404 1068 371 1004 386 1038 b 506 1140 428 1108 461 1132 b 603 1153 538 1147 571 1150 b 692 1156 633 1154 664 1157 z "},"\\":{"ha":1260,"x_min":0,"x_max":0,"o":"m 1181 -306 b 1121 -283 1158 -306 1138 -299 b 1061 -218 1100 -262 1079 -242 b 921 -42 1014 -160 967 -101 b 682 269 842 63 761 167 b 314 749 558 429 436 589 b 101 1033 242 842 169 938 b 21 1149 74 1071 46 1108 b 4 1181 15 1158 8 1169 b 15 1214 0 1196 3 1206 b 33 1224 21 1218 26 1221 b 140 1199 74 1235 110 1229 b 197 1136 161 1178 179 1157 b 399 881 265 1051 333 967 b 674 513 490 758 582 636 b 886 228 746 418 815 324 b 1183 -171 986 96 1086 -36 b 1236 -256 1203 -197 1221 -225 b 1222 -297 1246 -274 1242 -287 b 1181 -306 1210 -303 1196 -306 z "},"]":{"ha":886,"x_min":0,"x_max":0,"o":"m 181 -371 b 76 -362 143 -371 110 -371 b 32 -347 61 -358 46 -354 b 15 -335 26 -343 21 -339 b 22 -296 0 -319 3 -304 b 47 -289 31 -292 39 -290 b 78 -286 57 -287 68 -286 b 179 -276 111 -286 146 -282 b 249 -267 203 -272 225 -269 b 274 -249 261 -265 268 -261 b 310 -150 286 -217 299 -183 b 386 75 333 -74 363 0 b 493 415 422 189 458 301 b 575 681 519 504 547 592 b 668 979 607 781 638 879 b 689 1047 674 1001 682 1024 b 692 1058 690 1050 692 1054 b 686 1065 693 1063 690 1065 b 672 1067 682 1067 678 1067 b 467 1049 604 1065 535 1058 b 407 1050 447 1046 428 1047 b 379 1063 397 1053 388 1057 b 376 1099 365 1072 364 1086 b 410 1117 386 1108 399 1114 b 500 1138 440 1126 469 1132 b 674 1154 558 1146 615 1151 b 736 1156 694 1154 715 1157 b 808 1143 761 1156 785 1151 b 849 1119 822 1138 836 1131 b 872 1069 864 1107 872 1090 b 857 940 872 1025 867 982 b 781 635 833 838 808 735 b 732 461 764 576 747 519 b 650 179 706 367 679 274 b 583 -12 631 115 607 51 b 515 -185 561 -69 540 -128 b 468 -283 501 -218 486 -251 b 367 -356 444 -324 411 -346 b 269 -367 335 -361 301 -364 b 181 -371 239 -369 208 -372 z "},"^":{"ha":414,"x_min":0,"x_max":0,"o":"m 210 1078 b 174 1022 194 1060 185 1042 b 124 947 160 996 143 971 b 54 915 106 926 83 913 b 51 915 54 915 53 915 b 17 979 13 919 0 944 b 72 1057 32 1008 53 1032 b 154 1175 101 1094 131 1133 b 244 1213 175 1210 207 1217 b 324 1158 279 1208 307 1190 b 354 1083 336 1135 349 1110 b 371 1038 358 1068 365 1053 b 393 975 378 1017 386 996 b 397 961 394 971 396 965 b 383 932 400 947 396 939 b 360 925 375 928 368 925 b 260 972 317 921 283 935 b 222 1049 244 996 232 1022 b 210 1078 218 1058 215 1067 z "},"_":{"ha":857,"x_min":0,"x_max":0,"o":"m 801 -93 b 688 -90 764 -93 725 -92 b 322 -86 658 -89 629 -87 b 178 -85 275 -86 226 -86 b 54 -78 136 -85 94 -82 b 1 -14 22 -74 0 -46 b 21 7 3 -1 8 6 b 50 11 31 10 40 10 b 190 17 96 13 143 15 b 289 15 222 18 256 18 b 322 17 300 15 311 17 b 749 10 649 17 699 15 b 782 7 760 8 771 8 b 819 -12 797 7 810 0 b 839 -56 831 -25 836 -39 b 808 -93 843 -81 835 -92 b 801 -93 807 -93 804 -93 z "},"`":{"ha":397,"x_min":0,"x_max":0,"o":"m 85 1207 b 149 1172 113 1210 135 1197 b 190 1104 163 1149 176 1126 b 264 1019 210 1071 232 1042 b 335 968 288 1003 311 986 b 372 939 347 958 361 950 b 372 908 383 928 382 918 b 338 892 363 899 350 894 b 267 901 313 888 289 892 b 203 933 244 910 224 922 b 113 993 172 953 143 975 b 67 1026 96 1003 81 1014 b 3 1140 33 1057 7 1093 b 32 1197 0 1165 10 1185 b 85 1207 49 1204 65 1208 z "},"a":{"ha":853,"x_min":0,"x_max":0,"o":"m 431 226 b 393 171 418 208 406 189 b 311 56 365 132 339 94 b 267 8 299 39 283 22 b 175 -32 240 -14 210 -28 b 79 -24 143 -36 111 -35 b -21 88 25 -6 -4 36 b -29 182 -31 118 -32 150 b 33 417 -24 264 1 342 b 97 519 50 454 72 488 b 175 604 121 550 146 579 b 322 669 218 640 268 660 b 450 667 365 675 408 674 b 540 617 486 660 517 644 b 547 608 543 614 544 611 b 561 610 554 600 556 601 b 574 629 565 617 569 624 b 603 661 582 642 590 653 b 699 679 632 681 665 683 b 742 664 715 678 729 672 b 761 626 756 654 761 642 b 754 589 761 613 758 600 b 733 536 747 571 740 553 b 689 419 719 497 704 458 b 671 361 681 400 676 381 b 626 224 658 314 639 271 b 601 69 611 174 600 122 b 604 46 601 63 603 54 b 614 42 606 39 608 38 b 633 57 622 46 628 51 b 717 156 665 86 692 121 b 854 336 763 215 808 276 b 904 372 868 354 883 367 b 931 369 914 375 922 376 b 932 342 938 360 936 350 b 904 294 925 324 914 310 b 751 89 856 224 803 157 b 690 13 732 63 714 35 b 536 -28 647 -29 594 -43 b 438 72 485 -14 453 21 b 431 172 428 104 428 139 b 433 225 432 190 432 208 b 431 226 433 226 432 226 z m 492 472 b 454 515 469 482 463 499 b 432 557 447 531 440 544 b 364 569 411 588 396 590 b 356 563 361 567 358 565 b 294 492 332 542 311 518 b 225 343 267 444 243 394 b 182 139 201 276 189 208 b 181 76 179 118 175 97 b 186 63 182 71 179 64 b 199 71 192 60 194 67 b 275 165 228 99 251 132 b 422 390 325 239 374 314 b 492 472 440 419 457 450 z "},"b":{"ha":863,"x_min":0,"x_max":0,"o":"m 307 653 b 346 669 321 658 333 665 b 486 685 392 686 439 689 b 600 650 526 681 564 671 b 675 544 640 625 667 592 b 664 357 688 481 683 418 b 639 289 657 333 649 311 b 636 282 639 286 638 285 b 643 274 633 274 635 272 b 692 283 660 276 675 279 b 860 328 749 294 804 307 b 904 335 874 333 889 336 b 929 321 914 333 925 332 b 917 296 933 310 924 303 b 878 276 904 288 892 282 b 724 233 828 257 776 244 b 611 211 686 225 649 218 b 592 199 603 210 596 206 b 511 92 567 161 540 125 b 378 -14 474 47 432 10 b 163 -36 308 -44 238 -54 b 15 88 93 -19 46 25 b -8 183 1 118 -6 150 b 29 489 -18 288 1 389 b 124 768 57 583 88 676 b 199 976 149 838 172 907 b 279 1185 225 1046 251 1115 b 326 1279 292 1218 308 1249 b 393 1325 342 1304 364 1319 b 468 1322 418 1329 443 1329 b 490 1314 476 1321 483 1318 b 517 1264 513 1303 519 1289 b 504 1207 514 1244 510 1226 b 442 1031 485 1147 463 1089 b 333 732 406 931 369 832 b 311 669 326 711 318 690 b 307 653 310 665 307 660 z m 221 354 b 218 346 218 351 218 349 b 201 233 210 308 204 271 b 217 111 199 192 203 150 b 242 67 221 94 231 79 b 260 63 247 60 253 58 b 290 81 271 68 281 74 b 403 204 338 113 374 156 b 394 226 415 224 413 221 b 226 350 325 250 267 288 b 221 354 225 351 225 354 z m 486 474 b 483 526 488 489 485 508 b 464 574 482 544 475 560 b 440 576 456 583 451 585 b 419 554 432 569 425 563 b 389 481 404 532 396 507 b 386 418 383 460 382 439 b 428 333 392 386 407 358 b 447 315 433 328 440 321 b 460 319 454 310 456 311 b 461 324 461 321 461 322 b 486 474 479 371 488 419 z "},"c":{"ha":751,"x_min":0,"x_max":0,"o":"m 214 -39 b 133 -31 188 -40 160 -37 b -8 104 61 -12 15 33 b -8 303 -29 171 -28 236 b 156 569 22 406 76 496 b 368 672 215 625 286 660 b 504 669 414 679 458 681 b 604 600 546 658 579 636 b 625 526 618 578 625 554 b 564 382 625 469 604 421 b 421 353 524 343 474 336 b 403 363 414 354 408 358 b 393 404 388 374 385 388 b 411 428 397 413 404 419 b 436 551 440 465 446 507 b 414 561 432 571 429 571 b 317 475 376 538 343 510 b 196 215 258 397 217 311 b 192 103 189 178 185 140 b 210 54 194 86 200 69 b 243 35 218 42 228 36 b 364 64 286 33 326 46 b 482 135 406 85 444 108 b 722 315 563 194 642 256 b 779 344 739 329 757 340 b 803 344 788 346 796 347 b 815 315 817 340 822 329 b 799 294 811 307 806 300 b 690 203 764 263 728 233 b 485 51 625 149 556 99 b 253 -39 415 3 339 -31 b 214 -39 240 -40 228 -39 z "},"d":{"ha":847,"x_min":0,"x_max":0,"o":"m 596 54 b 665 124 624 76 646 99 b 838 324 722 192 778 258 b 867 350 846 333 856 343 b 894 360 875 356 885 360 b 919 332 911 361 922 349 b 907 307 917 322 913 315 b 826 203 881 271 853 238 b 678 24 776 143 728 83 b 599 -33 657 -1 631 -24 b 464 -17 551 -50 506 -47 b 431 26 449 -6 439 10 b 410 167 411 71 404 118 b 415 207 411 179 411 192 b 403 193 408 201 406 197 b 306 57 371 147 339 101 b 242 -6 288 32 267 11 b 153 -33 214 -24 185 -32 b 63 -19 122 -35 92 -32 b -3 35 35 -7 14 11 b -35 182 -32 81 -39 129 b 38 436 -28 271 -1 356 b 89 515 51 465 69 490 b 169 604 114 547 139 578 b 317 668 213 640 261 660 b 443 667 358 675 401 675 b 515 635 469 661 494 653 b 519 633 517 635 518 635 b 526 650 525 638 525 644 b 578 821 543 707 560 764 b 651 1010 599 886 628 947 b 719 1163 671 1063 694 1113 b 767 1251 733 1193 750 1222 b 792 1285 774 1264 782 1274 b 828 1307 801 1294 814 1303 b 921 1306 858 1317 890 1317 b 958 1243 951 1294 964 1275 b 947 1193 956 1226 951 1210 b 885 1033 929 1138 906 1086 b 783 758 847 943 814 851 b 653 349 738 622 694 486 b 613 200 638 300 622 250 b 596 81 604 160 599 121 b 596 54 596 74 596 65 z m 172 94 b 176 68 172 88 174 78 b 186 64 178 61 181 60 b 193 69 189 65 190 68 b 242 126 210 88 226 106 b 372 319 286 189 329 254 b 474 464 404 368 429 424 b 475 478 478 468 481 474 b 444 526 458 490 453 510 b 425 560 439 538 432 549 b 361 571 406 588 390 590 b 351 563 358 568 354 565 b 289 490 326 542 306 518 b 208 306 254 432 226 369 b 172 94 188 238 176 168 z "},"e":{"ha":757,"x_min":0,"x_max":0,"o":"m 188 163 b 200 85 186 138 190 111 b 214 54 203 74 208 64 b 257 35 225 39 238 32 b 357 67 292 40 325 53 b 560 189 431 99 497 139 b 739 331 619 236 681 282 b 788 353 753 342 768 351 b 804 353 793 354 799 354 b 815 325 817 347 821 338 b 801 306 813 318 807 311 b 701 218 769 274 736 246 b 440 28 617 151 531 88 b 278 -40 392 -7 338 -29 b 82 -8 208 -54 143 -46 b -6 96 42 17 13 51 b -25 200 -18 129 -25 164 b -11 299 -25 233 -21 267 b 118 533 14 388 57 465 b 253 640 157 576 201 613 b 396 685 297 664 344 679 b 511 678 435 689 474 688 b 590 642 540 671 568 663 b 633 556 617 619 633 592 b 624 497 633 535 631 517 b 565 381 611 454 592 415 b 328 244 504 301 426 256 b 206 243 288 240 246 238 b 193 233 197 244 194 240 b 188 163 190 211 188 189 z m 439 543 b 436 561 438 549 436 556 b 426 567 435 568 431 569 b 417 564 422 567 419 565 b 346 514 390 550 367 533 b 253 392 308 478 278 436 b 225 333 242 372 232 353 b 232 324 221 325 222 322 b 265 329 243 325 254 328 b 344 369 296 335 322 347 b 429 492 381 404 411 444 b 439 543 435 508 436 525 z "},"f":{"ha":463,"x_min":0,"x_max":0,"o":"m -174 -328 b -157 -175 -175 -276 -167 -226 b -85 89 -142 -85 -115 3 b 10 344 -56 174 -25 260 b 92 528 35 406 64 467 b 172 699 117 585 144 642 b 235 807 192 736 213 772 b 306 854 251 833 276 849 b 379 851 331 858 356 858 b 407 839 389 849 399 844 b 424 793 424 828 429 814 b 401 726 418 771 410 749 b 310 503 371 651 340 578 b 222 286 281 431 251 358 b 193 208 213 261 203 235 b 190 201 192 207 192 204 b 199 194 189 194 192 193 b 218 200 206 196 211 197 b 357 265 268 215 313 239 b 443 326 388 283 417 303 b 494 354 458 339 474 350 b 525 346 506 356 518 357 b 521 313 533 335 528 324 b 454 251 503 288 479 269 b 328 176 414 222 371 200 b 242 138 300 163 272 147 b 239 122 231 133 229 132 b 279 53 258 103 271 79 b 303 -74 294 13 300 -29 b 279 -268 307 -139 296 -204 b 249 -369 271 -301 264 -336 b 157 -503 224 -418 196 -464 b 57 -556 128 -529 96 -550 b -121 -501 -10 -565 -72 -553 b -171 -392 -150 -471 -162 -432 b -174 -328 -174 -371 -174 -349 z m 143 56 b 136 42 138 51 138 46 b 96 -82 122 0 108 -40 b 31 -381 67 -179 40 -278 b 36 -447 28 -403 32 -425 b 49 -451 39 -458 42 -458 b 106 -374 72 -429 92 -403 b 146 -260 121 -336 135 -299 b 171 -122 158 -214 164 -168 b 154 31 178 -69 171 -19 b 143 56 151 39 149 49 z "},"g":{"ha":865,"x_min":0,"x_max":0,"o":"m 558 593 b 568 608 565 599 565 604 b 672 678 586 656 622 676 b 735 669 693 679 714 678 b 746 665 738 668 742 668 b 775 610 771 654 779 638 b 753 524 769 581 763 551 b 675 310 731 451 703 381 b 649 238 667 286 658 261 b 649 228 649 235 646 232 b 661 235 653 228 657 232 b 843 339 721 269 781 307 b 893 357 858 347 875 354 b 921 354 903 358 911 357 b 928 328 933 349 936 339 b 907 311 922 321 915 315 b 646 151 821 256 733 204 b 597 94 611 132 611 132 b 504 -176 564 6 535 -86 b 414 -418 476 -258 447 -339 b 371 -492 403 -444 390 -469 b 169 -536 318 -557 232 -564 b 97 -475 139 -522 115 -503 b 36 -349 71 -435 49 -394 b 67 -183 19 -289 31 -233 b 147 -99 90 -151 118 -124 b 343 46 208 -44 276 1 b 361 68 351 51 358 58 b 390 154 371 97 381 125 b 394 167 392 158 394 163 b 386 158 389 165 388 161 b 333 83 368 133 350 108 b 274 14 315 58 296 36 b 51 -10 210 -49 108 -44 b -15 75 18 10 -1 40 b -28 139 -24 94 -26 117 b -4 308 -31 197 -21 253 b 42 432 8 351 22 393 b 118 544 63 474 90 508 b 188 613 139 569 161 593 b 321 668 228 643 272 661 b 461 664 368 676 415 675 b 556 597 501 654 533 633 b 558 593 556 596 557 596 z m 492 471 b 464 499 479 479 471 488 b 450 526 460 508 454 518 b 424 571 443 543 433 557 b 386 581 413 585 400 585 b 360 564 376 576 367 571 b 296 492 336 543 313 519 b 208 282 257 426 228 356 b 181 124 194 229 186 178 b 182 74 179 107 179 90 b 186 63 182 69 182 64 b 197 68 192 60 194 65 b 251 131 217 88 235 108 b 413 374 307 210 360 292 b 492 471 435 408 454 447 z m 314 -85 b 303 -89 307 -85 306 -87 b 267 -121 292 -100 279 -110 b 182 -212 236 -150 206 -178 b 169 -351 151 -257 150 -303 b 207 -419 179 -375 193 -397 b 217 -428 208 -422 210 -428 b 314 -85 251 -315 281 -200 z "},"h":{"ha":811,"x_min":0,"x_max":0,"o":"m 261 453 b 310 511 278 472 293 493 b 478 671 361 569 414 625 b 579 715 508 693 540 710 b 667 706 608 719 638 717 b 718 617 700 692 722 667 b 675 449 713 558 694 503 b 592 186 643 363 611 276 b 564 63 582 144 574 104 b 564 44 563 57 561 51 b 583 60 572 47 578 54 b 647 129 606 82 626 106 b 792 296 696 185 743 240 b 828 336 803 310 814 324 b 861 353 838 344 849 350 b 883 329 878 357 889 346 b 868 301 881 319 874 310 b 744 147 829 249 786 199 b 636 21 708 106 671 64 b 588 -25 622 3 607 -12 b 424 -7 538 -58 464 -50 b 408 15 418 0 413 7 b 383 113 393 46 385 78 b 438 415 382 218 401 318 b 474 513 449 449 461 481 b 476 531 475 518 479 524 b 464 521 471 529 467 524 b 297 333 404 463 347 400 b 147 111 243 263 193 188 b 122 69 139 97 131 83 b 97 17 111 53 103 36 b 42 -32 89 -11 67 -24 b -56 -31 10 -43 -24 -42 b -75 -21 -62 -28 -68 -25 b -94 31 -93 -10 -101 10 b -61 136 -82 65 -74 101 b 44 454 -26 242 8 349 b 250 1039 113 650 181 844 b 321 1235 274 1104 297 1169 b 329 1257 324 1242 326 1250 b 368 1296 336 1276 349 1289 b 497 1296 411 1313 454 1314 b 513 1288 503 1293 508 1290 b 529 1242 528 1276 536 1261 b 514 1196 524 1226 519 1211 b 340 689 457 1026 399 858 b 264 468 315 615 289 542 b 258 454 261 464 260 460 b 261 453 260 454 260 454 z "},"i":{"ha":403,"x_min":0,"x_max":0,"o":"m -24 124 b -1 321 -22 189 -19 257 b 44 463 13 368 26 417 b 125 613 65 515 93 565 b 147 633 132 621 139 628 b 278 642 189 658 233 663 b 306 588 303 631 310 614 b 289 532 303 568 296 550 b 242 414 274 492 258 453 b 221 351 235 394 226 374 b 171 197 207 299 186 249 b 147 32 156 143 144 89 b 153 13 149 25 146 17 b 169 22 160 10 165 18 b 233 90 193 43 215 65 b 386 292 285 157 335 225 b 417 328 396 304 406 317 b 451 346 426 338 439 343 b 476 342 461 349 469 349 b 478 315 483 333 482 325 b 465 292 475 307 469 299 b 335 113 425 229 379 171 b 258 10 310 79 283 44 b 221 -28 247 -4 235 -17 b 81 -54 179 -60 131 -68 b -18 51 26 -40 -4 -1 b -24 81 -21 61 -24 71 b -24 124 -25 94 -24 108 z m 200 794 b 211 854 200 817 204 836 b 290 1007 229 910 256 960 b 426 1039 324 1053 376 1065 b 443 1028 432 1036 438 1032 b 451 1000 450 1019 453 1011 b 433 951 447 983 440 968 b 375 814 413 907 393 861 b 338 742 365 789 353 765 b 311 722 332 732 324 725 b 228 731 282 713 254 717 b 204 760 215 736 207 746 b 200 794 203 772 200 785 z "},"j":{"ha":399,"x_min":0,"x_max":0,"o":"m 190 214 b 211 226 197 218 204 222 b 386 326 269 260 326 296 b 433 343 401 335 417 340 b 463 339 443 344 453 343 b 468 314 474 335 476 325 b 447 296 463 307 456 301 b 267 186 388 258 328 222 b 169 129 235 167 203 147 b 146 99 158 121 150 113 b 44 -190 108 4 78 -93 b -46 -432 17 -271 -11 -353 b -89 -507 -57 -458 -69 -485 b -289 -550 -142 -571 -226 -578 b -362 -489 -319 -537 -344 -517 b -414 -393 -382 -458 -400 -428 b -381 -182 -443 -317 -433 -246 b -260 -69 -346 -139 -304 -103 b -114 33 -212 -33 -164 1 b -97 56 -106 39 -101 46 b 51 457 -51 190 0 324 b 108 593 69 503 89 547 b 132 632 114 607 122 619 b 200 663 150 651 175 660 b 276 656 226 667 251 665 b 288 651 279 654 283 653 b 315 596 311 639 321 622 b 293 508 310 567 303 538 b 215 293 271 436 243 364 b 188 215 206 267 197 242 b 190 214 189 215 189 214 z m -147 -97 b -192 -135 -165 -108 -178 -122 b -279 -231 -224 -164 -256 -193 b -303 -306 -294 -253 -303 -278 b -299 -342 -303 -318 -301 -331 b -246 -443 -287 -379 -268 -411 b -147 -97 -237 -429 -149 -115 z m 206 803 b 215 857 206 822 210 840 b 300 1018 235 915 263 969 b 438 1042 333 1061 392 1071 b 454 999 456 1031 461 1019 b 428 932 449 975 439 954 b 386 835 414 900 400 868 b 344 749 375 804 361 776 b 317 726 338 738 329 731 b 233 735 288 718 260 722 b 210 765 221 742 213 751 b 206 803 208 778 206 790 z "},"k":{"ha":797,"x_min":0,"x_max":0,"o":"m 267 310 b 233 274 254 300 244 286 b 160 189 210 244 186 215 b 149 169 156 183 151 176 b 113 76 138 139 128 107 b 75 -1 100 51 90 24 b 33 -33 65 -18 51 -28 b -54 -33 4 -43 -25 -43 b -78 -21 -64 -31 -71 -26 b -92 6 -87 -14 -92 -6 b -89 40 -93 18 -92 29 b 1 328 -65 139 -31 232 b 119 665 40 440 81 553 b 276 1119 174 817 226 968 b 322 1242 290 1161 306 1201 b 401 1301 336 1279 364 1296 b 483 1294 429 1306 456 1304 b 500 1288 489 1293 494 1290 b 524 1238 522 1275 528 1263 b 507 1176 519 1217 514 1196 b 310 621 440 992 374 807 b 250 450 289 564 269 508 b 249 438 249 446 246 443 b 258 446 253 439 256 443 b 375 560 294 486 335 522 b 454 628 400 583 425 607 b 556 689 485 653 518 674 b 678 696 596 706 636 708 b 739 592 728 681 750 643 b 694 493 732 556 715 524 b 535 365 656 433 600 393 b 499 350 524 360 511 356 b 489 335 490 347 488 343 b 496 258 492 310 493 283 b 507 142 501 219 504 181 b 514 69 508 118 511 94 b 524 36 515 58 519 47 b 536 33 526 31 531 29 b 579 67 551 43 565 54 b 643 136 601 89 622 113 b 796 311 696 193 744 253 b 846 339 808 326 825 339 b 867 306 869 340 879 326 b 826 249 856 285 840 267 b 678 72 779 188 729 129 b 619 6 657 50 640 26 b 421 -12 561 -50 475 -50 b 364 43 399 3 379 21 b 269 283 315 117 282 196 b 269 297 269 288 269 292 b 267 310 268 301 269 306 z m 388 436 b 515 547 444 456 485 497 b 388 436 468 515 426 476 z "},"l":{"ha":401,"x_min":0,"x_max":0,"o":"m 153 42 b 183 68 165 50 175 60 b 251 146 208 92 229 119 b 393 310 297 201 344 256 b 421 335 401 319 410 328 b 449 346 429 340 439 344 b 475 318 467 349 479 335 b 463 293 472 308 468 300 b 382 189 436 257 410 222 b 235 10 333 129 285 69 b 154 -49 214 -15 188 -37 b 21 -32 107 -64 63 -61 b -12 11 4 -21 -6 -6 b -35 151 -33 56 -39 103 b 10 368 -28 225 -11 297 b 56 540 28 425 39 483 b 142 828 82 636 108 733 b 208 999 161 886 186 942 b 274 1147 228 1050 250 1099 b 322 1238 289 1178 306 1208 b 347 1271 329 1249 338 1260 b 383 1293 358 1281 369 1289 b 478 1292 415 1303 447 1303 b 515 1231 507 1281 519 1261 b 501 1178 513 1213 507 1194 b 439 1015 485 1121 461 1068 b 342 753 403 928 371 840 b 201 310 293 606 246 458 b 160 136 183 253 168 194 b 153 63 156 111 154 86 b 153 42 151 56 151 50 z "},"m":{"ha":1107,"x_min":0,"x_max":0,"o":"m 788 517 b 769 501 782 513 775 507 b 686 407 739 474 713 440 b 529 186 629 336 578 261 b 490 99 511 158 500 129 b 458 28 482 74 471 51 b 411 -8 449 8 432 -3 b 338 -7 386 -15 363 -14 b 321 1 332 -4 326 -1 b 299 39 307 10 299 22 b 306 96 299 58 301 76 b 367 319 324 171 342 246 b 393 394 375 344 385 369 b 399 410 396 399 397 404 b 390 403 394 408 393 406 b 204 142 329 315 267 229 b 136 43 181 108 158 76 b 83 -32 119 18 100 -7 b 49 -56 75 -44 63 -51 b -37 -51 19 -64 -10 -62 b -71 -7 -58 -43 -69 -29 b -65 96 -72 28 -72 63 b -14 282 -50 158 -35 221 b 56 496 10 353 32 425 b 99 607 68 533 83 571 b 107 626 101 614 104 619 b 147 664 115 644 129 657 b 281 664 192 681 236 681 b 301 651 288 661 294 657 b 318 611 314 640 321 628 b 311 581 318 600 314 590 b 264 451 296 538 281 494 b 260 435 263 446 260 442 b 274 450 267 439 269 444 b 425 622 321 511 372 568 b 471 661 439 638 454 650 b 529 685 489 675 508 682 b 613 676 558 689 586 686 b 658 610 646 664 658 644 b 654 557 658 592 656 575 b 665 564 660 557 663 561 b 778 654 700 599 736 628 b 861 688 803 671 831 685 b 953 678 893 692 924 690 b 1004 600 988 663 1003 636 b 988 508 1006 568 997 538 b 933 318 968 444 949 382 b 888 113 915 250 899 182 b 886 50 885 92 886 71 b 900 58 893 50 896 56 b 994 167 933 93 964 129 b 1104 304 1032 213 1068 258 b 1146 336 1117 318 1129 331 b 1176 332 1157 339 1168 343 b 1174 303 1183 322 1179 313 b 1126 238 1158 282 1143 260 b 996 68 1085 181 1039 125 b 933 -14 975 42 956 13 b 867 -57 915 -35 894 -51 b 758 -32 828 -62 790 -58 b 726 14 744 -19 733 -4 b 713 64 719 31 715 47 b 714 193 706 107 708 150 b 779 483 728 292 749 389 b 789 515 782 494 786 504 b 788 517 789 515 788 517 z "},"n":{"ha":826,"x_min":0,"x_max":0,"o":"m 249 411 b 254 415 251 411 253 414 b 397 572 299 471 347 522 b 550 669 442 615 492 650 b 672 674 590 683 632 686 b 719 649 690 669 706 661 b 738 594 735 635 739 615 b 718 500 736 563 728 531 b 658 349 701 447 679 399 b 593 185 636 294 614 240 b 561 64 578 146 568 106 b 560 39 560 56 558 47 b 574 44 567 38 569 42 b 646 114 599 65 622 89 b 803 293 699 174 750 233 b 843 331 814 307 826 321 b 878 342 854 336 865 342 b 894 318 893 342 900 333 b 881 294 892 310 886 301 b 750 138 839 242 796 189 b 649 19 715 99 681 60 b 594 -33 632 0 615 -18 b 442 -29 550 -64 485 -64 b 392 69 411 -4 394 29 b 421 257 390 133 401 196 b 496 469 444 328 467 400 b 513 515 503 483 507 500 b 515 528 514 519 517 522 b 504 522 510 529 507 524 b 338 339 443 465 389 404 b 150 88 274 257 213 172 b 89 1 129 60 108 31 b -29 -40 57 -44 10 -49 b -78 29 -64 -32 -81 -8 b -46 183 -74 82 -62 133 b 85 558 -7 310 36 435 b 117 631 94 582 106 607 b 147 661 124 644 133 656 b 292 661 196 683 243 683 b 308 650 299 658 304 654 b 321 617 318 640 322 629 b 301 551 318 593 310 572 b 249 417 283 507 268 460 b 249 411 247 414 246 413 z "},"o":{"ha":876,"x_min":0,"x_max":0,"o":"m -15 206 b 58 481 -14 308 10 399 b 117 551 75 507 93 532 b 218 586 147 575 181 588 b 240 596 228 586 235 589 b 403 688 281 651 338 678 b 542 674 450 694 497 692 b 643 543 600 649 632 604 b 638 386 653 490 650 438 b 604 271 628 347 618 308 b 601 265 603 269 603 268 b 607 258 600 260 603 258 b 632 261 615 258 624 260 b 818 307 696 271 758 285 b 878 331 839 315 858 324 b 915 340 890 336 903 338 b 935 339 921 340 928 340 b 946 310 949 335 954 324 b 914 281 939 297 928 288 b 865 257 899 272 882 264 b 663 204 800 231 732 215 b 579 192 635 199 607 196 b 564 182 572 190 567 188 b 471 53 539 135 507 92 b 303 -58 424 3 369 -39 b 76 -19 221 -81 144 -69 b 8 76 43 6 24 39 b -15 206 -8 121 -14 167 z m 207 325 b 200 263 203 301 201 282 b 218 104 197 208 204 157 b 242 42 224 83 231 61 b 261 36 249 31 250 31 b 367 126 303 58 338 90 b 406 182 381 144 394 163 b 401 194 410 190 410 192 b 375 200 393 196 385 197 b 236 286 322 217 275 243 b 207 325 226 297 218 310 z m 376 403 b 376 390 376 399 376 394 b 406 303 378 358 388 329 b 440 274 415 290 426 281 b 453 278 446 269 450 271 b 460 297 454 283 457 290 b 483 388 469 326 476 357 b 489 496 489 422 494 458 b 468 565 485 519 481 543 b 454 583 465 572 460 578 b 442 583 450 588 446 588 b 429 571 438 579 433 575 b 376 403 393 521 381 463 z "},"p":{"ha":754,"x_min":0,"x_max":0,"o":"m 269 485 b 300 521 281 499 290 510 b 404 628 332 560 367 596 b 517 674 436 656 474 669 b 601 665 546 676 574 674 b 697 561 653 649 685 613 b 696 426 710 515 707 471 b 611 190 676 344 650 264 b 464 10 574 121 526 58 b 263 -56 406 -35 339 -60 b 207 -46 244 -54 225 -51 b 164 -19 190 -39 176 -32 b 131 14 153 -8 142 3 b 121 21 128 17 126 21 b 114 7 117 17 117 11 b 56 -185 94 -57 75 -121 b -36 -440 28 -271 -3 -357 b -69 -499 -44 -461 -56 -481 b -101 -524 -78 -510 -87 -519 b -210 -525 -136 -539 -174 -539 b -246 -474 -233 -517 -246 -500 b -237 -418 -244 -456 -242 -436 b -185 -235 -222 -357 -203 -296 b -99 21 -158 -149 -126 -65 b -4 308 -68 117 -33 211 b 97 601 26 407 63 504 b 110 633 101 613 106 624 b 138 663 115 647 125 657 b 275 665 183 685 229 685 b 296 650 283 663 289 657 b 304 621 303 642 307 632 b 290 565 301 601 296 583 b 269 497 283 542 276 519 b 269 485 269 494 268 492 z m 471 539 b 457 532 463 539 460 535 b 350 406 414 496 379 453 b 233 229 311 347 274 288 b 183 165 218 207 203 185 b 182 154 179 163 176 158 b 199 128 190 146 193 136 b 264 47 215 96 238 69 b 281 46 271 42 275 42 b 310 72 292 54 301 63 b 399 218 346 115 376 164 b 471 500 435 308 461 403 b 471 539 471 513 472 525 z "},"q":{"ha":875,"x_min":0,"x_max":0,"o":"m 557 592 b 567 606 564 596 565 601 b 596 660 576 624 586 642 b 638 693 604 676 619 688 b 740 689 672 706 707 704 b 769 632 767 676 775 660 b 744 549 764 604 754 576 b 632 278 708 458 668 369 b 590 174 618 243 604 208 b 586 160 589 169 586 165 b 600 167 593 158 596 164 b 718 250 640 194 679 222 b 864 346 765 285 814 317 b 917 365 881 356 899 363 b 938 364 924 367 931 365 b 946 343 947 360 951 353 b 924 321 940 333 932 326 b 838 260 894 300 867 281 b 658 126 778 217 717 174 b 558 40 625 99 590 72 b 543 19 553 35 547 28 b 544 -3 539 11 539 4 b 563 -22 550 -8 557 -15 b 611 -106 588 -44 601 -74 b 610 -199 622 -136 617 -168 b 568 -287 603 -231 588 -260 b 460 -439 535 -340 499 -390 b 394 -501 440 -462 419 -483 b 258 -517 353 -533 307 -536 b 214 -461 235 -507 221 -486 b 210 -387 207 -437 207 -412 b 257 -181 215 -317 235 -249 b 360 119 289 -81 324 19 b 363 129 361 122 364 125 b 335 92 351 117 344 104 b 263 8 315 61 292 32 b 35 0 201 -44 97 -49 b -26 103 1 26 -17 63 b -28 217 -35 140 -33 178 b 38 429 -17 290 7 361 b 90 513 51 460 71 486 b 160 593 113 540 135 568 b 340 672 211 642 272 665 b 463 664 382 676 422 674 b 554 596 503 654 533 632 b 557 592 554 594 556 593 z m 489 472 b 454 514 471 483 463 499 b 444 535 451 521 447 528 b 414 576 438 551 426 565 b 386 582 406 585 396 586 b 360 568 376 578 368 574 b 297 497 336 547 314 525 b 200 263 251 425 219 346 b 178 115 189 214 182 164 b 179 71 176 100 176 85 b 192 67 182 61 183 60 b 249 132 213 88 232 108 b 407 368 304 210 356 289 b 489 472 431 406 449 446 z m 486 -96 b 479 -110 481 -100 481 -106 b 438 -212 465 -144 451 -178 b 376 -374 417 -267 394 -319 b 371 -399 374 -382 371 -389 b 378 -392 374 -396 376 -393 b 472 -269 411 -353 446 -314 b 506 -181 489 -243 501 -212 b 486 -96 510 -150 500 -124 z "},"r":{"ha":693,"x_min":0,"x_max":0,"o":"m 310 597 b 342 614 322 603 332 608 b 485 656 386 638 433 654 b 642 603 543 658 599 646 b 681 493 672 574 686 535 b 611 365 674 442 646 400 b 596 351 606 360 600 356 b 447 329 550 313 500 310 b 424 346 438 332 429 338 b 422 383 413 358 413 369 b 431 393 425 388 428 390 b 457 449 446 408 454 428 b 468 525 463 474 467 499 b 467 542 468 531 468 536 b 457 547 465 547 463 549 b 432 535 449 543 440 539 b 356 486 406 521 381 506 b 249 400 319 458 285 429 b 231 374 240 393 235 383 b 132 110 200 289 164 207 b 86 -12 114 46 99 17 b 1 -65 69 -50 40 -65 b -51 -57 -17 -64 -35 -64 b -69 -50 -57 -56 -64 -53 b -96 13 -94 -36 -104 -17 b -46 188 -82 60 -60 140 b 43 467 -19 290 11 379 b 100 611 60 515 78 564 b 124 650 107 625 114 639 b 165 679 135 665 149 674 b 276 669 204 689 240 686 b 296 656 283 665 290 661 b 311 621 306 646 311 635 b 310 597 310 614 308 607 z "},"s":{"ha":664,"x_min":0,"x_max":0,"o":"m 329 676 b 464 640 376 678 422 667 b 525 550 497 619 518 589 b 524 481 529 528 529 504 b 417 342 510 418 475 371 b 318 333 385 326 351 326 b 292 344 308 335 300 339 b 286 388 275 357 272 372 b 314 425 297 399 306 411 b 338 490 328 444 335 467 b 325 561 342 515 335 539 b 313 565 322 568 318 568 b 257 518 290 554 272 538 b 204 392 228 481 211 438 b 233 214 194 329 210 271 b 281 118 249 182 264 150 b 301 113 286 104 288 104 b 586 279 397 167 490 224 b 649 317 607 292 628 304 b 694 335 663 325 678 331 b 721 336 703 338 713 338 b 733 307 738 333 743 321 b 711 286 728 299 719 292 b 607 219 676 263 642 242 b 346 65 521 165 433 117 b 324 51 339 61 332 56 b 319 33 317 47 315 42 b 342 -28 328 14 335 -7 b 361 -153 354 -68 360 -110 b 219 -357 363 -246 300 -326 b -10 -343 142 -386 64 -378 b -82 -269 -42 -328 -67 -303 b -81 -178 -97 -239 -96 -208 b -24 -107 -65 -150 -46 -128 b 117 1 19 -67 68 -33 b 121 22 128 10 128 10 b 47 168 96 69 72 119 b -6 343 19 224 1 282 b 35 517 -14 407 3 464 b 265 671 89 604 169 650 b 297 676 276 674 286 675 b 329 676 308 678 318 676 z m 185 -167 b 182 -125 186 -151 185 -139 b 164 -71 178 -107 172 -87 b 154 -67 163 -64 160 -62 b 146 -72 151 -69 149 -71 b 57 -156 114 -97 85 -126 b 35 -189 47 -165 40 -176 b 26 -215 31 -197 26 -206 b 108 -297 22 -254 57 -297 b 125 -290 114 -297 121 -294 b 181 -210 151 -269 175 -246 b 185 -167 183 -196 186 -181 z "},"t":{"ha":410,"x_min":0,"x_max":0,"o":"m 153 42 b 169 51 161 43 165 47 b 258 151 203 82 231 117 b 385 297 300 201 342 250 b 418 331 396 308 406 321 b 451 343 428 338 439 343 b 475 315 468 344 479 332 b 460 286 472 304 467 294 b 386 192 436 254 411 224 b 244 18 340 133 290 76 b 167 -46 224 -8 199 -32 b 44 -49 126 -64 86 -65 b -8 1 21 -39 4 -22 b -35 149 -32 47 -39 97 b 15 382 -26 229 -8 306 b 53 529 31 431 39 481 b 146 850 100 694 124 772 b 132 865 151 868 151 865 b -561 819 -457 856 -510 840 b -617 789 -581 811 -600 801 b -618 772 -626 782 -626 781 b -619 749 -608 763 -610 757 b -654 738 -629 740 -642 738 b -749 785 -692 742 -724 757 b -758 861 -771 810 -774 833 b -707 917 -746 885 -728 901 b -603 965 -675 939 -639 954 b -447 990 -551 979 -500 986 b 181 992 -417 992 -386 992 b 203 1007 192 992 199 994 b 294 1192 217 1040 294 1192 b 326 1235 303 1207 314 1222 b 363 1257 338 1246 349 1253 b 454 1254 393 1265 425 1265 b 492 1194 485 1244 496 1225 b 465 1103 488 1163 478 1132 l 436 1028 b 425 1000 432 1018 428 1008 b 436 982 419 985 419 983 b 476 978 450 981 463 978 b 1099 950 985 979 1043 969 b 1171 911 1124 940 1149 928 b 1197 882 1181 903 1190 893 b 1171 835 1211 857 1200 836 b 1131 843 1157 833 1143 836 b 1008 875 1093 867 1050 869 b 406 878 507 872 456 875 b 374 857 378 879 382 881 b 207 325 324 708 253 474 b 165 168 192 272 175 221 b 153 67 160 133 156 100 b 153 42 151 58 151 50 z "},"u":{"ha":840,"x_min":0,"x_max":0,"o":"m 579 61 b 593 72 586 64 590 68 b 758 244 650 128 703 188 b 835 319 783 271 807 297 b 876 343 847 331 861 339 b 888 344 881 343 883 344 b 908 319 903 346 913 335 b 896 297 906 311 901 304 b 865 261 886 286 876 274 b 665 47 800 189 735 117 b 599 -18 643 26 624 3 b 531 -47 579 -33 557 -44 b 418 10 485 -53 440 -31 b 397 89 404 35 399 61 b 401 160 396 113 399 136 b 401 174 403 164 404 169 b 392 165 396 174 394 169 b 324 88 368 140 346 114 b 200 -24 286 46 247 7 b 61 -42 157 -51 110 -56 b -15 31 24 -31 -1 -6 b -33 114 -25 58 -29 86 b -22 238 -37 157 -31 197 b 46 451 -7 311 18 382 b 110 610 68 504 89 557 b 121 633 113 618 118 625 b 208 697 138 672 168 692 b 276 696 232 700 254 700 b 313 682 289 693 301 689 b 340 624 338 669 346 650 b 308 521 332 589 321 554 b 238 344 285 461 260 404 b 169 117 210 269 185 194 b 164 82 167 106 164 94 b 176 92 171 83 174 88 b 392 332 253 168 321 250 b 471 421 418 361 444 392 b 486 446 478 429 483 438 b 567 633 510 511 539 572 b 657 699 585 674 615 693 b 746 690 688 703 717 700 b 764 681 751 688 758 685 b 785 628 786 667 792 653 b 750 521 776 592 765 556 b 622 199 706 414 661 307 b 583 76 607 158 594 118 b 579 61 582 72 581 68 z "},"v":{"ha":842,"x_min":0,"x_max":0,"o":"m 254 21 b 275 40 264 26 269 33 b 450 296 343 119 403 204 b 442 322 460 317 458 314 b 372 371 417 336 393 351 b 322 482 340 401 322 438 b 419 653 324 556 354 614 b 475 671 436 664 456 668 b 564 668 504 675 535 675 b 658 554 622 654 656 614 b 631 361 661 488 651 424 b 624 342 628 354 626 347 b 629 331 621 335 624 332 b 647 328 636 329 642 329 b 811 342 703 321 757 324 b 875 353 832 349 853 354 b 893 350 881 353 888 353 b 901 329 903 346 906 339 b 888 313 899 322 893 317 b 813 282 865 296 839 289 b 721 269 782 274 751 269 b 607 275 682 268 644 268 b 588 264 597 276 592 272 b 539 179 572 236 557 207 b 406 -1 500 115 454 56 b 350 -54 389 -21 371 -39 b 240 -92 318 -78 281 -92 b 176 -87 218 -93 197 -92 b 51 8 119 -76 78 -43 b 14 108 33 40 24 74 b -1 347 -7 188 -6 268 b 22 515 0 404 11 460 b 54 607 29 547 40 578 b 99 647 64 626 79 640 b 229 647 143 664 186 664 b 246 640 235 646 240 643 b 272 585 267 628 275 610 b 267 544 271 571 269 558 b 253 392 260 493 256 443 b 243 303 251 361 247 332 b 238 246 240 283 238 265 b 236 186 238 226 238 206 b 239 131 233 168 236 149 b 250 35 242 99 246 67 b 254 21 250 31 250 26 z m 496 414 b 504 447 501 425 501 436 b 513 536 510 476 514 506 b 507 563 511 546 510 554 b 499 563 504 567 501 567 b 494 556 497 560 496 558 b 479 460 479 525 475 493 b 496 414 481 444 485 429 z "},"w":{"ha":1194,"x_min":0,"x_max":0,"o":"m 372 135 b 310 53 350 106 329 79 b 251 -26 290 26 271 0 b 233 -47 246 -33 239 -40 b 13 -37 175 -111 63 -99 b -31 61 -11 -8 -25 25 b -29 196 -37 107 -36 151 b 69 538 -12 314 24 428 b 108 613 81 564 92 589 b 171 656 124 635 144 649 b 263 654 201 664 232 663 b 297 638 275 651 286 646 b 311 601 308 628 314 617 b 304 575 310 593 307 583 b 244 363 286 503 264 433 b 179 78 218 269 194 175 b 175 49 178 68 176 58 b 174 22 175 42 175 33 b 200 50 185 32 193 40 b 331 221 246 106 288 164 b 353 250 338 231 344 242 b 360 274 358 257 360 265 b 364 371 360 307 360 339 b 400 561 372 435 379 500 b 419 608 404 578 411 593 b 460 646 428 626 442 639 b 597 646 506 664 551 664 b 607 642 600 644 604 643 b 636 582 631 629 639 608 b 625 496 632 553 629 525 b 617 404 619 465 618 435 b 607 303 615 371 611 336 b 601 247 604 285 601 265 b 600 185 601 226 601 206 b 601 131 597 167 600 149 b 614 36 606 99 610 68 b 618 22 614 32 614 26 b 631 31 624 22 626 28 b 690 104 651 54 669 79 b 814 297 739 164 778 231 b 817 303 815 300 817 301 b 813 319 822 314 822 314 b 761 350 794 328 778 339 b 721 388 746 361 732 374 b 688 501 694 421 682 460 b 756 635 693 554 715 600 b 849 672 783 657 814 669 b 918 671 872 675 894 674 b 1022 554 981 660 1018 618 b 992 353 1025 485 1014 418 b 1007 329 985 332 985 332 b 1178 343 1065 321 1122 324 b 1238 353 1197 350 1217 354 b 1251 351 1242 353 1247 353 b 1261 322 1268 347 1272 335 b 1229 300 1253 313 1240 306 b 1129 272 1197 286 1164 276 b 971 274 1076 267 1024 267 b 951 264 958 275 958 276 b 876 139 929 221 904 179 b 769 -1 844 90 807 43 b 714 -53 753 -21 735 -37 b 604 -92 682 -78 646 -92 b 547 -89 585 -93 567 -93 b 414 10 486 -78 443 -44 b 378 108 397 40 385 74 b 372 135 376 117 374 124 z m 858 414 b 863 419 860 417 861 418 b 875 539 871 458 878 499 b 869 563 875 547 874 556 b 863 563 868 567 865 567 b 858 556 861 560 860 558 b 842 460 842 525 839 493 b 858 414 844 444 849 429 z "},"x":{"ha":710,"x_min":0,"x_max":0,"o":"m 206 396 b 246 439 221 410 232 425 b 374 579 288 486 329 533 b 421 626 389 594 404 611 b 544 644 454 660 514 657 b 554 638 547 642 551 640 b 565 599 568 628 572 615 b 550 574 561 590 556 582 b 476 485 528 543 501 514 b 264 253 406 407 335 331 b 260 235 260 247 257 243 b 328 51 283 174 301 111 b 357 -4 336 32 346 14 b 378 -8 364 -15 367 -17 b 511 101 426 22 472 58 b 650 257 558 153 603 206 b 696 306 665 274 681 290 b 731 331 706 317 717 325 b 754 338 738 335 746 338 b 772 315 769 339 776 329 b 756 286 769 304 763 294 b 679 194 731 256 706 225 b 539 32 635 139 588 85 b 524 14 533 26 529 21 b 431 -67 499 -18 467 -46 b 300 -83 390 -92 346 -94 b 204 -25 261 -75 229 -56 b 129 79 176 8 150 42 b 128 81 129 79 128 81 b 110 83 121 93 119 93 b 88 57 103 74 94 65 b 26 -17 67 32 47 8 b -25 -68 10 -35 -6 -53 b -128 -76 -57 -92 -93 -92 b -142 -36 -146 -68 -150 -54 b -103 24 -132 -14 -118 6 b 18 178 -62 75 -24 128 b 43 207 26 188 35 197 b 46 226 51 217 51 217 b 3 315 32 256 17 285 b -83 575 -36 399 -67 485 b -85 624 -86 592 -86 608 b -60 661 -83 640 -74 653 b -28 675 -50 667 -39 672 b 74 669 7 682 40 682 b 119 629 94 663 110 650 b 144 568 129 610 138 589 b 196 419 161 518 178 469 b 206 396 197 413 200 404 z "},"y":{"ha":857,"x_min":0,"x_max":0,"o":"m 383 143 b 374 136 378 142 375 139 b 296 54 349 107 322 81 b 176 -4 263 22 224 0 b 90 7 146 -7 118 -4 b 8 94 49 22 22 51 b 3 263 -10 150 -10 206 b 101 560 22 365 58 464 b 150 651 115 590 132 622 b 225 699 168 679 193 694 b 315 686 257 703 286 699 b 331 678 321 683 325 681 b 354 624 350 664 360 647 b 332 553 349 599 340 576 b 231 272 297 460 260 367 b 194 122 215 222 204 172 b 196 106 193 117 190 110 b 211 113 201 103 206 108 b 329 224 253 146 293 182 b 417 319 357 257 386 289 b 450 360 428 332 439 346 b 521 443 474 388 496 417 b 531 453 524 446 526 450 b 558 483 544 458 551 471 b 615 586 576 518 596 551 b 633 611 619 594 626 603 b 682 642 646 626 663 638 b 789 629 719 650 756 646 b 801 624 793 628 797 625 b 822 567 824 608 829 593 b 764 425 807 517 786 471 b 663 225 732 357 696 292 b 651 201 660 217 656 210 b 669 207 660 201 665 204 b 853 286 731 233 790 261 b 915 300 872 294 893 301 b 939 296 924 300 931 299 b 943 269 950 289 951 279 b 921 254 936 263 929 258 b 760 178 868 228 814 203 b 619 115 714 157 667 136 b 600 94 611 110 604 104 b 463 -193 550 0 507 -97 b 340 -432 424 -275 386 -356 b 263 -511 321 -464 297 -493 b 96 -508 207 -540 151 -536 b 26 -436 65 -492 43 -467 b -18 -312 7 -396 -10 -356 b 28 -147 -29 -250 -14 -194 b 126 -64 57 -114 90 -87 b 332 54 193 -19 263 18 b 349 71 340 58 346 63 b 383 143 360 94 371 118 z m 286 -74 b 246 -97 269 -79 258 -89 b 154 -172 214 -121 183 -144 b 117 -333 108 -218 96 -271 b 144 -397 124 -356 133 -376 b 153 -401 146 -400 146 -403 b 286 -74 199 -294 242 -183 z "},"z":{"ha":607,"x_min":0,"x_max":0,"o":"m 360 672 b 514 622 415 665 467 653 b 560 575 532 610 549 594 b 567 496 574 550 575 524 b 532 433 561 472 547 451 b 465 363 513 407 489 383 b 264 203 401 304 336 249 b 258 199 263 201 260 200 b 256 194 257 197 256 197 b 261 190 256 192 258 190 b 307 175 276 188 292 182 b 378 122 335 163 357 144 b 399 118 386 113 386 114 b 696 265 678 263 696 265 b 728 261 707 267 718 265 b 732 236 740 256 742 246 b 715 225 726 232 721 228 b 418 54 460 76 418 54 b 408 39 411 50 408 46 b 357 -144 406 -26 383 -86 b 238 -394 321 -229 276 -311 b 163 -512 218 -437 192 -475 b 26 -558 128 -557 81 -569 b -54 -519 -4 -553 -29 -537 b -78 -496 -64 -512 -72 -506 b -121 -414 -94 -469 -111 -443 b -150 -324 -131 -383 -140 -353 b -153 -231 -160 -293 -162 -262 b -132 -192 -149 -217 -140 -204 b -53 -121 -111 -161 -82 -140 b 156 -1 14 -76 83 -37 b 189 17 167 6 178 11 b 203 33 196 21 200 25 b 208 93 208 53 210 74 b 192 108 207 107 204 108 b 156 104 179 110 167 107 b 6 47 103 90 51 76 b -85 47 -25 28 -56 32 b -90 50 -86 47 -89 49 b -92 94 -110 64 -111 78 b 32 182 -53 126 -11 156 b 183 285 86 213 135 247 b 339 419 239 326 290 371 b 396 493 361 442 379 467 b 408 547 406 510 408 528 b 383 575 408 564 400 574 b 294 572 354 579 324 578 b 114 485 226 560 165 532 b 96 467 107 479 101 474 b 101 399 79 443 82 418 b 144 356 115 383 129 369 b 147 350 144 353 146 351 b 135 304 164 332 158 314 b 85 299 119 297 101 296 b -50 368 31 304 -15 326 b -61 499 -82 406 -87 454 b 13 578 -42 531 -17 557 b 218 667 75 622 143 653 b 360 672 265 675 313 675 z m 156 -101 b 146 -104 151 -100 149 -103 b 43 -171 111 -124 76 -147 b -8 -214 25 -183 7 -197 b -29 -306 -32 -242 -39 -272 b 17 -422 -18 -347 0 -385 b 19 -424 17 -424 18 -424 b 26 -415 24 -422 25 -418 b 81 -286 49 -374 67 -331 b 107 -215 88 -261 96 -237 b 151 -118 121 -183 136 -150 b 156 -101 153 -112 157 -108 z "},"{":{"ha":815,"x_min":0,"x_max":0,"o":"m 181 497 b 186 492 181 494 183 493 b 251 399 218 467 238 436 b 265 319 260 372 264 346 b 264 231 267 289 267 260 b 247 90 261 183 254 136 b 231 -14 243 56 238 19 b 228 -90 225 -39 226 -65 b 243 -222 231 -135 235 -179 b 257 -279 246 -242 250 -261 b 274 -296 260 -287 264 -293 b 293 -312 282 -297 292 -301 b 278 -335 294 -324 286 -329 b 261 -342 272 -337 267 -340 b 186 -337 236 -347 211 -347 b 139 -292 164 -328 149 -312 b 119 -240 129 -275 124 -258 b 89 -76 104 -186 96 -132 b 81 -21 88 -58 85 -40 b 74 103 72 19 71 61 b 89 265 76 157 85 210 b 82 388 92 306 93 347 b 25 471 74 424 57 453 b 19 475 22 472 21 474 b 17 524 1 490 0 506 b 71 567 32 540 51 553 b 140 615 94 582 119 597 b 211 711 171 643 192 676 b 257 804 226 742 242 772 b 332 929 279 847 303 890 b 619 1140 406 1031 500 1103 b 743 1150 660 1154 701 1158 b 769 1142 753 1149 761 1146 b 786 1132 775 1139 781 1136 b 781 1093 801 1118 799 1103 b 750 1088 771 1088 760 1086 b 719 1082 739 1089 729 1086 b 632 1031 688 1068 658 1050 b 463 825 558 975 504 906 b 403 707 442 786 422 746 b 356 633 389 682 374 657 b 272 557 332 604 303 581 b 186 503 244 538 215 519 b 181 497 185 501 181 501 z "},"|":{"ha":607,"x_min":0,"x_max":0,"o":"m 71 -344 b 32 -339 57 -346 44 -343 b 8 -325 24 -336 15 -332 b 3 -301 3 -318 0 -311 b 69 -39 17 -212 46 -126 b 149 242 93 56 121 149 b 239 550 178 344 207 447 b 307 772 261 624 285 697 b 365 956 326 833 344 894 b 413 1082 381 999 396 1040 b 431 1118 418 1094 424 1107 b 469 1147 440 1132 453 1142 b 546 1149 494 1154 521 1156 b 556 1146 550 1147 553 1147 b 589 1089 583 1135 593 1119 b 575 1024 585 1067 581 1046 b 522 831 560 958 542 894 b 406 460 483 707 446 583 b 319 194 378 371 347 283 b 204 -150 283 79 242 -35 b 156 -282 189 -194 174 -239 b 140 -317 150 -294 143 -304 b 122 -333 138 -325 131 -331 b 71 -344 107 -343 89 -346 z "},"}":{"ha":815,"x_min":0,"x_max":0,"o":"m 621 311 b 615 318 619 315 617 317 b 550 411 583 342 563 374 b 535 490 542 436 536 464 b 536 579 533 519 535 550 b 553 719 540 626 546 672 b 571 824 558 754 563 789 b 574 899 575 849 575 874 b 558 1032 571 943 567 988 b 544 1089 554 1051 550 1069 b 528 1104 542 1097 538 1103 b 507 1121 518 1107 510 1110 b 522 1143 506 1132 515 1138 b 540 1150 528 1146 533 1149 b 614 1146 565 1156 590 1156 b 663 1100 636 1138 651 1121 b 682 1049 671 1085 676 1067 b 711 886 696 996 704 942 b 719 831 714 868 715 849 b 728 707 728 790 729 749 b 713 544 725 653 715 599 b 718 421 708 503 708 463 b 776 338 728 386 744 357 b 782 333 778 336 779 335 b 785 286 800 319 801 303 b 731 243 768 269 750 256 b 660 193 706 228 682 213 b 590 97 629 167 608 133 b 543 6 574 67 560 36 b 469 -121 521 -37 499 -81 b 182 -332 396 -221 301 -294 b 57 -342 140 -344 100 -349 b 32 -333 49 -339 40 -336 b 15 -322 25 -331 19 -328 b 19 -283 0 -310 1 -293 b 51 -278 29 -279 40 -276 b 82 -272 63 -279 72 -276 b 169 -221 114 -260 142 -242 b 339 -17 242 -165 297 -96 b 399 101 360 22 378 63 b 446 175 411 128 426 153 b 529 251 469 206 499 229 b 614 306 556 272 585 289 b 621 311 617 307 619 308 z "},"~":{"ha":564,"x_min":0,"x_max":0,"o":"m 389 265 b 274 293 349 265 310 275 b 211 322 253 303 232 313 b 188 319 197 329 197 329 b 146 283 174 306 160 294 b 107 267 135 274 121 269 b 26 279 79 263 51 267 b 7 326 4 292 0 303 b 60 394 15 356 32 379 b 181 418 99 414 139 419 b 335 368 238 415 288 394 b 385 379 365 351 365 350 b 392 389 388 382 389 386 b 453 424 404 413 426 422 b 510 414 472 425 492 422 b 539 344 540 400 550 376 b 488 289 529 318 511 301 b 389 265 460 274 424 264 z "},"":{"ha":668,"x_min":0,"x_max":0,"o":"m 553 671 b 540 599 551 646 546 622 b 482 375 524 524 503 449 b 340 -78 436 224 389 74 b 232 -412 303 -189 268 -301 b 206 -486 224 -437 214 -461 b 161 -528 197 -508 182 -521 b 49 -529 124 -542 86 -542 b 13 -508 35 -525 22 -518 b 1 -474 3 -499 0 -487 b 15 -422 4 -456 10 -439 b 96 -197 42 -347 68 -272 b 168 18 122 -126 144 -54 b 371 624 236 221 304 422 b 385 664 376 638 379 650 b 419 722 392 685 403 706 b 479 750 436 739 457 749 b 547 707 508 753 539 731 b 553 671 550 696 553 683 z m 529 819 b 440 850 497 819 468 831 b 399 917 417 865 404 889 b 403 944 396 926 399 936 b 440 1000 411 965 424 983 b 524 1031 463 1024 492 1032 b 592 1017 547 1031 569 1026 b 653 944 624 1003 646 981 b 649 904 656 931 653 917 b 529 819 629 854 593 819 z "},"":{"ha":693,"x_min":0,"x_max":0,"o":"m 286 71 b 299 72 290 68 294 71 b 488 156 364 94 426 124 b 588 221 522 175 557 194 b 611 240 594 228 601 235 b 640 250 619 246 629 249 b 664 210 664 250 676 231 b 632 175 656 196 644 185 b 531 111 600 150 565 129 b 308 18 458 74 385 42 b 275 10 297 15 286 11 b 254 -8 263 8 258 1 b 219 -106 243 -42 232 -74 b 167 -246 203 -153 185 -200 b 149 -300 160 -264 154 -282 b 125 -326 144 -312 138 -322 b 79 -322 108 -331 93 -329 b 71 -301 72 -317 71 -310 b 82 -251 74 -285 78 -268 b 139 -51 100 -185 119 -118 b 151 -3 143 -35 147 -19 b 142 15 156 11 156 11 b 42 100 97 31 65 60 b 13 179 28 124 18 151 b 17 368 0 242 3 306 b 168 686 42 486 93 592 b 307 810 208 735 253 778 b 429 858 346 833 386 850 b 447 875 440 860 444 867 b 533 1124 479 957 507 1040 b 544 1154 536 1135 540 1144 b 565 1174 549 1164 556 1169 b 619 1172 583 1179 601 1179 b 632 1142 635 1165 638 1157 b 544 878 600 1054 572 967 b 543 872 544 876 544 874 b 551 860 540 863 540 863 b 628 826 579 853 606 843 b 668 781 644 814 658 799 b 650 711 679 754 674 729 b 626 699 643 706 635 701 b 593 706 614 694 603 697 b 576 725 586 711 582 718 b 529 772 564 744 549 760 b 513 765 518 781 515 779 b 483 671 501 735 493 703 b 397 404 454 582 426 493 b 339 229 379 346 360 288 b 321 165 332 208 328 186 b 289 83 311 138 300 111 b 286 71 288 79 285 75 z m 176 93 b 392 729 244 307 324 515 b 331 664 369 708 349 688 b 179 376 261 578 213 482 b 150 188 160 315 147 253 b 167 110 151 161 157 135 b 176 93 168 104 171 99 z "},"":{"ha":1001,"x_min":0,"x_max":0,"o":"m 389 506 b 324 474 365 499 342 493 b 296 460 317 465 307 461 b 225 471 271 456 247 458 b 213 481 219 474 215 476 b 207 518 201 492 200 504 b 225 538 211 525 218 532 b 296 569 246 556 271 564 b 392 586 328 578 358 583 b 396 588 393 586 394 588 b 414 603 407 588 411 593 b 450 743 425 650 436 697 b 517 924 467 806 488 865 b 599 1042 539 967 565 1006 b 785 1143 650 1094 711 1131 b 893 1139 821 1149 857 1149 b 938 1117 910 1133 924 1126 b 950 1032 963 1094 968 1061 b 922 1003 942 1021 932 1013 b 892 1000 917 994 900 994 b 888 1013 888 1003 885 1007 b 886 1038 892 1021 889 1029 b 861 1072 881 1050 872 1063 b 838 1076 854 1078 847 1079 b 785 1047 818 1071 801 1061 b 706 956 753 1022 728 990 b 639 810 678 910 657 860 b 581 599 615 740 597 669 b 590 583 578 586 578 586 b 694 550 628 578 663 567 b 722 528 706 544 714 536 b 706 486 738 510 731 490 b 665 490 692 485 679 488 b 631 503 654 494 642 497 b 576 517 614 510 594 514 b 558 504 563 519 561 518 b 525 378 547 463 538 419 b 447 146 504 299 481 221 b 294 -103 407 57 357 -26 b 239 -167 276 -125 258 -146 b 233 -175 236 -169 233 -171 b 247 -176 238 -178 242 -176 b 419 -165 304 -171 361 -167 b 492 -162 443 -164 468 -162 b 547 -161 510 -162 529 -161 b 690 -164 596 -160 643 -161 b 875 -183 751 -167 814 -171 b 953 -211 903 -190 929 -199 b 978 -233 963 -217 972 -224 b 969 -274 988 -249 985 -264 b 914 -281 951 -285 933 -285 b 892 -272 907 -278 899 -275 b 807 -247 865 -257 836 -251 b 694 -239 769 -243 732 -240 b 457 -237 615 -235 536 -235 b 169 -264 360 -239 264 -246 b 101 -279 147 -268 124 -272 b 42 -282 82 -285 63 -286 b 17 -271 33 -279 24 -276 b 14 -233 0 -260 0 -246 b 28 -222 18 -229 22 -226 b 113 -129 60 -194 86 -162 b 236 56 160 -72 203 -11 b 296 193 258 100 279 146 b 386 483 332 288 361 385 b 389 500 388 489 388 494 b 389 506 389 501 389 503 z "},"":{"ha":936,"x_min":0,"x_max":0,"o":"m 265 411 b 190 478 233 426 211 451 b 135 564 169 504 153 533 b 121 594 129 574 125 583 b 131 639 114 611 118 626 b 199 678 149 660 172 672 b 219 682 206 679 213 681 b 269 658 240 683 257 676 b 363 500 303 607 342 558 b 382 492 367 485 368 485 b 482 519 414 506 447 515 b 547 517 504 522 526 521 b 594 503 564 513 579 508 b 611 508 603 500 607 501 b 744 650 646 565 693 610 b 804 674 763 663 782 672 b 900 650 839 676 871 669 b 913 638 904 646 908 642 b 914 601 922 625 922 615 b 900 585 910 596 906 590 b 764 454 860 538 817 490 b 697 407 742 439 719 424 b 676 397 690 403 683 399 b 669 383 668 396 668 390 b 679 317 675 361 676 339 b 651 206 686 275 678 239 b 647 200 650 204 649 201 b 649 186 643 194 643 190 b 731 117 679 167 703 139 b 765 79 744 107 754 93 b 788 51 772 69 781 61 b 785 -25 811 25 810 0 b 732 -57 769 -40 753 -51 b 658 -39 704 -64 679 -60 b 597 32 636 -17 614 6 b 551 103 582 56 565 78 b 535 107 546 113 546 113 b 411 82 494 90 454 82 b 306 104 375 83 339 89 b 278 99 294 110 286 107 b 203 28 253 75 228 51 b 153 -12 188 13 171 0 b 22 -6 115 -39 53 -29 b 18 47 1 10 0 26 b 74 93 33 65 53 79 b 178 165 108 117 143 140 b 207 188 188 172 197 181 b 213 200 213 190 214 194 b 263 406 190 278 214 344 b 265 408 264 406 264 407 b 265 411 265 410 265 410 z m 376 242 b 376 228 376 238 375 232 b 397 169 378 207 383 186 b 435 158 408 157 418 153 b 508 219 467 169 492 189 b 535 306 524 246 529 275 b 538 331 536 313 538 321 b 532 386 535 349 533 367 b 519 440 529 404 525 422 b 507 446 517 449 515 449 b 501 442 506 444 503 443 b 406 343 460 418 431 383 b 376 242 388 313 376 279 z "},"":{"ha":961,"x_min":0,"x_max":0,"o":"m 736 864 b 708 832 726 853 718 842 b 542 633 656 764 599 699 b 374 453 488 572 433 510 b 286 386 346 428 318 404 b 147 353 243 361 197 349 b 24 438 90 358 47 383 b 15 464 21 446 17 454 b 0 586 4 504 0 544 b 24 738 1 636 10 688 b 110 971 44 818 72 896 b 175 1096 131 1013 153 1054 b 228 1133 188 1117 206 1128 b 290 1132 249 1138 269 1138 b 307 1126 296 1131 301 1129 b 332 1076 331 1117 338 1101 b 318 1033 329 1061 324 1047 b 210 744 281 938 242 843 b 174 596 194 696 181 646 b 172 464 168 551 165 508 b 179 439 174 456 176 446 b 192 433 183 432 185 431 b 250 469 213 443 232 456 b 300 511 267 482 283 496 b 456 674 354 563 406 618 b 569 807 494 717 533 761 b 681 968 610 858 646 913 b 760 1088 706 1008 732 1049 b 871 1133 788 1125 825 1138 b 910 1124 885 1132 897 1129 b 944 1063 936 1111 947 1092 b 922 933 942 1019 932 976 b 843 649 899 838 871 743 b 776 426 821 574 799 500 b 754 350 769 400 761 375 b 765 332 749 335 749 335 b 836 310 790 326 814 319 b 886 282 854 303 871 294 b 906 261 894 276 900 269 b 908 235 911 253 914 244 b 883 225 903 226 893 225 b 854 233 874 225 864 229 b 832 244 847 236 839 240 b 733 267 801 263 767 263 b 724 260 728 267 726 264 b 694 181 714 233 704 207 b 700 171 692 175 694 172 b 722 167 707 169 715 168 b 817 129 756 160 789 150 b 838 107 825 122 832 115 b 817 61 850 85 840 64 b 775 69 801 60 788 61 b 758 81 769 72 764 76 b 735 90 751 88 743 90 b 667 92 713 92 689 92 b 651 81 658 92 656 88 b 599 -17 635 47 618 15 b 472 -160 565 -71 525 -121 b 374 -218 442 -182 407 -200 b 214 -275 322 -243 269 -262 b 92 -281 174 -283 133 -286 b 53 -268 79 -278 65 -274 b 31 -251 44 -264 38 -258 b 33 -200 18 -235 18 -215 b 68 -181 42 -189 54 -183 b 108 -199 86 -176 99 -183 b 118 -214 113 -203 115 -208 b 132 -221 121 -219 125 -221 b 150 -218 138 -219 143 -219 b 314 -149 208 -204 263 -181 b 400 -67 349 -128 375 -99 b 475 63 432 -28 454 17 b 476 65 475 64 476 64 b 471 74 478 72 476 74 b 443 69 461 72 451 71 b 378 75 421 67 399 67 b 354 93 369 79 360 85 b 353 126 344 104 344 114 b 374 144 357 135 365 140 b 436 164 393 156 415 161 b 510 172 461 167 486 169 b 524 182 517 172 521 175 b 550 256 532 207 542 231 b 543 265 553 264 551 267 b 425 236 503 260 463 253 b 389 226 413 232 403 225 b 338 250 369 229 353 236 b 340 310 317 269 318 292 b 382 331 353 319 367 326 b 447 342 403 336 425 340 b 572 347 489 344 531 347 b 586 358 582 346 582 347 b 619 458 597 392 608 425 b 735 854 661 590 696 722 b 736 864 736 857 738 860 z "},"":{"ha":626,"x_min":0,"x_max":0,"o":"m 67 -312 b 61 -312 65 -312 64 -312 b 4 -244 15 -307 0 -287 b 28 -139 7 -208 15 -174 b 69 -3 43 -94 54 -49 b 128 160 86 51 110 106 b 168 274 142 199 153 236 b 189 321 175 290 182 306 b 303 360 207 363 264 378 b 324 325 318 353 322 340 b 315 272 324 307 319 289 b 274 121 306 221 290 169 b 208 -93 250 50 231 -22 b 143 -261 192 -151 169 -207 b 136 -272 140 -264 139 -268 b 67 -312 122 -301 97 -311 z m 543 1172 b 583 1164 554 1172 569 1169 b 606 1118 606 1154 613 1142 b 574 1003 596 1079 585 1042 b 474 713 544 906 508 810 b 415 564 457 663 438 613 b 397 526 410 551 403 539 b 368 501 390 514 381 506 b 297 501 344 493 321 493 b 285 507 293 503 289 506 b 272 538 274 514 269 525 b 288 610 278 561 283 585 b 354 833 304 686 328 760 b 417 1008 375 892 396 950 b 461 1126 431 1047 447 1088 b 507 1168 469 1150 485 1163 b 543 1172 518 1171 528 1172 z "},"":{"ha":650,"x_min":0,"x_max":0,"o":"m 249 222 b 278 185 257 208 267 196 b 372 86 308 151 340 119 b 439 11 396 63 419 38 b 478 -71 457 -14 472 -40 b 447 -150 486 -104 475 -131 b 367 -174 422 -167 396 -172 b 276 -165 336 -176 306 -172 b 101 -111 217 -151 157 -136 b 25 -65 74 -99 47 -86 b 11 -50 19 -61 15 -56 b 24 -6 0 -33 6 -15 b 78 0 40 4 60 3 b 124 -17 94 -3 110 -10 b 271 -71 169 -43 219 -57 b 275 -69 272 -71 274 -71 b 264 -44 274 -61 268 -53 b 204 32 246 -18 226 8 b 111 132 174 65 142 99 b 58 197 92 151 74 174 b 36 244 49 213 42 228 b 60 358 21 286 29 325 b 183 418 93 394 133 414 b 231 410 199 419 215 417 b 243 401 235 408 239 406 b 247 371 254 393 256 382 b 233 354 243 365 238 360 b 219 278 215 332 211 306 b 231 247 222 268 226 258 b 290 275 243 275 267 276 b 332 265 306 275 318 269 b 346 264 336 264 343 261 b 342 278 350 269 344 274 b 267 406 318 321 292 364 b 206 544 240 450 217 494 b 218 676 194 590 196 635 b 314 761 239 717 274 743 b 440 793 354 779 397 788 b 547 786 476 796 513 794 b 607 758 569 781 590 774 b 619 747 611 756 615 751 b 607 682 636 725 631 697 b 538 681 583 669 561 668 b 528 686 535 682 531 685 b 494 699 518 693 508 701 b 444 674 476 694 457 689 b 419 590 425 649 418 621 b 456 476 424 550 439 513 b 528 346 478 432 504 389 b 558 285 539 326 551 307 b 565 244 563 272 567 258 b 518 189 563 215 543 199 b 458 175 500 181 479 176 b 335 188 417 172 375 178 b 249 222 306 196 276 206 z "},"":{"ha":594,"x_min":0,"x_max":0,"o":"m 114 965 b 54 978 93 967 72 969 b 18 1006 40 985 28 993 b 17 1083 1 1031 0 1058 b 68 1124 29 1103 47 1115 b 161 1129 99 1135 129 1138 b 190 1117 171 1126 181 1122 b 207 1096 197 1113 206 1106 b 221 1061 210 1083 215 1072 b 217 1019 229 1046 228 1032 b 114 965 190 986 156 967 z m 465 965 b 406 978 444 967 424 969 b 369 1006 392 985 379 993 b 368 1083 353 1031 351 1058 b 419 1124 381 1103 399 1115 b 513 1129 450 1135 481 1138 b 542 1117 522 1126 532 1122 b 558 1096 549 1113 557 1106 b 572 1061 561 1083 567 1072 b 568 1019 581 1046 579 1032 b 465 965 542 986 507 967 z "},"":{"ha":1107,"x_min":0,"x_max":0,"o":"m 451 -192 b 201 -129 365 -193 281 -174 b 38 43 129 -89 72 -33 b 4 185 18 89 7 136 b 25 361 0 246 7 304 b 93 508 42 414 65 463 b 339 765 157 613 238 699 b 558 856 407 808 479 840 b 689 861 601 865 644 867 b 757 835 714 857 736 849 b 831 783 782 818 808 801 b 938 681 869 751 904 717 b 1010 604 961 654 983 628 b 1092 404 1065 550 1093 482 b 971 61 1090 276 1053 161 b 788 -100 918 -1 860 -58 b 521 -189 706 -149 617 -179 b 451 -192 499 -192 478 -192 z m 893 349 b 876 450 893 382 888 417 b 832 564 864 489 847 526 b 810 604 826 579 818 592 b 664 768 767 664 717 717 b 638 772 656 776 649 776 b 565 735 613 763 589 750 b 419 611 511 701 464 657 b 249 346 343 535 286 446 b 222 121 221 274 208 199 b 300 -35 233 61 254 7 b 506 -97 360 -87 426 -110 b 615 -62 543 -90 581 -79 b 779 61 679 -33 735 6 b 882 264 829 121 861 189 b 893 349 889 290 893 318 z m 590 368 b 585 363 588 368 586 365 b 546 263 568 331 554 299 b 544 235 544 254 543 244 b 565 225 546 221 553 217 b 621 246 582 235 600 243 b 625 246 622 246 624 246 b 657 233 638 247 650 246 b 649 201 664 221 657 210 b 581 164 631 182 607 169 b 424 211 519 151 467 164 b 401 254 413 224 406 238 b 422 385 392 300 399 343 b 467 444 435 406 449 426 b 563 493 493 472 525 488 b 640 490 589 497 615 497 b 686 469 657 486 672 479 b 706 399 710 451 717 426 b 646 346 693 372 676 351 b 593 365 625 343 606 346 b 590 368 593 367 592 368 z "},"":{"ha":331,"x_min":0,"x_max":0,"o":"m 163 665 b 143 647 156 658 149 653 b 61 626 119 624 92 619 b 19 658 42 631 28 642 b 8 742 6 685 0 713 b 78 849 19 786 42 822 b 193 868 113 872 151 879 b 222 857 204 865 213 856 b 249 867 231 857 239 864 b 297 861 265 869 282 867 b 313 831 311 856 317 846 b 286 747 307 803 299 775 b 256 667 274 721 265 693 b 242 628 251 653 246 640 b 215 607 236 615 228 608 b 181 608 203 604 192 604 b 160 638 167 614 161 622 b 163 665 160 646 161 654 z m 133 721 b 176 776 150 738 163 757 b 174 788 179 781 178 785 b 160 783 165 792 164 792 b 133 721 147 764 139 743 z "},"":{"ha":911,"x_min":0,"x_max":0,"o":"m 3 301 b 32 392 0 338 13 367 b 72 432 43 407 57 419 b 169 499 103 456 136 478 b 344 604 228 535 286 569 b 411 640 365 618 389 631 b 515 654 444 657 479 663 b 546 640 526 651 538 649 b 550 601 560 629 561 615 b 531 583 544 594 538 589 b 375 472 481 543 428 508 b 260 393 336 446 297 419 b 236 375 251 388 243 381 b 214 308 215 357 208 335 b 289 160 226 251 253 203 b 432 10 333 107 381 57 b 479 -26 447 -3 463 -15 b 500 -46 486 -32 494 -39 b 496 -81 510 -58 508 -71 b 451 -97 483 -92 467 -96 b 372 -87 424 -100 399 -97 b 279 -32 339 -74 308 -54 b 136 104 226 8 179 54 b 46 207 107 139 76 174 b 3 301 21 235 6 267 z m 339 301 b 368 392 336 338 349 367 b 408 432 379 407 393 419 b 506 499 439 456 472 478 b 681 604 564 535 622 569 b 747 640 701 618 725 631 b 851 654 781 657 815 663 b 882 640 863 651 874 649 b 886 601 896 629 897 615 b 867 583 881 594 874 589 b 711 472 817 543 764 508 b 596 393 672 446 633 419 b 572 375 588 388 579 381 b 550 308 551 357 544 335 b 625 160 563 251 589 203 b 768 10 669 107 717 57 b 815 -26 783 -3 799 -15 b 836 -46 822 -32 831 -39 b 832 -81 846 -58 844 -71 b 788 -97 819 -92 803 -96 b 708 -87 760 -100 735 -97 b 615 -32 675 -74 644 -54 b 472 104 563 8 515 54 b 382 207 443 139 413 174 b 339 301 357 235 342 267 z "},"":{"ha":728,"x_min":0,"x_max":0,"o":"m 522 374 b 603 371 556 374 579 375 b 675 343 628 367 653 358 b 701 260 706 321 714 296 b 693 240 699 253 696 247 b 649 114 675 200 663 156 b 619 31 639 86 631 58 b 572 3 611 7 599 0 b 536 14 558 4 547 8 b 508 63 518 25 508 40 b 515 124 507 83 511 103 b 542 229 522 160 533 194 b 550 272 546 243 549 257 b 540 285 551 283 550 285 b 478 283 519 285 499 283 b 382 278 446 282 414 279 b 215 267 326 275 271 271 b 100 267 176 265 138 263 b 31 290 75 269 51 276 b 13 307 24 294 17 300 b 24 347 0 324 6 340 b 63 356 36 353 50 356 b 310 369 144 361 226 367 b 450 371 356 369 403 371 b 522 374 478 372 506 375 z "},"":{"ha":950,"x_min":0,"x_max":0,"o":"m 367 317 b 183 356 300 315 240 328 b 18 588 88 403 35 482 b 88 903 0 701 29 806 b 172 1014 111 943 139 981 b 456 1161 250 1093 343 1146 b 479 1164 463 1163 471 1164 b 551 1171 503 1165 526 1168 b 665 1146 590 1174 629 1164 b 763 1078 701 1129 733 1106 b 888 910 814 1028 854 971 b 903 881 893 900 899 890 b 926 729 931 833 936 782 b 843 553 915 663 886 604 b 476 328 746 439 625 361 b 367 317 440 319 401 315 z m 208 626 b 211 583 207 614 210 599 b 251 474 217 543 228 506 b 382 410 283 431 326 407 b 492 440 421 413 457 424 b 643 554 550 467 601 504 b 699 640 665 581 685 610 b 736 783 721 686 733 733 b 722 883 738 818 736 851 b 597 1065 693 953 651 1013 b 525 1086 575 1086 551 1089 b 499 1079 517 1085 507 1082 b 383 1007 454 1065 418 1038 b 246 804 322 950 278 881 b 208 626 224 749 208 690 z m 458 829 b 474 840 465 835 469 838 b 594 854 513 865 553 869 b 632 753 638 838 654 794 b 593 710 624 735 610 722 b 551 685 581 700 567 692 b 546 668 542 679 542 678 b 571 640 551 657 558 646 b 575 636 572 639 574 638 b 574 608 586 626 586 617 b 540 599 564 601 551 599 b 442 636 501 597 469 613 b 428 650 436 640 432 644 b 415 647 421 656 419 654 b 394 603 407 633 400 618 b 367 579 389 590 379 582 b 313 581 349 574 331 574 b 285 619 293 588 285 599 b 294 711 283 650 288 681 b 328 813 303 746 314 779 b 419 858 346 851 374 867 b 458 829 436 854 451 849 z m 508 778 b 475 740 490 765 479 753 b 508 778 490 749 501 758 z "},"":{"ha":592,"x_min":0,"x_max":0,"o":"m 161 1088 b 454 1090 260 1092 357 1092 b 528 1081 479 1090 504 1088 b 564 1061 540 1076 553 1071 b 560 1024 578 1047 576 1033 b 507 1010 543 1015 525 1011 b 313 1000 442 1006 376 1003 b 199 994 274 1000 236 997 b 124 989 174 993 149 988 b 38 1011 93 992 64 996 b 11 1033 28 1017 18 1024 b 19 1074 0 1049 3 1065 b 46 1082 28 1079 36 1081 b 113 1088 68 1086 90 1089 b 161 1088 129 1088 146 1088 z "},"":{"ha":397,"x_min":0,"x_max":0,"o":"m 179 892 b 57 935 133 893 92 904 b 1 1046 22 963 3 1000 b 39 1143 0 1083 15 1115 b 181 1210 76 1185 125 1206 b 239 1203 200 1211 219 1204 b 336 1146 281 1199 311 1178 b 375 1081 351 1125 363 1103 b 379 1029 383 1064 383 1047 b 343 967 372 1006 360 985 b 206 893 304 928 260 901 b 179 892 197 892 188 892 z m 158 996 b 163 972 158 992 160 982 b 178 965 167 963 168 963 b 239 1039 211 979 233 1003 b 246 1092 242 1057 243 1074 b 238 1126 247 1104 243 1115 b 224 1128 233 1135 231 1135 b 169 1050 200 1106 181 1081 b 158 996 163 1035 158 1018 z "},"":{"ha":693,"x_min":0,"x_max":0,"o":"m 225 390 b 315 388 258 392 286 386 b 326 388 319 388 324 388 b 342 399 335 386 340 390 b 357 446 347 414 351 431 b 378 500 363 465 368 483 b 415 531 386 515 399 525 b 483 529 439 538 461 536 b 513 481 504 522 518 507 b 500 443 510 468 504 456 b 485 397 494 428 489 413 b 493 385 482 388 482 386 b 539 385 508 385 524 386 b 619 376 565 383 593 383 b 658 361 633 372 646 368 b 678 333 668 354 679 347 b 654 313 676 321 664 317 b 607 304 639 307 624 306 b 468 297 561 301 515 300 b 450 282 454 297 454 297 b 400 113 433 226 417 169 b 321 61 386 67 356 58 b 274 113 290 64 272 83 b 290 213 275 147 282 179 b 306 275 294 233 301 254 b 299 283 308 283 307 285 b 201 292 267 282 233 282 b 146 324 181 299 161 307 b 156 381 126 344 131 367 b 203 390 171 388 186 389 b 225 390 211 392 221 390 z m 160 -129 b 99 -129 143 -128 121 -133 b 33 -108 76 -126 53 -121 b 11 -87 25 -103 18 -96 b 21 -44 0 -72 4 -54 b 74 -31 38 -35 56 -32 b 168 -29 106 -28 136 -28 b 318 -29 218 -32 268 -29 b 467 -39 367 -29 417 -28 b 508 -56 481 -43 496 -47 b 528 -74 517 -60 524 -65 b 521 -107 538 -86 535 -99 b 485 -118 510 -114 497 -117 b 351 -124 440 -121 396 -122 b 201 -129 301 -125 251 -126 b 160 -129 189 -131 178 -129 z "},"":{"ha":288,"x_min":0,"x_max":0,"o":"m 175 657 b 193 649 182 651 188 651 b 219 629 203 644 213 639 b 215 601 228 619 225 608 b 178 593 204 594 192 593 b 153 599 169 594 161 596 b 93 599 133 606 114 607 b 31 597 74 590 51 592 b 13 607 24 599 18 603 b 10 639 1 615 0 628 b 29 653 15 644 22 650 b 53 669 39 657 46 663 b 97 718 68 685 83 700 b 107 731 100 722 104 726 b 103 739 110 735 110 739 b 94 742 100 740 97 740 b 60 760 82 746 69 751 b 49 838 35 781 31 810 b 89 872 60 853 74 864 b 207 889 126 893 165 900 b 240 872 219 886 231 881 b 264 794 264 853 274 824 b 201 686 251 753 228 719 b 175 657 193 676 185 668 z "},"":{"ha":303,"x_min":0,"x_max":0,"o":"m 150 575 b 14 640 97 578 51 599 b 4 658 8 646 6 651 b 17 692 0 671 4 685 b 74 697 35 703 54 706 b 93 681 83 694 89 689 b 125 654 100 668 113 661 b 136 657 129 651 133 653 b 149 688 143 667 147 676 b 140 699 150 693 147 697 b 115 706 132 700 124 701 b 101 735 103 713 99 721 b 97 744 101 739 101 742 b 63 803 75 757 64 778 b 94 875 61 832 71 857 b 221 903 132 904 175 913 b 253 888 233 900 243 894 b 276 804 282 865 289 838 b 254 763 272 789 264 775 b 240 746 250 757 244 751 b 242 738 238 743 238 740 b 244 736 243 738 243 738 b 274 672 268 721 276 699 b 210 586 269 629 247 601 b 150 575 192 578 172 576 z m 160 817 b 169 847 168 826 175 835 b 160 817 160 839 158 831 z "},"":{"ha":397,"x_min":0,"x_max":0,"o":"m 299 1207 b 351 1197 318 1208 335 1204 b 381 1140 374 1185 383 1165 b 317 1026 376 1093 350 1057 b 271 993 303 1014 288 1003 b 181 933 240 975 211 953 b 117 901 160 922 139 910 b 46 892 94 892 71 888 b 11 908 33 894 21 899 b 11 939 1 918 0 928 b 49 968 22 950 36 958 b 119 1019 72 986 96 1003 b 193 1104 151 1042 174 1071 b 235 1172 207 1126 221 1149 b 299 1207 249 1197 271 1210 z "},"":{"ha":840,"x_min":0,"x_max":0,"o":"m -54 104 b 46 451 -17 267 17 382 b 67 504 53 469 60 486 b 110 610 82 539 96 575 b 115 622 111 614 114 618 l 121 633 b 208 697 139 671 168 693 b 276 696 232 701 254 700 b 313 682 289 693 301 689 b 340 624 336 669 346 650 b 308 521 332 589 321 554 b 275 440 297 493 286 467 b 238 344 263 408 250 376 b 169 117 208 271 185 194 b 168 110 168 115 168 113 b 164 82 165 101 164 92 b 171 86 167 83 169 85 b 175 89 172 88 174 88 b 176 92 175 90 175 90 b 347 279 236 151 293 214 l 392 332 b 471 421 418 361 444 392 b 486 446 478 428 483 436 b 551 601 506 499 528 550 b 567 633 556 613 561 624 b 657 699 585 672 614 694 b 746 690 688 703 717 700 b 764 681 753 688 758 685 b 785 628 785 668 792 651 b 750 521 776 592 765 556 b 735 485 746 508 740 497 b 622 199 694 390 657 294 b 583 76 607 158 594 118 b 581 67 582 74 582 71 b 579 61 581 65 581 63 b 592 69 585 63 589 65 l 593 72 b 697 181 628 107 663 143 l 758 244 b 767 254 761 247 764 250 b 835 319 788 278 811 299 b 876 343 847 331 861 339 l 878 343 b 888 344 881 344 883 344 b 906 339 896 344 901 343 b 908 319 910 335 910 328 b 896 297 906 311 901 304 l 894 296 b 865 261 885 283 875 272 b 844 239 858 254 851 246 b 665 47 786 174 726 110 l 646 28 b 599 -18 631 13 615 -3 b 531 -47 579 -35 557 -44 b 418 10 482 -51 444 -32 b 397 89 404 35 397 61 b 401 160 396 113 397 136 l 401 163 b 403 168 403 164 403 167 b 401 174 403 169 403 172 b 397 172 400 174 399 174 b 393 168 396 171 394 169 b 392 165 393 167 393 167 b 346 114 376 149 361 132 b 324 88 339 106 331 97 b 200 -24 288 44 246 8 b 131 -49 178 -37 154 -46 b 115 -107 126 -68 121 -87 b 81 -208 106 -142 94 -176 b 24 -239 68 -233 50 -243 b -14 -229 11 -237 -1 -235 b -69 -190 -35 -219 -53 -207 b -101 -86 -99 -161 -110 -126 l -100 -74 b -97 -61 -99 -69 -99 -65 b -68 50 -87 -24 -78 13 b -54 104 -64 68 -58 86 z "},"":{"ha":779,"x_min":0,"x_max":0,"o":"m 453 676 b 629 639 514 675 574 665 b 739 542 675 618 714 588 b 763 444 756 511 761 479 b 736 285 765 389 756 336 b 696 167 721 246 708 206 b 592 -115 664 72 631 -22 b 561 -181 582 -137 571 -158 b 438 -232 535 -235 481 -244 b 418 -225 431 -231 425 -228 b 385 -160 392 -212 379 -190 b 407 -60 389 -125 397 -93 b 468 136 426 6 447 71 b 456 154 475 154 475 154 b 411 154 440 154 426 153 b 393 143 403 154 396 151 b 306 -54 365 76 332 13 b 264 -89 297 -75 283 -85 b 200 -82 242 -94 221 -93 b 185 -49 185 -75 179 -65 b 214 58 194 -14 204 22 b 246 161 225 92 235 126 b 235 183 250 176 254 178 b 115 236 193 196 153 214 b 35 306 85 256 57 276 b 4 372 21 326 10 347 b 11 442 0 396 3 419 b 76 535 24 479 47 508 b 374 669 161 611 261 653 b 453 676 400 674 426 676 z m 371 549 b 364 547 368 550 365 549 b 253 481 324 531 286 510 b 204 419 233 463 215 443 b 217 315 188 382 192 347 b 269 272 231 297 249 283 b 282 278 278 268 279 268 b 300 335 289 297 293 315 b 369 539 322 403 342 472 b 371 549 371 542 372 544 z m 536 525 b 525 494 531 514 529 504 b 438 256 499 414 468 335 b 426 225 433 246 431 235 b 433 214 424 218 425 215 b 478 206 447 211 463 208 b 494 217 489 204 490 206 b 521 314 504 249 515 281 b 539 408 528 346 533 378 b 543 503 544 440 549 471 b 536 525 542 510 542 517 z "},"":{"ha":175,"x_min":0,"x_max":0,"o":"m 21 372 b 53 417 28 389 39 404 b 79 433 60 424 69 429 b 156 393 114 446 147 429 b 157 339 161 375 161 357 b 104 257 149 306 132 278 b 75 246 96 251 85 247 b 51 243 67 244 58 243 b 17 258 36 242 25 247 b 7 283 13 267 8 275 b 21 372 0 314 4 344 z "},"":{"ha":353,"x_min":0,"x_max":0,"o":"m 338 -254 b 336 -283 338 -264 339 -274 b 257 -374 325 -328 299 -357 b 114 -372 210 -390 161 -389 b 22 -315 79 -361 47 -343 b 3 -279 13 -304 4 -293 b 14 -197 0 -251 3 -224 b 103 -176 28 -168 75 -156 b 107 -199 111 -183 114 -190 b 101 -218 101 -204 100 -211 b 135 -292 104 -246 115 -271 b 167 -315 144 -301 154 -310 b 181 -310 175 -318 178 -318 b 185 -281 185 -300 186 -290 b 169 -231 182 -262 176 -246 b 103 -108 150 -187 126 -147 b 58 -28 86 -82 69 -57 b 49 8 53 -17 50 -4 b 76 54 47 31 57 46 b 110 63 86 60 99 63 b 178 33 136 63 161 57 b 235 -42 196 8 215 -17 b 317 -164 267 -79 294 -119 b 338 -254 329 -193 339 -222 z "},"":{"ha":175,"x_min":0,"x_max":0,"o":"m 36 600 b 28 601 35 600 31 600 b 1 633 7 604 0 613 b 14 700 4 656 10 678 b 61 847 22 751 38 800 b 111 879 71 869 88 879 b 140 875 121 881 131 878 b 158 843 157 868 161 860 b 136 767 153 817 146 792 b 85 631 121 721 104 676 b 36 600 75 607 65 600 z "},"":{"ha":281,"x_min":0,"x_max":0,"o":"m 92 597 b 6 665 43 596 17 624 b 7 731 0 688 1 708 b 63 839 15 771 35 808 b 149 888 86 864 114 882 b 222 872 175 892 200 886 b 263 790 249 858 267 821 b 226 699 258 757 246 726 b 164 624 208 671 189 644 b 92 597 143 604 119 596 z m 163 750 b 167 817 176 772 178 800 b 163 750 154 794 154 772 z m 117 672 b 136 696 125 682 131 689 b 136 706 138 700 140 703 b 122 704 129 708 124 710 b 117 672 118 696 115 686 z "},"":{"ha":911,"x_min":0,"x_max":0,"o":"m 894 258 b 865 168 897 222 885 193 b 825 128 854 153 840 140 b 728 61 794 104 763 82 b 554 -44 671 25 613 -10 b 486 -81 532 -58 510 -71 b 382 -94 453 -97 418 -103 b 351 -81 371 -92 361 -89 b 347 -42 338 -69 336 -56 b 367 -24 353 -35 360 -29 b 522 88 417 17 469 51 b 638 167 561 114 600 140 b 661 185 646 172 654 179 b 683 251 682 203 689 225 b 608 400 671 308 644 357 b 465 550 564 454 517 504 b 419 586 450 563 435 575 b 397 606 411 592 403 599 b 401 640 388 619 389 631 b 446 657 414 651 431 656 b 525 647 474 660 500 657 b 619 592 558 633 589 614 b 761 456 671 551 718 506 b 851 353 792 421 821 386 b 894 258 876 325 892 293 z m 558 258 b 529 168 561 222 549 193 b 489 128 518 153 504 140 b 392 61 458 104 426 82 b 218 -44 335 25 276 -10 b 150 -81 196 -58 174 -71 b 46 -94 117 -97 82 -103 b 15 -81 35 -92 25 -89 b 11 -42 1 -69 0 -56 b 31 -24 17 -35 24 -29 b 186 88 81 17 133 51 b 301 167 225 114 264 140 b 325 185 310 172 318 179 b 347 251 346 203 353 225 b 272 400 335 308 308 357 b 129 550 228 454 181 504 b 83 586 114 563 99 575 b 61 606 75 592 67 599 b 65 640 51 619 53 631 b 110 657 78 651 94 656 b 189 647 138 660 164 657 b 283 592 222 633 253 614 b 425 456 335 551 382 506 b 515 353 456 421 485 386 b 558 258 540 325 556 293 z "},"":{"ha":869,"x_min":0,"x_max":0,"o":"m 58 -200 b 19 -192 44 -200 32 -197 b 6 -157 4 -183 0 -174 b 33 -97 11 -135 22 -117 b 208 167 88 -7 146 82 b 439 454 281 267 360 361 b 636 692 506 533 572 611 b 721 786 663 725 690 756 b 824 810 750 815 785 821 b 840 803 829 808 835 806 b 851 771 851 794 856 785 b 833 732 847 757 840 744 b 736 596 804 683 771 640 b 565 371 679 521 622 446 b 404 163 511 301 458 232 b 213 -64 342 85 278 11 b 117 -174 181 -100 149 -137 b 58 -200 100 -193 85 -200 z m 593 22 b 603 22 597 21 600 22 b 622 38 614 22 618 28 b 642 88 628 54 635 71 b 669 135 649 106 657 121 b 765 143 693 160 744 158 b 776 121 774 138 776 131 b 772 100 776 114 775 107 b 688 -89 749 35 722 -29 b 657 -144 678 -107 665 -125 b 626 -168 651 -160 640 -165 b 586 -164 611 -171 599 -169 b 574 -140 575 -158 572 -153 b 592 -44 576 -108 581 -75 b 593 -36 592 -42 593 -39 b 588 -31 594 -32 593 -29 b 546 -39 574 -33 560 -35 b 476 -35 522 -43 500 -43 b 467 -32 474 -35 471 -33 b 446 21 444 -18 436 -3 b 485 103 456 50 469 78 b 575 225 513 146 543 186 b 646 247 593 247 619 250 b 681 238 658 246 669 243 b 693 206 693 229 697 219 b 685 186 690 199 688 193 b 599 33 660 133 632 82 b 593 22 596 31 593 28 z m 288 522 b 261 529 279 522 271 525 b 246 556 249 535 244 543 b 251 582 247 565 250 574 b 303 746 263 639 282 692 b 321 792 308 761 314 778 b 360 821 329 808 342 818 b 407 815 376 824 392 822 b 421 786 422 808 426 801 b 365 611 406 726 389 668 b 342 557 357 593 350 575 b 288 522 332 532 318 522 z "},"":{"ha":904,"x_min":0,"x_max":0,"o":"m 61 -193 b 18 -183 46 -193 32 -190 b 7 -150 3 -175 0 -165 b 46 -79 17 -125 31 -101 b 247 194 107 17 176 107 b 418 399 303 264 361 332 b 638 649 492 482 564 565 b 751 772 674 690 710 733 b 819 806 771 792 793 804 b 867 799 836 807 851 806 b 883 757 885 790 890 776 b 865 721 879 744 872 732 b 761 578 833 672 797 625 b 535 288 685 482 611 383 b 364 83 479 218 422 151 b 283 -3 338 54 311 25 b 143 -147 236 -51 189 -97 b 119 -171 135 -156 126 -164 b 61 -193 103 -187 83 -193 z m 643 -87 b 685 -94 660 -90 672 -92 b 735 -114 703 -99 719 -104 b 754 -132 742 -119 749 -125 b 750 -165 761 -144 761 -156 b 708 -182 739 -176 724 -181 b 660 -167 690 -182 674 -178 b 635 -158 651 -161 644 -160 b 535 -162 601 -154 568 -156 b 479 -158 515 -167 497 -164 b 457 -146 471 -156 464 -153 b 458 -111 446 -135 444 -121 b 510 -65 476 -96 493 -81 b 556 -19 526 -51 542 -36 b 549 -1 567 -6 567 -6 b 507 17 533 1 519 7 b 490 35 500 21 494 28 b 485 90 479 51 478 71 b 543 168 496 122 515 147 b 693 204 588 200 638 214 b 714 199 700 203 707 201 b 767 106 756 183 775 149 b 732 22 761 76 747 49 b 663 -65 714 -10 689 -39 b 643 -87 657 -72 651 -78 z m 603 58 b 629 122 617 74 629 104 b 603 58 613 104 601 86 z m 433 814 b 461 810 442 815 451 813 b 481 774 481 803 486 793 b 426 615 467 719 447 667 b 396 550 417 593 406 572 b 321 533 383 525 344 517 b 314 554 314 539 313 546 b 333 642 321 583 326 613 b 374 774 344 686 358 731 b 433 814 386 806 399 814 z "},"":{"ha":949,"x_min":0,"x_max":0,"o":"m 67 -217 b 19 -204 51 -215 35 -214 b 11 -164 3 -194 0 -181 b 161 32 61 -97 110 -31 b 369 281 231 115 297 200 b 506 428 414 331 460 379 b 736 661 581 508 660 583 b 804 722 757 682 781 703 b 904 739 833 747 868 750 b 919 731 910 738 915 735 b 929 697 932 721 935 711 b 917 675 926 689 922 682 b 836 574 893 639 864 606 b 646 365 772 504 708 435 b 475 174 588 301 532 236 b 322 3 425 117 374 60 b 140 -187 263 -62 203 -125 b 67 -217 118 -210 100 -215 z m 688 133 b 722 143 700 138 711 142 b 769 138 739 146 754 143 b 793 96 790 129 797 117 b 756 -19 783 56 769 18 b 740 -62 750 -35 744 -49 b 688 -171 728 -101 706 -135 b 663 -190 682 -181 674 -187 b 613 -187 646 -194 629 -194 b 596 -160 599 -182 593 -175 b 611 -69 600 -129 603 -99 b 597 -57 615 -56 613 -53 b 553 -65 582 -60 568 -62 b 494 -62 533 -68 514 -67 b 482 -60 490 -62 486 -61 b 457 4 456 -50 438 -31 b 515 93 474 36 493 65 b 578 179 538 121 558 150 b 621 213 589 196 601 208 b 688 207 644 218 667 217 b 704 167 707 199 711 188 b 697 151 701 161 699 157 b 688 133 694 146 692 140 z m 594 8 b 632 10 604 7 628 8 b 642 32 639 15 639 25 b 649 54 644 40 647 47 b 663 94 654 68 658 82 b 594 8 640 67 618 38 z m 389 665 b 376 674 386 671 381 672 b 369 782 336 700 333 751 b 531 793 414 818 481 824 b 558 699 557 776 579 739 b 531 660 550 685 542 671 b 531 642 521 650 521 650 b 546 543 568 613 563 568 b 504 510 536 528 522 517 b 374 508 461 493 417 492 b 314 539 353 517 333 526 b 289 564 304 546 296 554 b 300 611 278 582 281 601 b 371 615 324 625 347 625 b 386 603 378 613 382 608 b 393 594 389 600 390 597 b 414 600 404 585 410 588 b 408 613 417 606 415 610 b 396 617 404 613 400 614 b 379 626 390 618 383 621 b 379 656 369 636 369 646 b 389 665 382 658 388 661 z "},"":{"ha":774,"x_min":0,"x_max":0,"o":"m 625 -292 b 558 -446 624 -344 603 -400 b 343 -553 500 -508 428 -543 b 197 -542 294 -558 246 -556 b 26 -389 115 -519 60 -467 b 3 -242 7 -343 0 -293 b 65 -17 7 -162 31 -87 b 210 207 104 64 156 136 b 399 443 271 286 338 363 b 460 518 419 468 439 494 b 486 565 472 532 479 549 b 507 636 496 588 503 611 b 499 657 510 644 508 653 b 494 701 479 667 479 688 b 547 721 510 714 528 719 b 607 719 567 724 586 724 b 686 611 667 706 690 665 b 676 553 686 592 682 572 b 657 481 669 529 664 506 b 619 404 650 453 635 428 b 540 301 596 368 568 333 b 361 78 478 229 417 156 b 242 -160 310 6 268 -72 b 222 -297 228 -204 219 -250 b 250 -404 224 -335 231 -371 b 292 -451 260 -424 272 -440 b 319 -456 300 -456 308 -457 b 388 -415 346 -449 368 -433 b 436 -282 425 -379 442 -333 b 401 -185 433 -246 421 -214 b 325 -90 379 -150 356 -118 b 321 -86 324 -89 322 -87 b 326 -51 310 -72 311 -60 b 378 -39 342 -42 360 -39 b 472 -58 411 -37 443 -43 b 575 -140 511 -79 546 -106 b 625 -292 610 -181 625 -228 z m 632 1018 b 715 996 661 1018 690 1011 b 742 972 726 990 735 982 b 754 901 760 951 760 926 b 706 839 747 874 731 853 b 579 824 665 817 624 813 b 560 831 572 826 565 828 b 514 867 539 838 525 850 b 497 893 508 875 503 885 b 494 925 492 903 490 914 b 508 956 497 936 501 946 b 632 1018 540 996 579 1019 z "},"":{"ha":1210,"x_min":0,"x_max":0,"o":"m 367 283 b 328 276 353 283 340 279 b 167 224 272 263 218 247 b 124 197 151 217 136 210 b 106 189 118 193 113 189 b 21 217 74 186 44 193 b 14 278 3 235 0 257 b 36 301 21 288 28 294 b 146 353 68 326 107 342 b 272 374 188 364 229 369 b 433 385 325 378 379 381 b 456 397 444 385 450 390 b 579 567 496 454 538 511 b 772 829 644 654 708 742 b 992 1136 847 931 924 1031 b 1108 1190 1019 1179 1060 1194 b 1121 1189 1113 1190 1117 1189 b 1157 1136 1149 1181 1158 1165 b 1133 1007 1153 1092 1143 1050 b 1071 707 1111 907 1089 807 b 1036 464 1058 626 1044 544 b 1025 314 1032 414 1028 364 b 1021 211 1022 279 1021 246 b 1057 -71 1018 115 1028 21 b 1132 -217 1074 -124 1096 -174 b 1186 -267 1147 -236 1165 -254 b 1257 -283 1208 -281 1232 -286 b 1335 -272 1283 -279 1310 -276 b 1376 -262 1349 -269 1363 -264 b 1410 -265 1388 -261 1400 -262 b 1418 -306 1431 -274 1433 -292 b 1389 -324 1410 -314 1400 -319 b 1267 -357 1350 -340 1308 -350 b 1174 -365 1236 -361 1206 -367 b 989 -292 1103 -364 1042 -339 b 876 -126 938 -246 903 -189 b 828 61 851 -67 838 -3 b 821 251 819 125 819 188 b 822 275 821 260 822 267 b 811 290 822 286 822 288 b 768 294 797 292 782 293 b 644 299 726 299 686 299 b 497 296 596 299 546 299 b 475 282 486 294 481 290 b 232 -47 396 171 314 63 b 136 -174 200 -89 168 -132 b 74 -206 119 -194 99 -206 b 50 -200 65 -206 57 -204 b 39 -174 38 -194 35 -186 b 47 -158 42 -168 44 -164 b 146 -15 78 -110 113 -62 b 358 267 215 79 288 172 b 367 283 361 271 365 275 z m 933 907 b 919 889 928 900 924 894 b 671 549 835 776 753 663 b 563 400 635 499 599 450 b 558 390 560 397 556 394 b 568 388 560 386 564 388 b 624 385 586 386 606 386 b 814 364 688 383 751 378 b 831 374 826 361 828 361 b 832 382 831 376 831 379 b 842 463 835 410 839 436 b 882 683 853 538 868 610 b 932 892 896 753 911 822 b 933 907 933 896 936 900 z m 1024 1636 b 1088 1601 1051 1639 1074 1626 b 1129 1533 1101 1578 1115 1556 b 1203 1449 1149 1500 1171 1471 b 1274 1397 1226 1432 1250 1415 b 1311 1368 1286 1388 1300 1379 b 1311 1338 1322 1357 1321 1347 b 1276 1321 1301 1328 1289 1324 b 1206 1331 1251 1317 1228 1321 b 1142 1363 1183 1339 1163 1351 b 1051 1422 1111 1382 1082 1404 b 1006 1456 1035 1432 1019 1443 b 942 1569 972 1486 946 1522 b 971 1626 939 1594 949 1614 b 1024 1636 988 1633 1004 1638 z "},"":{"ha":1210,"x_min":0,"x_max":0,"o":"m 367 283 b 328 276 353 283 340 279 b 167 224 272 263 218 247 b 124 197 151 217 136 210 b 106 189 118 193 113 189 b 21 217 74 186 44 193 b 14 278 3 235 0 257 b 36 301 21 288 28 294 b 146 353 68 326 107 342 b 272 374 188 364 229 369 b 433 385 325 378 379 381 b 456 397 444 385 450 390 b 579 567 496 454 538 511 b 772 829 644 654 708 742 b 992 1136 847 931 924 1031 b 1108 1190 1019 1179 1060 1194 b 1121 1189 1113 1190 1117 1189 b 1157 1136 1149 1181 1158 1165 b 1133 1007 1153 1092 1143 1050 b 1071 707 1111 907 1089 807 b 1036 464 1058 626 1044 544 b 1025 314 1032 414 1028 364 b 1021 211 1022 279 1021 246 b 1057 -71 1018 115 1028 21 b 1132 -217 1074 -124 1096 -174 b 1186 -267 1147 -236 1165 -254 b 1257 -283 1208 -281 1232 -286 b 1335 -272 1283 -279 1310 -276 b 1376 -262 1349 -269 1363 -264 b 1410 -265 1388 -261 1400 -262 b 1418 -306 1431 -274 1433 -292 b 1389 -324 1410 -314 1400 -319 b 1267 -357 1350 -340 1308 -350 b 1174 -365 1236 -361 1206 -367 b 989 -292 1103 -364 1042 -339 b 876 -126 938 -246 903 -189 b 828 61 851 -67 838 -3 b 821 251 819 125 819 188 b 822 275 821 260 822 267 b 811 290 822 286 822 288 b 768 294 797 292 782 293 b 644 299 726 299 686 299 b 497 296 596 299 546 299 b 475 282 486 294 481 290 b 232 -47 396 171 314 63 b 136 -174 200 -89 168 -132 b 74 -206 119 -194 99 -206 b 50 -200 65 -206 57 -204 b 39 -174 38 -194 35 -186 b 47 -158 42 -168 44 -164 b 146 -15 78 -110 113 -62 b 358 267 215 79 288 172 b 367 283 361 271 365 275 z m 933 907 b 919 889 928 900 924 894 b 671 549 835 776 753 663 b 563 400 635 499 599 450 b 558 390 560 397 556 394 b 568 388 560 386 564 388 b 624 385 586 386 606 386 b 814 364 688 383 751 378 b 831 374 826 361 828 361 b 832 382 831 376 831 379 b 842 463 835 410 839 436 b 882 683 853 538 868 610 b 932 892 896 753 911 822 b 933 907 933 896 936 900 z m 1260 1601 b 1313 1592 1279 1603 1296 1599 b 1342 1535 1335 1579 1344 1560 b 1278 1421 1338 1488 1311 1451 b 1232 1388 1264 1408 1249 1397 b 1142 1328 1201 1369 1172 1347 b 1078 1296 1121 1317 1100 1304 b 1007 1286 1056 1286 1032 1282 b 972 1303 994 1289 982 1293 b 972 1333 963 1313 961 1322 b 1010 1363 983 1344 997 1353 b 1081 1414 1033 1381 1057 1397 b 1154 1499 1113 1436 1135 1465 b 1196 1567 1168 1521 1182 1543 b 1260 1601 1210 1592 1232 1604 z "},"":{"ha":1210,"x_min":0,"x_max":0,"o":"m 367 283 b 328 276 353 283 340 279 b 167 224 272 263 218 247 b 124 197 151 217 136 210 b 106 189 118 193 113 189 b 21 217 74 186 44 193 b 14 278 3 235 0 257 b 36 301 21 288 28 294 b 146 353 68 326 107 342 b 272 374 188 364 229 369 b 433 385 325 378 379 381 b 456 397 444 385 450 390 b 579 567 496 454 538 511 b 772 829 644 654 708 742 b 992 1136 847 931 924 1031 b 1108 1190 1019 1179 1060 1194 b 1121 1189 1113 1190 1117 1189 b 1157 1136 1149 1181 1158 1165 b 1133 1007 1153 1092 1143 1050 b 1071 707 1111 907 1089 807 b 1036 464 1058 626 1044 544 b 1025 314 1032 414 1028 364 b 1021 211 1022 279 1021 246 b 1057 -71 1018 115 1028 21 b 1132 -217 1074 -124 1096 -174 b 1186 -267 1147 -236 1165 -254 b 1257 -283 1208 -281 1232 -286 b 1335 -272 1283 -279 1310 -276 b 1376 -262 1349 -269 1363 -264 b 1410 -265 1388 -261 1400 -262 b 1418 -306 1431 -274 1433 -292 b 1389 -324 1410 -314 1400 -319 b 1267 -357 1350 -340 1308 -350 b 1174 -365 1236 -361 1206 -367 b 989 -292 1103 -364 1042 -339 b 876 -126 938 -246 903 -189 b 828 61 851 -67 838 -3 b 821 251 819 125 819 188 b 822 275 821 260 822 267 b 811 290 822 286 822 288 b 768 294 797 292 782 293 b 644 299 726 299 686 299 b 497 296 596 299 546 299 b 475 282 486 294 481 290 b 232 -47 396 171 314 63 b 136 -174 200 -89 168 -132 b 74 -206 119 -194 99 -206 b 50 -200 65 -206 57 -204 b 39 -174 38 -194 35 -186 b 47 -158 42 -168 44 -164 b 146 -15 78 -110 113 -62 b 358 267 215 79 288 172 b 367 283 361 271 365 275 z m 933 907 b 919 889 928 900 924 894 b 671 549 835 776 753 663 b 563 400 635 499 599 450 b 558 390 560 397 556 394 b 568 388 560 386 564 388 b 624 385 586 386 606 386 b 814 364 688 383 751 378 b 831 374 826 361 828 361 b 832 382 831 376 831 379 b 842 463 835 410 839 436 b 882 683 853 538 868 610 b 932 892 896 753 911 822 b 933 907 933 896 936 900 z m 1146 1431 b 1110 1375 1131 1413 1121 1394 b 1060 1300 1096 1349 1079 1324 b 990 1268 1042 1279 1019 1265 b 988 1268 990 1268 989 1268 b 953 1332 949 1272 936 1297 b 1008 1410 968 1361 989 1385 b 1090 1528 1038 1447 1067 1486 b 1181 1565 1111 1563 1143 1569 b 1260 1511 1215 1561 1243 1543 b 1290 1436 1272 1488 1285 1463 b 1307 1390 1294 1421 1301 1406 b 1329 1328 1314 1369 1322 1349 b 1333 1314 1331 1324 1332 1318 b 1319 1285 1336 1300 1332 1292 b 1296 1278 1311 1281 1304 1278 b 1196 1325 1253 1274 1219 1288 b 1158 1401 1181 1349 1168 1375 b 1146 1431 1154 1411 1151 1419 z "},"":{"ha":1210,"x_min":0,"x_max":0,"o":"m 367 283 b 328 276 353 283 340 279 b 167 224 272 263 218 247 b 124 197 151 217 136 210 b 106 189 118 193 113 189 b 21 217 74 186 44 193 b 14 278 3 235 0 257 b 36 301 21 288 28 294 b 146 353 68 326 107 342 b 272 374 188 364 229 369 b 433 385 325 378 379 381 b 456 397 444 385 450 390 b 579 567 496 454 538 511 b 772 829 644 654 708 742 b 992 1136 847 931 924 1031 b 1108 1190 1019 1179 1060 1194 b 1121 1189 1113 1190 1117 1189 b 1157 1136 1149 1181 1158 1165 b 1133 1007 1153 1092 1143 1050 b 1071 707 1111 907 1089 807 b 1036 464 1058 626 1044 544 b 1025 314 1032 414 1028 364 b 1021 211 1022 279 1021 246 b 1057 -71 1018 115 1028 21 b 1132 -217 1074 -124 1096 -174 b 1186 -267 1147 -236 1165 -254 b 1257 -283 1208 -281 1232 -286 b 1335 -272 1283 -279 1310 -276 b 1376 -262 1349 -269 1363 -264 b 1410 -265 1388 -261 1400 -262 b 1418 -306 1431 -274 1433 -292 b 1389 -324 1410 -314 1400 -319 b 1267 -357 1350 -340 1308 -350 b 1174 -365 1236 -361 1206 -367 b 989 -292 1103 -364 1042 -339 b 876 -126 938 -246 903 -189 b 828 61 851 -67 838 -3 b 821 251 819 125 819 188 b 822 275 821 260 822 267 b 811 290 822 286 822 288 b 768 294 797 292 782 293 b 644 299 726 299 686 299 b 497 296 596 299 546 299 b 475 282 486 294 481 290 b 232 -47 396 171 314 63 b 136 -174 200 -89 168 -132 b 74 -206 119 -194 99 -206 b 50 -200 65 -206 57 -204 b 39 -174 38 -194 35 -186 b 47 -158 42 -168 44 -164 b 146 -15 78 -110 113 -62 b 358 267 215 79 288 172 b 367 283 361 271 365 275 z m 933 907 b 919 889 928 900 924 894 b 671 549 835 776 753 663 b 563 400 635 499 599 450 b 558 390 560 397 556 394 b 568 388 560 386 564 388 b 624 385 586 386 606 386 b 814 364 688 383 751 378 b 831 374 826 361 828 361 b 832 382 831 376 831 379 b 842 463 835 410 839 436 b 882 683 853 538 868 610 b 932 892 896 753 911 822 b 933 907 933 896 936 900 z m 1268 1264 b 1153 1292 1228 1264 1189 1274 b 1090 1321 1132 1301 1111 1311 b 1067 1318 1076 1328 1076 1328 b 1025 1282 1053 1304 1039 1293 b 986 1265 1014 1272 1000 1268 b 906 1278 958 1261 931 1265 b 886 1325 883 1290 879 1301 b 939 1393 894 1354 911 1378 b 1060 1417 978 1413 1018 1418 b 1214 1367 1117 1414 1167 1393 b 1264 1378 1244 1350 1244 1349 b 1271 1388 1267 1381 1268 1385 b 1332 1422 1283 1411 1306 1421 b 1389 1413 1351 1424 1371 1421 b 1418 1343 1419 1399 1429 1375 b 1367 1288 1408 1317 1390 1300 b 1268 1264 1339 1272 1303 1263 z "},"":{"ha":1210,"x_min":0,"x_max":0,"o":"m 367 283 b 328 276 353 283 340 279 b 167 224 272 263 218 247 b 124 197 151 217 136 210 b 106 189 118 193 113 189 b 21 217 74 186 44 193 b 14 278 3 235 0 257 b 36 301 21 288 28 294 b 146 353 68 326 107 342 b 272 374 188 364 229 369 b 433 385 325 378 379 381 b 456 397 444 385 450 390 b 579 567 496 454 538 511 b 772 829 644 654 708 742 b 992 1136 847 931 924 1031 b 1108 1190 1019 1179 1060 1194 b 1121 1189 1113 1190 1117 1189 b 1157 1136 1149 1181 1158 1165 b 1133 1007 1153 1092 1143 1050 b 1071 707 1111 907 1089 807 b 1036 464 1058 626 1044 544 b 1025 314 1032 414 1028 364 b 1021 211 1022 279 1021 246 b 1057 -71 1018 115 1028 21 b 1132 -217 1074 -124 1096 -174 b 1186 -267 1147 -236 1165 -254 b 1257 -283 1208 -281 1232 -286 b 1335 -272 1283 -279 1310 -276 b 1376 -262 1349 -269 1363 -264 b 1410 -265 1388 -261 1400 -262 b 1418 -306 1431 -274 1433 -292 b 1389 -324 1410 -314 1400 -319 b 1267 -357 1350 -340 1308 -350 b 1174 -365 1236 -361 1206 -367 b 989 -292 1103 -364 1042 -339 b 876 -126 938 -246 903 -189 b 828 61 851 -67 838 -3 b 821 251 819 125 819 188 b 822 275 821 260 822 267 b 811 290 822 286 822 288 b 768 294 797 292 782 293 b 644 299 726 299 686 299 b 497 296 596 299 546 299 b 475 282 486 294 481 290 b 232 -47 396 171 314 63 b 136 -174 200 -89 168 -132 b 74 -206 119 -194 99 -206 b 50 -200 65 -206 57 -204 b 39 -174 38 -194 35 -186 b 47 -158 42 -168 44 -164 b 146 -15 78 -110 113 -62 b 358 267 215 79 288 172 b 367 283 361 271 365 275 z m 933 907 b 919 889 928 900 924 894 b 671 549 835 776 753 663 b 563 400 635 499 599 450 b 558 390 560 397 556 394 b 568 388 560 386 564 388 b 624 385 586 386 606 386 b 814 364 688 383 751 378 b 831 374 826 361 828 361 b 832 382 831 376 831 379 b 842 463 835 410 839 436 b 882 683 853 538 868 610 b 932 892 896 753 911 822 b 933 907 933 896 936 900 z m 939 1256 b 879 1268 918 1257 897 1260 b 843 1296 865 1275 853 1283 b 842 1374 826 1321 825 1349 b 893 1414 854 1393 872 1406 b 986 1419 924 1425 954 1428 b 1015 1407 996 1417 1006 1413 b 1032 1386 1022 1403 1031 1396 b 1046 1351 1035 1374 1040 1363 b 1042 1310 1054 1336 1053 1322 b 939 1256 1015 1276 981 1257 z m 1290 1256 b 1231 1268 1269 1257 1249 1260 b 1194 1296 1217 1275 1204 1283 b 1193 1374 1178 1321 1176 1349 b 1244 1414 1206 1393 1224 1406 b 1338 1419 1275 1425 1306 1428 b 1367 1407 1347 1417 1357 1413 b 1383 1386 1374 1403 1382 1396 b 1397 1351 1386 1374 1392 1363 b 1393 1310 1406 1336 1404 1322 b 1290 1256 1367 1276 1332 1257 z "},"":{"ha":1210,"x_min":0,"x_max":0,"o":"m 367 283 b 328 276 353 283 340 279 b 167 224 272 263 218 247 b 124 197 151 217 136 210 b 106 189 118 193 113 189 b 21 217 74 186 44 193 b 14 278 3 235 0 257 b 36 301 21 288 28 294 b 146 353 68 326 107 342 b 272 374 188 364 229 369 b 433 385 325 378 379 381 b 456 397 444 385 450 390 b 579 567 496 454 538 511 b 772 829 644 654 708 742 b 992 1136 847 931 924 1031 b 1108 1190 1019 1179 1060 1194 b 1121 1189 1113 1190 1117 1189 b 1157 1136 1149 1181 1158 1165 b 1133 1007 1153 1092 1143 1050 b 1071 707 1111 907 1089 807 b 1036 464 1058 626 1044 544 b 1025 314 1032 414 1028 364 b 1021 211 1022 279 1021 246 b 1057 -71 1018 115 1028 21 b 1132 -217 1074 -124 1096 -174 b 1186 -267 1147 -236 1165 -254 b 1257 -283 1208 -281 1232 -286 b 1335 -272 1283 -279 1310 -276 b 1376 -262 1349 -269 1363 -264 b 1410 -265 1388 -261 1400 -262 b 1418 -306 1431 -274 1433 -292 b 1389 -324 1410 -314 1400 -319 b 1267 -357 1350 -340 1308 -350 b 1174 -365 1236 -361 1206 -367 b 989 -292 1103 -364 1042 -339 b 876 -126 938 -246 903 -189 b 828 61 851 -67 838 -3 b 821 251 819 125 819 188 b 822 275 821 260 822 267 b 811 290 822 286 822 288 b 768 294 797 292 782 293 b 644 299 726 299 686 299 b 497 296 596 299 546 299 b 475 282 486 294 481 290 b 232 -47 396 171 314 63 b 136 -174 200 -89 168 -132 b 74 -206 119 -194 99 -206 b 50 -200 65 -206 57 -204 b 39 -174 38 -194 35 -186 b 47 -158 42 -168 44 -164 b 146 -15 78 -110 113 -62 b 358 267 215 79 288 172 b 367 283 361 271 365 275 z m 933 907 b 919 889 928 900 924 894 b 671 549 835 776 753 663 b 563 400 635 499 599 450 b 558 390 560 397 556 394 b 568 388 560 386 564 388 b 624 385 586 386 606 386 b 814 364 688 383 751 378 b 831 374 826 361 828 361 b 832 382 831 376 831 379 b 842 463 835 410 839 436 b 882 683 853 538 868 610 b 932 892 896 753 911 822 b 933 907 933 896 936 900 z m 1183 1286 b 1061 1329 1138 1288 1096 1299 b 1006 1440 1026 1357 1007 1394 b 1043 1538 1004 1478 1019 1510 b 1185 1604 1081 1579 1129 1600 b 1243 1597 1204 1606 1224 1599 b 1340 1540 1285 1593 1315 1572 b 1379 1475 1356 1519 1367 1497 b 1383 1424 1388 1458 1388 1442 b 1347 1361 1376 1400 1364 1379 b 1210 1288 1308 1322 1264 1296 b 1183 1286 1201 1286 1192 1286 z m 1163 1390 b 1167 1367 1163 1386 1164 1376 b 1182 1360 1171 1357 1172 1357 b 1243 1433 1215 1374 1238 1397 b 1250 1486 1246 1451 1247 1468 b 1242 1521 1251 1499 1247 1510 b 1228 1522 1238 1529 1235 1529 b 1174 1444 1204 1500 1185 1475 b 1163 1390 1167 1429 1163 1413 z "},"":{"ha":2157,"x_min":0,"x_max":0,"o":"m 933 907 b 928 900 932 904 929 901 l 919 889 b 731 631 856 804 793 718 b 671 549 710 604 690 576 b 607 461 650 519 628 490 l 563 400 l 561 399 b 558 394 560 397 558 396 b 558 390 557 393 557 392 b 561 388 560 389 560 388 b 565 388 563 388 564 388 l 576 388 l 624 385 b 814 364 689 385 751 378 b 826 364 821 363 825 363 b 831 374 828 365 829 368 l 831 381 l 832 382 b 835 408 833 392 833 400 b 842 463 836 426 839 444 b 882 683 854 536 867 610 b 932 892 896 754 913 824 l 932 893 b 935 900 933 894 933 897 b 933 907 935 901 935 904 z m 807 201 b 819 231 811 211 815 221 b 821 251 821 238 821 244 l 821 265 b 822 275 822 268 822 271 b 821 286 822 281 822 285 b 811 290 819 288 817 289 b 768 294 797 292 783 293 b 647 299 728 299 688 300 l 644 299 b 497 296 596 299 546 297 b 475 282 488 294 479 290 b 232 -47 396 172 314 63 b 136 -174 200 -90 168 -132 b 74 -206 119 -194 99 -206 b 50 -200 65 -206 57 -204 b 39 -174 38 -196 35 -186 b 47 -158 42 -168 44 -162 b 138 -28 76 -114 106 -71 b 146 -15 140 -24 143 -19 b 269 149 186 40 228 94 b 358 267 299 189 329 228 b 360 269 360 268 360 268 b 365 275 361 271 364 274 b 367 283 367 276 367 279 b 332 278 354 282 343 281 b 328 276 331 276 329 276 b 167 224 272 264 218 246 b 124 197 151 217 136 208 b 106 189 118 193 113 190 b 21 217 74 185 44 194 b 14 278 3 235 0 256 b 36 301 21 288 28 294 b 146 353 69 325 106 343 b 272 374 188 363 229 369 b 415 383 319 378 367 381 b 433 385 422 383 428 383 b 447 389 439 385 443 386 b 456 397 450 390 453 393 b 569 554 493 450 532 503 b 579 567 574 558 576 563 b 642 651 600 596 621 624 l 772 829 l 831 907 b 992 1136 888 982 940 1058 b 1108 1190 1021 1178 1060 1196 b 1121 1189 1113 1190 1117 1190 b 1157 1136 1147 1182 1160 1164 b 1136 1024 1153 1099 1146 1061 l 1133 1007 b 1131 997 1132 1003 1132 1000 b 1092 817 1117 938 1104 878 b 1161 914 1110 853 1133 885 b 1357 1053 1218 974 1283 1019 b 1700 1133 1467 1101 1581 1129 b 1897 1110 1767 1136 1832 1128 b 2019 1044 1943 1097 1985 1076 b 2074 903 2060 1006 2078 958 b 2044 819 2069 874 2060 846 b 1867 640 2001 743 1943 683 b 1749 594 1829 618 1790 603 b 1672 596 1722 589 1697 589 b 1644 608 1663 597 1653 601 b 1644 650 1628 622 1628 636 b 1653 657 1647 653 1650 656 b 1657 658 1654 657 1656 657 b 1661 661 1658 660 1660 660 b 1785 749 1704 688 1746 717 b 1860 850 1817 778 1842 811 b 1876 911 1868 869 1874 890 b 1835 1014 1883 954 1869 988 b 1768 1029 1814 1026 1792 1031 b 1418 890 1633 1026 1517 981 b 1322 763 1378 854 1346 811 b 1306 713 1315 747 1310 731 b 1343 619 1297 675 1310 644 b 1426 583 1369 604 1397 592 b 1500 565 1450 576 1475 569 b 1542 550 1515 563 1529 557 b 1561 536 1549 546 1556 542 b 1557 486 1576 518 1575 501 b 1513 469 1544 476 1529 471 b 1486 467 1503 468 1494 467 l 1481 467 b 1347 439 1435 464 1390 454 b 1194 339 1288 419 1236 386 b 1067 163 1143 286 1101 228 b 1035 49 1049 126 1038 89 b 1035 19 1033 39 1035 29 b 1044 -25 1038 4 1040 -10 b 1085 -87 1053 -47 1067 -68 b 1247 -175 1131 -133 1185 -162 b 1413 -179 1301 -186 1357 -187 b 1640 -106 1493 -169 1569 -144 b 1774 4 1692 -78 1736 -42 b 1810 58 1788 21 1800 39 b 1824 135 1822 82 1828 108 b 1817 150 1822 140 1821 146 b 1824 182 1808 163 1811 174 b 1846 190 1831 186 1838 189 b 1915 182 1869 194 1892 192 b 1963 133 1938 172 1953 157 b 1981 36 1975 101 1982 69 b 1965 -14 1981 18 1975 1 b 1917 -74 1951 -35 1935 -56 l 1914 -76 b 1722 -208 1858 -133 1794 -176 b 1439 -290 1632 -251 1538 -279 b 1426 -292 1435 -290 1431 -292 b 1418 -306 1426 -296 1422 -301 b 1389 -324 1410 -314 1400 -319 b 1267 -357 1349 -340 1308 -351 b 1257 -358 1263 -357 1260 -357 b 1174 -365 1229 -362 1201 -365 b 989 -292 1103 -364 1040 -339 b 876 -126 939 -246 901 -190 b 783 51 824 -78 793 -19 b 807 201 779 103 786 153 z m 1114 593 b 1065 676 1089 617 1074 644 b 1036 464 1054 606 1044 535 b 1035 456 1036 461 1036 458 l 1074 475 b 1192 524 1111 493 1151 510 l 1194 524 b 1200 526 1196 525 1199 525 b 1203 531 1201 526 1201 528 b 1200 535 1201 532 1201 533 b 1194 538 1199 536 1196 536 b 1190 539 1193 538 1192 538 b 1114 593 1161 553 1136 571 z "},"":{"ha":1319,"x_min":0,"x_max":0,"o":"m 440 -346 b 431 -312 435 -336 432 -325 b 214 -240 354 -304 282 -281 b 29 -4 122 -185 61 -106 b 4 226 7 72 -1 149 b 54 458 10 306 26 383 b 175 696 85 543 125 622 b 283 832 207 744 243 789 b 560 1053 365 919 457 993 b 804 1138 636 1096 718 1125 b 917 1146 842 1144 879 1147 b 1101 1099 982 1144 1043 1129 b 1199 981 1150 1074 1183 1035 b 1190 857 1208 939 1206 897 b 1090 713 1169 800 1136 753 b 996 647 1061 688 1031 665 b 892 626 963 631 928 624 b 861 635 881 628 871 631 b 849 643 857 636 853 639 b 843 656 844 646 843 650 b 849 669 843 661 844 665 b 863 675 853 672 857 674 b 924 710 885 683 906 694 b 1035 897 986 757 1022 819 b 1017 989 1040 929 1035 960 b 925 1042 996 1024 965 1040 b 839 1026 896 1042 867 1036 b 624 906 758 1000 686 960 b 411 636 538 828 467 738 b 321 438 375 572 344 506 b 260 210 294 364 274 288 b 253 110 254 175 251 142 b 282 -57 251 50 261 -6 b 478 -215 319 -144 385 -197 b 628 -206 529 -224 579 -221 b 883 -57 726 -179 811 -129 b 988 94 926 -12 961 38 b 1007 168 999 118 1006 142 b 1000 190 1008 176 1006 183 b 1006 228 989 204 990 217 b 1050 244 1018 238 1033 243 b 1111 239 1071 247 1092 246 b 1158 183 1138 229 1153 210 b 1158 121 1163 163 1163 142 b 1151 85 1157 108 1154 97 l 1149 71 b 1111 -11 1142 42 1129 14 b 982 -142 1074 -60 1031 -104 b 685 -293 893 -212 794 -264 b 581 -312 650 -303 615 -310 b 601 -339 588 -322 594 -331 b 617 -360 607 -346 613 -353 b 699 -482 649 -397 676 -439 b 719 -572 713 -511 719 -540 l 719 -578 b 718 -601 721 -585 719 -593 b 639 -692 708 -646 682 -676 b 496 -690 592 -708 544 -708 b 404 -633 461 -679 431 -660 b 385 -597 394 -624 388 -611 b 396 -515 381 -568 385 -542 b 436 -486 404 -500 418 -490 b 485 -494 454 -482 469 -485 b 489 -517 494 -501 496 -508 b 483 -536 485 -524 482 -529 b 517 -610 486 -565 497 -589 b 549 -633 526 -619 536 -628 b 558 -635 553 -635 556 -636 b 563 -628 560 -633 561 -632 b 567 -599 567 -618 568 -608 b 551 -549 564 -581 558 -564 b 485 -426 532 -506 510 -465 l 476 -412 b 440 -346 461 -392 450 -369 z "},"":{"ha":1353,"x_min":0,"x_max":0,"o":"m 399 531 b 386 539 396 536 390 536 b 308 593 357 553 332 571 b 257 714 275 626 257 665 b 271 781 256 738 263 760 b 357 914 290 832 321 875 b 553 1053 413 974 479 1018 b 894 1133 661 1103 776 1128 b 1093 1110 963 1136 1028 1129 b 1215 1044 1138 1097 1181 1076 b 1269 903 1256 1006 1275 958 b 1240 819 1265 874 1256 846 b 1063 640 1197 743 1139 683 b 944 594 1025 619 986 601 b 868 596 918 589 893 588 b 840 608 858 599 849 601 b 839 650 824 621 824 638 b 851 658 843 654 847 656 b 981 749 896 686 942 714 b 1056 850 1011 778 1038 811 b 1072 911 1064 869 1071 890 b 1031 1014 1076 953 1067 989 b 963 1029 1010 1026 986 1029 b 614 890 829 1028 713 979 b 518 763 575 854 542 813 b 501 713 511 747 504 731 b 539 619 494 678 504 643 b 622 583 564 603 593 593 b 696 565 646 576 671 571 b 738 550 710 563 724 557 b 756 536 744 547 750 542 b 753 486 772 519 771 500 b 708 469 740 476 724 472 b 675 467 697 467 686 467 b 543 439 629 465 586 453 b 389 339 483 419 432 386 b 263 163 340 286 296 228 b 229 49 244 126 233 89 b 281 -87 226 -4 244 -50 b 443 -175 325 -133 381 -161 b 608 -179 497 -187 553 -186 b 835 -106 689 -168 765 -146 b 969 4 886 -76 933 -43 b 1006 58 983 21 996 39 b 1019 135 1018 82 1022 107 b 1011 150 1018 140 1015 146 b 1019 182 1003 163 1006 174 b 1040 190 1025 186 1033 189 b 1111 182 1065 194 1088 192 b 1158 133 1133 172 1149 156 b 1176 36 1172 103 1176 69 b 1161 -14 1176 18 1171 1 b 1110 -76 1147 -37 1129 -57 b 918 -208 1056 -133 989 -175 b 635 -290 828 -251 733 -281 b 426 -285 565 -297 496 -294 b 269 -249 374 -278 321 -267 b 72 -126 196 -221 129 -182 b -21 51 21 -78 -12 -19 b 1 201 -28 104 -17 153 b 110 363 26 263 65 315 b 268 475 156 410 210 446 b 388 524 307 493 347 510 b 399 531 392 525 397 525 z m 744 1551 b 808 1517 772 1554 794 1542 b 850 1449 822 1493 836 1471 b 924 1364 869 1415 892 1386 b 994 1313 947 1347 971 1331 b 1032 1283 1007 1303 1021 1294 b 1032 1253 1043 1272 1042 1263 b 997 1236 1022 1243 1010 1239 b 926 1246 972 1232 949 1236 b 863 1278 904 1254 883 1267 b 772 1338 832 1297 803 1319 b 726 1371 756 1347 740 1358 b 663 1485 693 1401 667 1438 b 692 1542 660 1510 669 1529 b 744 1551 708 1549 725 1553 z "},"":{"ha":1353,"x_min":0,"x_max":0,"o":"m 399 531 b 386 539 396 536 390 536 b 308 593 357 553 332 571 b 257 714 275 626 257 665 b 271 781 256 738 263 760 b 357 914 290 832 321 875 b 553 1053 413 974 479 1018 b 894 1133 661 1103 776 1128 b 1093 1110 963 1136 1028 1129 b 1215 1044 1138 1097 1181 1076 b 1269 903 1256 1006 1275 958 b 1240 819 1265 874 1256 846 b 1063 640 1197 743 1139 683 b 944 594 1025 619 986 601 b 868 596 918 589 893 588 b 840 608 858 599 849 601 b 839 650 824 621 824 638 b 851 658 843 654 847 656 b 981 749 896 686 942 714 b 1056 850 1011 778 1038 811 b 1072 911 1064 869 1071 890 b 1031 1014 1076 953 1067 989 b 963 1029 1010 1026 986 1029 b 614 890 829 1028 713 979 b 518 763 575 854 542 813 b 501 713 511 747 504 731 b 539 619 494 678 504 643 b 622 583 564 603 593 593 b 696 565 646 576 671 571 b 738 550 710 563 724 557 b 756 536 744 547 750 542 b 753 486 772 519 771 500 b 708 469 740 476 724 472 b 675 467 697 467 686 467 b 543 439 629 465 586 453 b 389 339 483 419 432 386 b 263 163 340 286 296 228 b 229 49 244 126 233 89 b 281 -87 226 -4 244 -50 b 443 -175 325 -133 381 -161 b 608 -179 497 -187 553 -186 b 835 -106 689 -168 765 -146 b 969 4 886 -76 933 -43 b 1006 58 983 21 996 39 b 1019 135 1018 82 1022 107 b 1011 150 1018 140 1015 146 b 1019 182 1003 163 1006 174 b 1040 190 1025 186 1033 189 b 1111 182 1065 194 1088 192 b 1158 133 1133 172 1149 156 b 1176 36 1172 103 1176 69 b 1161 -14 1176 18 1171 1 b 1110 -76 1147 -37 1129 -57 b 918 -208 1056 -133 989 -175 b 635 -290 828 -251 733 -281 b 426 -285 565 -297 496 -294 b 269 -249 374 -278 321 -267 b 72 -126 196 -221 129 -182 b -21 51 21 -78 -12 -19 b 1 201 -28 104 -17 153 b 110 363 26 263 65 315 b 268 475 156 410 210 446 b 388 524 307 493 347 510 b 399 531 392 525 397 525 z m 1032 1532 b 1085 1522 1051 1533 1068 1529 b 1114 1465 1107 1510 1117 1490 b 1050 1351 1110 1418 1083 1382 b 1004 1318 1036 1339 1021 1328 b 914 1258 974 1300 944 1278 b 850 1226 893 1247 872 1235 b 779 1217 828 1217 804 1213 b 744 1233 767 1219 754 1224 b 744 1264 735 1243 733 1253 b 782 1293 756 1275 769 1283 b 853 1344 806 1311 829 1328 b 926 1429 885 1367 907 1396 b 968 1497 940 1451 954 1474 b 1032 1532 982 1522 1004 1535 z "},"":{"ha":1353,"x_min":0,"x_max":0,"o":"m 399 531 b 386 539 396 536 390 536 b 308 593 357 553 332 571 b 257 714 275 626 257 665 b 271 781 256 738 263 760 b 357 914 290 832 321 875 b 553 1053 413 974 479 1018 b 894 1133 661 1103 776 1128 b 1093 1110 963 1136 1028 1129 b 1215 1044 1138 1097 1181 1076 b 1269 903 1256 1006 1275 958 b 1240 819 1265 874 1256 846 b 1063 640 1197 743 1139 683 b 944 594 1025 619 986 601 b 868 596 918 589 893 588 b 840 608 858 599 849 601 b 839 650 824 621 824 638 b 851 658 843 654 847 656 b 981 749 896 686 942 714 b 1056 850 1011 778 1038 811 b 1072 911 1064 869 1071 890 b 1031 1014 1076 953 1067 989 b 963 1029 1010 1026 986 1029 b 614 890 829 1028 713 979 b 518 763 575 854 542 813 b 501 713 511 747 504 731 b 539 619 494 678 504 643 b 622 583 564 603 593 593 b 696 565 646 576 671 571 b 738 550 710 563 724 557 b 756 536 744 547 750 542 b 753 486 772 519 771 500 b 708 469 740 476 724 472 b 675 467 697 467 686 467 b 543 439 629 465 586 453 b 389 339 483 419 432 386 b 263 163 340 286 296 228 b 229 49 244 126 233 89 b 281 -87 226 -4 244 -50 b 443 -175 325 -133 381 -161 b 608 -179 497 -187 553 -186 b 835 -106 689 -168 765 -146 b 969 4 886 -76 933 -43 b 1006 58 983 21 996 39 b 1019 135 1018 82 1022 107 b 1011 150 1018 140 1015 146 b 1019 182 1003 163 1006 174 b 1040 190 1025 186 1033 189 b 1111 182 1065 194 1088 192 b 1158 133 1133 172 1149 156 b 1176 36 1172 103 1176 69 b 1161 -14 1176 18 1171 1 b 1110 -76 1147 -37 1129 -57 b 918 -208 1056 -133 989 -175 b 635 -290 828 -251 733 -281 b 426 -285 565 -297 496 -294 b 269 -249 374 -278 321 -267 b 72 -126 196 -221 129 -182 b -21 51 21 -78 -12 -19 b 1 201 -28 104 -17 153 b 110 363 26 263 65 315 b 268 475 156 410 210 446 b 388 524 307 493 347 510 b 399 531 392 525 397 525 z m 888 1403 b 851 1347 872 1385 863 1367 b 801 1272 838 1321 821 1296 b 732 1240 783 1251 761 1238 b 729 1240 732 1240 731 1240 b 694 1304 690 1244 678 1269 b 750 1382 710 1333 731 1357 b 832 1500 779 1419 808 1458 b 922 1538 853 1535 885 1542 b 1001 1483 957 1533 985 1515 b 1032 1408 1014 1460 1026 1435 b 1049 1363 1036 1393 1043 1378 b 1071 1300 1056 1342 1064 1321 b 1075 1286 1072 1296 1074 1290 b 1061 1257 1078 1272 1074 1264 b 1038 1250 1053 1253 1046 1250 b 938 1297 994 1246 961 1260 b 900 1374 922 1321 910 1347 b 888 1403 896 1383 893 1392 z "},"":{"ha":1353,"x_min":0,"x_max":0,"o":"m 399 531 b 386 539 396 536 390 536 b 308 593 357 553 332 571 b 257 714 275 626 257 665 b 271 781 256 738 263 760 b 357 914 290 832 321 875 b 553 1053 413 974 479 1018 b 894 1133 661 1103 776 1128 b 1093 1110 963 1136 1028 1129 b 1215 1044 1138 1097 1181 1076 b 1269 903 1256 1006 1275 958 b 1240 819 1265 874 1256 846 b 1063 640 1197 743 1139 683 b 944 594 1025 619 986 601 b 868 596 918 589 893 588 b 840 608 858 599 849 601 b 839 650 824 621 824 638 b 851 658 843 654 847 656 b 981 749 896 686 942 714 b 1056 850 1011 778 1038 811 b 1072 911 1064 869 1071 890 b 1031 1014 1076 953 1067 989 b 963 1029 1010 1026 986 1029 b 614 890 829 1028 713 979 b 518 763 575 854 542 813 b 501 713 511 747 504 731 b 539 619 494 678 504 643 b 622 583 564 603 593 593 b 696 565 646 576 671 571 b 738 550 710 563 724 557 b 756 536 744 547 750 542 b 753 486 772 519 771 500 b 708 469 740 476 724 472 b 675 467 697 467 686 467 b 543 439 629 465 586 453 b 389 339 483 419 432 386 b 263 163 340 286 296 228 b 229 49 244 126 233 89 b 281 -87 226 -4 244 -50 b 443 -175 325 -133 381 -161 b 608 -179 497 -187 553 -186 b 835 -106 689 -168 765 -146 b 969 4 886 -76 933 -43 b 1006 58 983 21 996 39 b 1019 135 1018 82 1022 107 b 1011 150 1018 140 1015 146 b 1019 182 1003 163 1006 174 b 1040 190 1025 186 1033 189 b 1111 182 1065 194 1088 192 b 1158 133 1133 172 1149 156 b 1176 36 1172 103 1176 69 b 1161 -14 1176 18 1171 1 b 1110 -76 1147 -37 1129 -57 b 918 -208 1056 -133 989 -175 b 635 -290 828 -251 733 -281 b 426 -285 565 -297 496 -294 b 269 -249 374 -278 321 -267 b 72 -126 196 -221 129 -182 b -21 51 21 -78 -12 -19 b 1 201 -28 104 -17 153 b 110 363 26 263 65 315 b 268 475 156 410 210 446 b 388 524 307 493 347 510 b 399 531 392 525 397 525 z m 685 1201 b 625 1214 664 1203 643 1206 b 589 1242 611 1221 599 1229 b 588 1319 572 1267 571 1294 b 639 1360 600 1339 618 1351 b 732 1365 669 1371 700 1374 b 761 1353 742 1363 751 1358 b 778 1332 768 1349 776 1342 b 792 1297 781 1319 786 1308 b 788 1256 800 1282 799 1268 b 685 1201 761 1222 726 1203 z m 1036 1201 b 976 1214 1015 1203 994 1206 b 940 1242 963 1221 950 1229 b 939 1319 924 1267 922 1294 b 990 1360 951 1339 969 1351 b 1083 1365 1021 1371 1051 1374 b 1113 1353 1093 1363 1103 1358 b 1129 1332 1119 1349 1128 1342 b 1143 1297 1132 1319 1138 1308 b 1139 1256 1151 1282 1150 1268 b 1036 1201 1113 1222 1078 1203 z "},"":{"ha":1106,"x_min":0,"x_max":0,"o":"m 974 1022 b 949 1013 964 1021 957 1017 b 772 908 885 986 825 953 b 715 854 751 892 732 874 b 683 790 701 835 692 814 b 724 692 675 763 692 706 b 729 688 725 690 728 689 b 729 669 738 681 738 676 b 693 654 718 661 706 656 b 547 718 632 649 585 669 b 528 817 525 747 519 781 b 568 897 535 847 549 874 b 694 1006 604 940 647 975 b 936 1129 771 1056 853 1093 b 1008 1157 960 1139 983 1150 b 1119 1160 1046 1167 1082 1168 b 1157 1144 1132 1156 1144 1151 b 1196 1078 1182 1129 1196 1107 b 1186 988 1197 1047 1192 1018 b 1111 697 1165 890 1140 793 b 990 322 1071 572 1032 447 b 869 28 956 222 915 124 b 771 -150 840 -33 808 -93 b 664 -281 739 -197 706 -242 b 417 -418 593 -347 513 -399 b 156 -410 329 -437 242 -435 b 58 -361 121 -400 88 -385 b 4 -267 29 -336 8 -306 b 22 -192 0 -239 8 -214 b 83 -115 39 -164 60 -139 b 217 -31 122 -78 165 -49 b 403 -19 278 -8 340 -3 b 460 -44 424 -25 443 -32 b 479 -67 468 -51 475 -57 b 464 -122 493 -87 486 -110 b 414 -129 449 -131 431 -131 b 353 -111 393 -126 372 -119 b 329 -112 344 -108 336 -108 b 226 -218 283 -137 249 -172 b 218 -271 218 -235 215 -253 b 261 -315 224 -296 239 -310 b 329 -314 285 -321 307 -319 b 442 -251 371 -301 408 -279 b 569 -100 493 -208 533 -156 b 725 225 633 3 683 113 b 865 650 776 365 818 508 b 944 903 893 733 918 818 b 974 1013 956 939 967 975 b 974 1022 975 1015 976 1018 z m 960 1621 b 1024 1586 988 1624 1010 1611 b 1065 1518 1038 1563 1051 1540 b 1139 1433 1085 1485 1107 1456 b 1210 1382 1163 1417 1186 1400 b 1247 1353 1222 1372 1236 1364 b 1247 1322 1258 1342 1257 1332 b 1213 1306 1238 1313 1225 1308 b 1142 1315 1188 1301 1164 1306 b 1078 1347 1119 1324 1099 1336 b 988 1407 1047 1367 1018 1389 b 942 1440 971 1417 956 1428 b 878 1554 908 1471 882 1507 b 907 1611 875 1579 885 1599 b 960 1621 924 1618 940 1622 z "},"":{"ha":1106,"x_min":0,"x_max":0,"o":"m 974 1022 b 949 1013 964 1021 957 1017 b 772 908 885 986 825 953 b 715 854 751 892 732 874 b 683 790 701 835 692 814 b 724 692 675 763 692 706 b 729 688 725 690 728 689 b 729 669 738 681 738 676 b 693 654 718 661 706 656 b 547 718 632 649 585 669 b 528 817 525 747 519 781 b 568 897 535 847 549 874 b 694 1006 604 940 647 975 b 936 1129 771 1056 853 1093 b 1008 1157 960 1139 983 1150 b 1119 1160 1046 1167 1082 1168 b 1157 1144 1132 1156 1144 1151 b 1196 1078 1182 1129 1196 1107 b 1186 988 1197 1047 1192 1018 b 1111 697 1165 890 1140 793 b 990 322 1071 572 1032 447 b 869 28 956 222 915 124 b 771 -150 840 -33 808 -93 b 664 -281 739 -197 706 -242 b 417 -418 593 -347 513 -399 b 156 -410 329 -437 242 -435 b 58 -361 121 -400 88 -385 b 4 -267 29 -336 8 -306 b 22 -192 0 -239 8 -214 b 83 -115 39 -164 60 -139 b 217 -31 122 -78 165 -49 b 403 -19 278 -8 340 -3 b 460 -44 424 -25 443 -32 b 479 -67 468 -51 475 -57 b 464 -122 493 -87 486 -110 b 414 -129 449 -131 431 -131 b 353 -111 393 -126 372 -119 b 329 -112 344 -108 336 -108 b 226 -218 283 -137 249 -172 b 218 -271 218 -235 215 -253 b 261 -315 224 -296 239 -310 b 329 -314 285 -321 307 -319 b 442 -251 371 -301 408 -279 b 569 -100 493 -208 533 -156 b 725 225 633 3 683 113 b 865 650 776 365 818 508 b 944 903 893 733 918 818 b 974 1013 956 939 967 975 b 974 1022 975 1015 976 1018 z m 1192 1588 b 1244 1578 1211 1589 1228 1585 b 1274 1521 1267 1565 1276 1546 b 1210 1407 1269 1474 1243 1438 b 1164 1374 1196 1394 1181 1383 b 1074 1314 1133 1356 1104 1333 b 1010 1282 1053 1303 1032 1290 b 939 1272 988 1272 964 1268 b 904 1289 926 1275 914 1279 b 904 1319 894 1299 893 1308 b 942 1349 915 1331 929 1339 b 1013 1400 965 1367 989 1383 b 1086 1485 1044 1422 1067 1451 b 1128 1553 1100 1507 1114 1529 b 1192 1588 1142 1578 1164 1590 z "},"":{"ha":1106,"x_min":0,"x_max":0,"o":"m 974 1022 b 949 1013 964 1021 957 1017 b 772 908 885 986 825 953 b 715 854 751 892 732 874 b 683 790 701 835 692 814 b 724 692 675 763 692 706 b 729 688 725 690 728 689 b 729 669 738 681 738 676 b 693 654 718 661 706 656 b 547 718 632 649 585 669 b 528 817 525 747 519 781 b 568 897 535 847 549 874 b 694 1006 604 940 647 975 b 936 1129 771 1056 853 1093 b 1008 1157 960 1139 983 1150 b 1119 1160 1046 1167 1082 1168 b 1157 1144 1132 1156 1144 1151 b 1196 1078 1182 1129 1196 1107 b 1186 988 1197 1047 1192 1018 b 1111 697 1165 890 1140 793 b 990 322 1071 572 1032 447 b 869 28 956 222 915 124 b 771 -150 840 -33 808 -93 b 664 -281 739 -197 706 -242 b 417 -418 593 -347 513 -399 b 156 -410 329 -437 242 -435 b 58 -361 121 -400 88 -385 b 4 -267 29 -336 8 -306 b 22 -192 0 -239 8 -214 b 83 -115 39 -164 60 -139 b 217 -31 122 -78 165 -49 b 403 -19 278 -8 340 -3 b 460 -44 424 -25 443 -32 b 479 -67 468 -51 475 -57 b 464 -122 493 -87 486 -110 b 414 -129 449 -131 431 -131 b 353 -111 393 -126 372 -119 b 329 -112 344 -108 336 -108 b 226 -218 283 -137 249 -172 b 218 -271 218 -235 215 -253 b 261 -315 224 -296 239 -310 b 329 -314 285 -321 307 -319 b 442 -251 371 -301 408 -279 b 569 -100 493 -208 533 -156 b 725 225 633 3 683 113 b 865 650 776 365 818 508 b 944 903 893 733 918 818 b 974 1013 956 939 967 975 b 974 1022 975 1015 976 1018 z m 1089 1421 b 1053 1365 1074 1403 1064 1385 b 1003 1290 1039 1339 1022 1314 b 933 1258 985 1269 963 1256 b 931 1258 933 1258 932 1258 b 896 1322 892 1263 879 1288 b 951 1400 911 1351 932 1375 b 1033 1518 981 1438 1010 1476 b 1124 1556 1054 1553 1086 1560 b 1203 1501 1158 1551 1186 1533 b 1233 1426 1215 1478 1228 1453 b 1250 1381 1238 1411 1244 1396 b 1272 1318 1257 1360 1265 1339 b 1276 1304 1274 1314 1275 1308 b 1263 1275 1279 1290 1275 1282 b 1239 1268 1254 1271 1247 1268 b 1139 1315 1196 1264 1163 1278 b 1101 1392 1124 1339 1111 1365 b 1089 1421 1097 1401 1094 1410 z "},"":{"ha":1106,"x_min":0,"x_max":0,"o":"m 974 1022 b 949 1013 964 1021 957 1017 b 772 908 885 986 825 953 b 715 854 751 892 732 874 b 683 790 701 835 692 814 b 724 692 675 763 692 706 b 729 688 725 690 728 689 b 729 669 738 681 738 676 b 693 654 718 661 706 656 b 547 718 632 649 585 669 b 528 817 525 747 519 781 b 568 897 535 847 549 874 b 694 1006 604 940 647 975 b 936 1129 771 1056 853 1093 b 1008 1157 960 1139 983 1150 b 1119 1160 1046 1167 1082 1168 b 1157 1144 1132 1156 1144 1151 b 1196 1078 1182 1129 1196 1107 b 1186 988 1197 1047 1192 1018 b 1111 697 1165 890 1140 793 b 990 322 1071 572 1032 447 b 869 28 956 222 915 124 b 771 -150 840 -33 808 -93 b 664 -281 739 -197 706 -242 b 417 -418 593 -347 513 -399 b 156 -410 329 -437 242 -435 b 58 -361 121 -400 88 -385 b 4 -267 29 -336 8 -306 b 22 -192 0 -239 8 -214 b 83 -115 39 -164 60 -139 b 217 -31 122 -78 165 -49 b 403 -19 278 -8 340 -3 b 460 -44 424 -25 443 -32 b 479 -67 468 -51 475 -57 b 464 -122 493 -87 486 -110 b 414 -129 449 -131 431 -131 b 353 -111 393 -126 372 -119 b 329 -112 344 -108 336 -108 b 226 -218 283 -137 249 -172 b 218 -271 218 -235 215 -253 b 261 -315 224 -296 239 -310 b 329 -314 285 -321 307 -319 b 442 -251 371 -301 408 -279 b 569 -100 493 -208 533 -156 b 725 225 633 3 683 113 b 865 650 776 365 818 508 b 944 903 893 733 918 818 b 974 1013 956 939 967 975 b 974 1022 975 1015 976 1018 z m 876 1257 b 817 1269 856 1258 835 1261 b 781 1297 803 1276 790 1285 b 779 1375 764 1322 763 1350 b 831 1415 792 1394 810 1407 b 924 1421 861 1426 892 1429 b 953 1408 933 1418 943 1414 b 969 1388 960 1404 968 1397 b 983 1353 972 1375 978 1364 b 979 1311 992 1338 990 1324 b 876 1257 953 1278 918 1258 z m 1228 1257 b 1168 1269 1207 1258 1186 1261 b 1132 1297 1154 1276 1142 1285 b 1131 1375 1115 1322 1114 1350 b 1182 1415 1143 1394 1161 1407 b 1275 1421 1213 1426 1243 1429 b 1304 1408 1285 1418 1294 1414 b 1321 1388 1311 1404 1319 1397 b 1335 1353 1324 1375 1329 1364 b 1331 1311 1343 1338 1342 1324 b 1228 1257 1304 1278 1269 1258 z "},"":{"ha":1319,"x_min":0,"x_max":0,"o":"m 75 499 l 114 499 b 174 669 133 556 153 613 b 288 938 208 760 247 850 b 331 1033 301 969 315 1001 b 346 1068 336 1044 342 1056 b 375 1119 354 1086 364 1103 b 479 1171 399 1157 433 1175 b 522 1161 494 1171 508 1168 b 547 1119 540 1153 549 1139 b 539 1079 546 1107 543 1093 l 539 1078 b 499 954 528 1036 514 994 b 494 943 497 950 496 947 b 394 681 463 856 429 768 l 394 679 b 393 675 393 678 393 676 b 396 669 393 674 394 671 l 401 681 l 415 703 b 561 926 460 781 508 856 b 765 1132 618 1006 686 1075 b 963 1199 825 1175 890 1197 b 1114 1150 1019 1200 1069 1183 b 1171 1079 1138 1131 1157 1107 b 1229 911 1197 1025 1217 969 b 1249 694 1244 840 1250 768 b 1206 403 1247 596 1233 499 b 1079 101 1176 296 1135 196 b 956 -62 1044 42 1003 -12 b 625 -276 864 -162 754 -233 b 468 -307 574 -292 522 -303 b 206 -283 379 -314 292 -307 b 101 -237 168 -274 133 -258 b 63 -204 88 -228 75 -217 b 51 -81 32 -167 28 -125 b 144 8 74 -40 104 -11 b 275 50 186 26 229 40 b 479 71 343 65 411 72 b 657 46 540 72 600 64 b 694 26 669 40 682 33 b 710 15 700 24 706 19 b 704 -37 724 -4 722 -22 b 653 -57 689 -49 672 -56 b 579 -50 628 -60 603 -57 b 417 -42 525 -37 471 -35 b 321 -56 385 -44 353 -49 b 244 -90 292 -61 267 -72 b 226 -114 236 -97 231 -104 b 240 -171 215 -137 219 -156 b 315 -203 264 -186 289 -197 b 543 -181 394 -219 469 -212 b 703 -71 603 -154 656 -117 b 869 150 769 -6 825 68 b 1018 600 946 290 996 440 b 1031 753 1025 651 1029 701 b 1028 840 1032 782 1031 811 b 976 1050 1021 913 1004 982 b 953 1089 971 1064 963 1076 b 942 1099 949 1094 944 1097 b 929 1094 939 1099 935 1097 b 872 1060 908 1085 890 1074 b 710 904 811 1015 757 964 b 492 585 629 803 557 697 b 450 517 478 561 464 539 b 438 496 446 510 442 503 l 454 496 b 514 492 479 494 499 493 b 547 490 525 490 536 490 l 549 490 b 586 469 564 489 576 482 b 606 426 596 457 603 443 b 575 389 610 403 600 390 l 568 389 b 533 390 556 389 544 389 b 454 392 507 390 481 390 l 446 392 b 403 394 438 393 424 393 l 376 394 b 292 264 350 350 321 307 b 269 229 285 253 276 242 b 233 176 258 211 246 194 b 218 157 229 169 224 164 b 92 121 183 119 142 107 b 49 174 65 128 51 146 b 51 251 46 200 47 225 b 83 396 58 300 69 349 l 54 396 b -56 397 17 396 -19 396 b -181 406 -97 399 -139 401 b -218 426 -196 407 -208 414 b -232 468 -228 438 -233 451 b -212 490 -232 481 -225 489 l -185 493 b -78 497 -149 494 -112 496 l -44 500 b 56 499 -11 501 22 500 b 75 499 63 497 68 497 z "}}}
